<?xml version="1.0" standalone="no"?>
<!DOCTYPE svg PUBLIC "-//W3C//DTD SVG 1.1//EN" "http://www.w3.org/Graphics/SVG/1.1/DTD/svg11.dtd" >
<svg>
<metadata>
Created by FontForge 20090622 at Tue Nov 21 09:49:54 2017
 By deploy user
Copyright 2016 Studio Feed Inc., all rights reserved.
</metadata>
<defs>
<font id="Guillon-Regular" horiz-adv-x="840" >
  <font-face 
    font-family="Guillon"
    font-weight="400"
    font-stretch="normal"
    units-per-em="1000"
    panose-1="0 0 0 0 0 0 0 0 0 0"
    ascent="800"
    descent="-200"
    x-height="503"
    cap-height="710"
    bbox="-48 -225 1198 974"
    underline-thickness="50"
    underline-position="-100"
    unicode-range="U+000D-U+FB02"
  />
<missing-glyph horiz-adv-x="678" 
d="M581 -210h-484v920h484v-920zM485 -122v744h-292v-744h292z" />
    <glyph glyph-name="f_f" unicode="ff" horiz-adv-x="622" 
d="M180 0h-92v428h-70v75h70v45q0 80 41 127.5t122 47.5q33 0 68 -8l-9 -79q-26 6 -50 6q-80 0 -80 -93v-46h217v45q0 80 41 127.5t122 47.5q33 0 68 -8l-9 -79q-26 6 -50 6q-80 0 -80 -93v-46h123v-75h-123v-428h-92v428h-217v-428z" />
    <glyph glyph-name="f_i" unicode="fi" horiz-adv-x="555" 
d="M376 665q0 24 17 41t41 17t41 -17t17 -41t-17 -41.5t-41 -17.5t-41 17.5t-17 41.5zM303 428h-123v-428h-92v428h-70v75h70v45q0 80 41 127.5t122 47.5q33 0 68 -8l-9 -79q-26 6 -50 6q-80 0 -80 -93v-46h123v-75zM388 0v503h92v-503h-92z" />
    <glyph glyph-name="f_j" unicode="fj" horiz-adv-x="555" 
d="M376 665q0 24 17 41t41 17t41 -17t17 -41t-17 -41.5t-41 -17.5t-41 17.5t-17 41.5zM303 428h-123v-428h-92v428h-70v75h70v45q0 80 41 127.5t122 47.5q33 0 68 -8l-9 -79q-26 6 -50 6q-80 0 -80 -93v-46h123v-75zM265 -217l8 80q18 -5 41 -5q74 0 74 85v560h92v-559
q0 -77 -39.5 -122t-118.5 -45q-21 0 -57 6z" />
    <glyph glyph-name="f_l" unicode="fl" horiz-adv-x="555" 
d="M388 0v710h92v-710h-92zM303 428h-123v-428h-92v428h-70v75h70v45q0 80 41 127.5t122 47.5q33 0 68 -8l-9 -79q-26 6 -50 6q-80 0 -80 -93v-46h123v-75z" />
    <glyph glyph-name="f_t" unicode="ft" horiz-adv-x="647" 
d="M625 -5q-32 -8 -64 -8q-83 0 -125 47.5t-42 131.5v262h-214v-428h-92v428h-70v75h70v45q0 80 41 127.5t122 47.5q33 0 68 -8l-9 -79q-26 6 -50 6q-80 0 -80 -93v-46h214v163h92v-163h140v-75h-140v-263q0 -97 83 -97q24 0 48 6z" />
    <glyph glyph-name="f_f_i" unicode="ffi" horiz-adv-x="864" 
d="M685 665q0 24 17 41t41 17t41 -17t17 -41t-17 -41.5t-41 -17.5t-41 17.5t-17 41.5zM697 0v503h92v-503h-92zM180 0h-92v428h-70v75h70v45q0 80 41 127.5t122 47.5q33 0 68 -8l-9 -79q-26 6 -50 6q-80 0 -80 -93v-46h217v45q0 80 41 127.5t122 47.5q33 0 68 -8l-9 -79
q-26 6 -50 6q-80 0 -80 -93v-46h123v-75h-123v-428h-92v428h-217v-428z" />
    <glyph glyph-name="f_f_j" unicode="ffj" horiz-adv-x="863" 
d="M684 665q0 24 17 41t41 17t41 -17t17 -41t-17 -41.5t-41 -17.5t-41 17.5t-17 41.5zM397 0v428h-217v-428h-92v428h-70v75h70v45q0 80 41 127.5t122 47.5q33 0 68 -8l-9 -79q-26 6 -50 6q-80 0 -80 -93v-46h217v45q0 80 41 127.5t122 47.5q33 0 67 -8l-8 -79q-26 6 -51 6
q-79 0 -79 -93v-46h122v-75h-122v-428h-92zM573 -217l8 80q18 -5 41 -5q74 0 74 85v560h92v-559q0 -77 -39.5 -122t-118.5 -45q-21 0 -57 6z" />
    <glyph glyph-name="f_f_l" unicode="ffl" horiz-adv-x="864" 
d="M697 0v710h92v-710h-92zM180 0h-92v428h-70v75h70v45q0 80 41 127.5t122 47.5q33 0 68 -8l-9 -79q-26 6 -50 6q-80 0 -80 -93v-46h217v45q0 80 41 127.5t122 47.5q33 0 68 -8l-9 -79q-26 6 -50 6q-80 0 -80 -93v-46h123v-75h-123v-428h-92v428h-217v-428z" />
    <glyph glyph-name="f_f_t" unicode="fft" horiz-adv-x="956" 
d="M934 -5q-32 -8 -64 -8q-83 0 -125 47.5t-42 131.5v262h-214v-428h-92v428h-217v-428h-92v428h-70v75h70v45q0 80 41 127.5t122 47.5q33 0 68 -8l-9 -79q-26 6 -50 6q-80 0 -80 -93v-46h217v45q0 80 41 127.5t122 47.5q33 0 68 -8l-9 -79q-26 6 -50 6q-80 0 -80 -93v-46
h214v163h92v-163h140v-75h-140v-263q0 -97 83 -97q24 0 48 6z" />
    <glyph glyph-name=".notdef" horiz-adv-x="678" 
d="M581 -210h-484v920h484v-920zM485 -122v744h-292v-744h292z" />
    <glyph glyph-name=".null" horiz-adv-x="0" 
 />
    <glyph glyph-name="nonmarkingreturn" horiz-adv-x="333" 
 />
    <glyph glyph-name="NULL" horiz-adv-x="0" 
 />
    <glyph glyph-name="NULL" horiz-adv-x="0" 
 />
    <glyph glyph-name="CR" unicode="&#xd;" horiz-adv-x="0" 
 />
    <glyph glyph-name="space" unicode=" " horiz-adv-x="214" 
 />
    <glyph glyph-name="exclam" unicode="!" horiz-adv-x="274" 
d="M89 493v217h96v-217l-10 -288h-75zM79 49q0 24 17 41.5t41 17.5t41 -17.5t17 -41.5t-17 -41.5t-41 -17.5t-41 17.5t-17 41.5z" />
    <glyph glyph-name="quotedbl" unicode="&#x22;" horiz-adv-x="322" 
d="M46 710h90l-10 -224h-69zM186 710h90l-10 -224h-69z" />
    <glyph glyph-name="numbersign" unicode="#" horiz-adv-x="601" 
d="M354 260l22 190h-129l-22 -190h129zM325 0l21 182h-129l-21 -182h-83l21 182h-106v78h114l22 190h-107v78h115l21 182h83l-21 -182h129l21 182h83l-21 -182h106v-78h-114l-22 -190h107v-78h-115l-21 -182h-83z" />
    <glyph glyph-name="dollar" unicode="$" horiz-adv-x="598" 
d="M347 -145h-86v135q-150 19 -235 151l75 56q76 -122 210 -122q67 0 105 30.5t38 77.5q0 41 -27 70.5t-91 52.5l-110 40q-153 57 -153 188q0 71 51.5 124t139.5 63v134h85v-136q111 -17 181 -104l-66 -63q-29 38 -74 61t-94 23q-60 0 -94.5 -28.5t-34.5 -69.5
q0 -70 105 -108l105 -39q175 -65 175 -204q0 -76 -55 -132t-150 -66v-134z" />
    <glyph glyph-name="percent" unicode="%" horiz-adv-x="854" 
d="M36 542q0 75 47 127t121 52t121 -52t47 -127q0 -74 -47 -126t-121 -52q-73 0 -120.5 52t-47.5 126zM168 0l423 710h95l-422 -710h-96zM114 542q0 -48 25 -78t65 -30t65 30t25 78q0 49 -24.5 79t-65.5 30t-65.5 -30t-24.5 -79zM482 168q0 74 47 126t121 52t121 -52
t47 -126q0 -75 -47 -127t-121 -52q-73 0 -120.5 52t-47.5 127zM560 168q0 -49 25 -79t65 -30t65 30t25 79t-24.5 78.5t-65.5 29.5q-40 0 -65 -29.5t-25 -78.5z" />
    <glyph glyph-name="ampersand" unicode="&#x26;" horiz-adv-x="619" 
d="M535 -13l-79 85q-88 -85 -196 -85q-100 0 -159.5 53t-59.5 132q0 61 33 108.5t102 90.5q-47 51 -66 88.5t-19 88.5q0 72 53.5 123.5t135.5 51.5q85 0 134.5 -50t49.5 -120q0 -55 -31.5 -97t-97.5 -82l-24 -15l142 -148q33 56 56 126l85 -30q-32 -93 -79 -162l88 -92z
M254 419l1 -2l34 20q82 46 82 114q0 39 -25.5 65t-65.5 26q-41 0 -68.5 -27t-27.5 -69q0 -55 70 -127zM257 69q74 0 139 67l-164 175q-52 -32 -74.5 -63.5t-22.5 -69.5q0 -48 33.5 -78.5t88.5 -30.5z" />
    <glyph glyph-name="quotesingle" unicode="'" horiz-adv-x="182" 
d="M46 710h90l-10 -224h-69z" />
    <glyph glyph-name="parenleft" unicode="(" horiz-adv-x="340" 
d="M77 299q0 257 180 491l60 -45q-150 -198 -150 -446t150 -446l-60 -45q-180 234 -180 491z" />
    <glyph glyph-name="parenright" unicode=")" horiz-adv-x="340" 
d="M83 790q180 -234 180 -491t-180 -491l-60 45q150 198 150 446t-150 446z" />
    <glyph glyph-name="asterisk" unicode="*" horiz-adv-x="474" 
d="M381 395l-113 73l6 -134h-74l6 134l-113 -73l-37 65l120 61l-120 61l37 66l114 -74l-7 136h74l-7 -136l114 74l37 -66l-120 -61l120 -61z" />
    <glyph glyph-name="plus" unicode="+" horiz-adv-x="526" 
d="M71 285v83h149v157h86v-157h149v-83h-149v-157h-86v157h-149z" />
    <glyph glyph-name="comma" unicode="," horiz-adv-x="233" 
d="M39 -123l41 224h94l-65 -224h-70z" />
    <glyph glyph-name="hyphen" unicode="-" horiz-adv-x="420" 
d="M74 243v84h272v-84h-272z" />
    <glyph glyph-name="period" unicode="." horiz-adv-x="240" 
d="M62 49q0 24 17 41.5t41 17.5t41 -17.5t17 -41.5t-17 -41.5t-41 -17.5t-41 17.5t-17 41.5z" />
    <glyph glyph-name="slash" unicode="/" horiz-adv-x="407" 
d="M4 -168l308 935h91l-308 -935h-91z" />
    <glyph glyph-name="zero" unicode="0" horiz-adv-x="634" 
d="M51 355q0 172 72 270t194 98t194 -98t72 -270t-72 -270t-194 -98t-194 98t-72 270zM149 355q0 -133 44 -206.5t124 -73.5t124 73.5t44 206.5t-44 206.5t-124 73.5t-124 -73.5t-44 -206.5z" />
    <glyph glyph-name="one" unicode="1" horiz-adv-x="352" 
d="M254 0h-96v503h-138v77h45q52 0 78 20.5t30 73.5l3 36h78v-710z" />
    <glyph glyph-name="two" unicode="2" horiz-adv-x="521" 
d="M482 0h-446v74l190 192q74 74 109.5 131.5t35.5 113.5q0 55 -33.5 89.5t-91.5 34.5q-59 0 -91.5 -35.5t-32.5 -94.5q0 -21 5 -54l-93 3q-4 24 -4 52q0 97 62.5 157t154.5 60q99 0 160 -60t61 -153q0 -73 -43 -141.5t-127 -151.5l-129 -129h313v-88z" />
    <glyph glyph-name="three" unicode="3" horiz-adv-x="533" 
d="M260 -13q-86 0 -156 50.5t-90 150.5l92 21q33 -134 153 -134q63 0 101.5 34.5t38.5 91.5q0 56 -37.5 90.5t-117.5 34.5h-50v76h50q74 0 106.5 34t32.5 87q0 49 -32.5 80.5t-85.5 31.5q-56 0 -92 -33.5t-44 -104.5l-89 10q10 108 75 162t153 54t150 -56.5t62 -137.5
q0 -107 -93 -159q53 -23 81.5 -68t28.5 -102q0 -93 -67 -153t-170 -60z" />
    <glyph glyph-name="four" unicode="4" horiz-adv-x="538" 
d="M526 153h-101v-153h-93v153h-318v85l317 472h94v-469h101v-88zM113 241h219v328z" />
    <glyph glyph-name="five" unicode="5" horiz-adv-x="582" 
d="M295 -13q-93 0 -159 52t-88 138l90 26q16 -58 59.5 -93t97.5 -35q62 0 104 43.5t42 111.5q0 70 -41 112.5t-110 42.5q-51 0 -89.5 -23t-56.5 -62l-79 16l43 394h385v-88h-303l-22 -191q58 43 138 43q103 0 168 -69t65 -175q0 -107 -69 -175t-175 -68z" />
    <glyph glyph-name="six" unicode="6" horiz-adv-x="575" 
d="M294 -13q-102 0 -173.5 70.5t-71.5 186.5q0 70 24 142.5t63 132.5t79 107t83 84h139q-87 -63 -153.5 -140t-98.5 -153q58 45 132 45q90 0 156 -65t66 -168q0 -105 -71.5 -173.5t-173.5 -68.5zM147 227q0 -67 41 -109.5t106 -42.5t106 42.5t41 106.5q0 67 -39.5 108
t-102.5 41q-67 0 -109.5 -40.5t-42.5 -105.5z" />
    <glyph glyph-name="seven" unicode="7" horiz-adv-x="469" 
d="M4 622v88h441v-52l-252 -658h-110l251 622h-330z" />
    <glyph glyph-name="eight" unicode="8" horiz-adv-x="562" 
d="M281 -13q-108 0 -176.5 61t-68.5 152q0 58 30 105t82 74q-87 55 -87 153q0 81 62 136t158 55t158 -55t62 -136q0 -98 -87 -153q52 -27 82 -74t30 -105q0 -91 -68.5 -152t-176.5 -61zM158 523q0 -48 34 -80.5t89 -32.5t89 32.5t34 80.5t-34 80t-89 32t-89 -32t-34 -80z
M133 206q0 -56 39 -93.5t109 -37.5t109 37.5t39 93.5q0 55 -40.5 93t-107.5 38t-107.5 -38t-40.5 -93z" />
    <glyph glyph-name="nine" unicode="9" horiz-adv-x="575" 
d="M277 0h-139q87 63 153.5 140t98.5 153q-58 -45 -132 -45q-90 0 -156 65t-66 168q0 105 71.5 173.5t173.5 68.5t173.5 -70.5t71.5 -186.5q0 -70 -24 -142.5t-63 -132.5t-79 -107t-83 -84zM134 486q0 -67 39.5 -108t102.5 -41q67 0 109.5 40.5t42.5 105.5q0 67 -41 109.5
t-106 42.5t-106 -42.5t-41 -106.5z" />
    <glyph glyph-name="colon" unicode=":" horiz-adv-x="240" 
d="M62 49q0 24 17 41.5t41 17.5t41 -17.5t17 -41.5t-17 -41.5t-41 -17.5t-41 17.5t-17 41.5zM62 450q0 24 17 41.5t41 17.5t41 -17.5t17 -41.5t-17 -41.5t-41 -17.5t-41 17.5t-17 41.5z" />
    <glyph glyph-name="semicolon" unicode=";" horiz-adv-x="240" 
d="M36 -123l41 224h94l-65 -224h-70zM62 450q0 24 17 41.5t41 17.5t41 -17.5t17 -41.5t-17 -41.5t-41 -17.5t-41 17.5t-17 41.5z" />
    <glyph glyph-name="less" unicode="&#x3c;" horiz-adv-x="526" 
d="M448 551v-96l-271 -127l271 -126v-99l-377 186v76z" />
    <glyph glyph-name="equal" unicode="=" horiz-adv-x="526" 
d="M71 198v82h384v-82h-384zM71 373v82h384v-82h-384z" />
    <glyph glyph-name="greater" unicode="&#x3e;" horiz-adv-x="526" 
d="M78 103v96l271 127l-271 126v99l377 -186v-76z" />
    <glyph glyph-name="question" unicode="?" horiz-adv-x="538" 
d="M49 553q21 73 80.5 121.5t148.5 48.5q90 0 147 -53t57 -131q0 -59 -28 -100t-82 -81q-38 -29 -56.5 -54.5t-19.5 -65.5v-41h-84v44q0 62 22.5 99t66.5 69q45 32 64.5 58t19.5 63q0 46 -30.5 75.5t-82.5 29.5q-105 0 -143 -112zM196 49q0 24 17 41.5t41 17.5t41 -17.5
t17 -41.5t-17 -41.5t-41 -17.5t-41 17.5t-17 41.5z" />
    <glyph glyph-name="at" unicode="@" horiz-adv-x="1032" 
d="M535 -223q-130 0 -236.5 56t-170.5 164t-64 249q0 204 133.5 340.5t330.5 136.5q188 0 314 -125.5t126 -331.5q0 -134 -51 -209.5t-138 -75.5q-52 0 -90 28.5t-52 76.5q-55 -78 -156 -78q-91 0 -151 68.5t-60 175.5t60.5 175t152.5 68q88 0 144 -64v51h90v-330
q0 -93 69 -93q101 0 101 207q0 175 -101.5 279t-257.5 104q-166 0 -273.5 -116t-107.5 -287q0 -186 109.5 -290.5t278.5 -104.5q96 0 170 22l12 -71q-87 -25 -182 -25zM361 252q0 -73 38 -119t97 -46q60 0 99 46t39 119q0 72 -39 118t-99 46q-59 0 -97 -46t-38 -118z" />
    <glyph glyph-name="A" unicode="A" horiz-adv-x="644" 
d="M434 259l-114 328l-113 -328h227zM524 0l-60 173h-287l-60 -173h-99l253 710h102l253 -710h-102z" />
    <glyph glyph-name="B" unicode="B" horiz-adv-x="636" 
d="M82 0v710h272q96 0 152.5 -54.5t56.5 -132.5q0 -96 -86 -148q55 -26 85.5 -72t30.5 -106q0 -84 -62 -140.5t-171 -56.5h-278zM343 622h-165v-214h165q58 0 91.5 30.5t33.5 77.5q0 48 -33 77t-92 29zM362 325h-184v-236h182q65 0 100 31.5t35 85.5q0 53 -34.5 86t-98.5 33
z" />
    <glyph glyph-name="C" unicode="C" horiz-adv-x="679" 
d="M44 356q0 162 94 264.5t245 102.5q165 0 265 -137l-75 -57q-76 106 -190 106q-108 0 -174.5 -77.5t-66.5 -201.5q0 -125 66.5 -203t174.5 -78q116 0 193 108l75 -58q-102 -138 -268 -138q-151 0 -245 103t-94 266z" />
    <glyph glyph-name="D" unicode="D" horiz-adv-x="686" 
d="M82 0v710h219q164 0 252.5 -93.5t88.5 -261.5t-88.5 -261.5t-252.5 -93.5h-219zM303 621h-125v-532h125q120 0 180.5 69.5t60.5 196.5q0 126 -61 196t-180 70z" />
    <glyph glyph-name="E" unicode="E" horiz-adv-x="585" 
d="M82 0v710h446v-89h-350v-218h323v-86h-323v-228h357v-89h-453z" />
    <glyph glyph-name="F" unicode="F" horiz-adv-x="559" 
d="M498 303h-320v-303h-96v710h443v-89h-347v-232h320v-86z" />
    <glyph glyph-name="G" unicode="G" horiz-adv-x="709" 
d="M656 97q-49 -52 -120.5 -81t-150.5 -29q-152 0 -246.5 103t-94.5 266q0 162 94 264.5t245 102.5q166 0 265 -137l-75 -57q-76 106 -191 106q-108 0 -174 -77.5t-66 -201.5q0 -125 67 -203.5t178 -78.5q103 0 176 58v151h-186v88h279v-274z" />
    <glyph glyph-name="H" unicode="H" horiz-adv-x="704" 
d="M82 0v710h96v-298h348v298h96v-710h-96v324h-348v-324h-96z" />
    <glyph glyph-name="I" unicode="I" horiz-adv-x="260" 
d="M82 0v710h96v-710h-96z" />
    <glyph glyph-name="J" unicode="J" horiz-adv-x="363" 
d="M2 2l13 85q41 -12 73 -12q107 0 107 119v516h96v-517q0 -97 -49 -151.5t-146 -54.5q-47 0 -94 15z" />
    <glyph glyph-name="K" unicode="K" horiz-adv-x="608" 
d="M473 0l-295 334v-334h-96v710h96v-319l284 319h116l-310 -343l326 -367h-121z" />
    <glyph glyph-name="L" unicode="L" horiz-adv-x="513" 
d="M82 0v710h96v-621h307v-89h-403z" />
    <glyph glyph-name="M" unicode="M" horiz-adv-x="806" 
d="M379 69l-205 437v-506h-92v710h93l230 -487l226 487h93v-710h-93v505l-204 -436h-48z" />
    <glyph glyph-name="N" unicode="N" horiz-adv-x="711" 
d="M554 0l-379 529v-529h-93v710h77l378 -524v524h92v-710h-75z" />
    <glyph glyph-name="O" unicode="O" horiz-adv-x="766" 
d="M44 355q0 163 94 265.5t245 102.5t245 -102.5t94 -265.5t-94 -265.5t-245 -102.5t-245 102.5t-94 265.5zM142 355q0 -124 66.5 -202t174.5 -78t174 77.5t66 202.5q0 124 -66 202t-174 78t-174.5 -78t-66.5 -202z" />
    <glyph glyph-name="P" unicode="P" horiz-adv-x="606" 
d="M351 267h-173v-267h-96v710h268q102 0 162 -64t60 -158t-59.5 -157.5t-161.5 -63.5zM338 621h-160v-265h161q66 0 101 37.5t35 94.5q0 58 -35.5 95.5t-101.5 37.5z" />
    <glyph glyph-name="Q" unicode="Q" horiz-adv-x="762" 
d="M669 -45l-95 88q-82 -56 -191 -56q-151 0 -245 102.5t-94 265.5t94 265.5t245 102.5t245 -102.5t94 -265.5q0 -144 -77 -245l92 -82zM142 355q0 -124 66.5 -202t174.5 -78t174 77.5t66 202.5q0 124 -66 202t-174 78t-174.5 -78t-66.5 -202z" />
    <glyph glyph-name="R" unicode="R" horiz-adv-x="634" 
d="M350 621h-172v-240h170q62 0 99 34t37 86q0 53 -36.5 86.5t-97.5 33.5zM327 297h-149v-297h-96v710h270q105 0 167 -58.5t62 -144.5q0 -58 -31 -103.5t-88 -71.5q76 -42 86 -133l9 -70q7 -66 43 -129h-102q-30 47 -38 118l-9 72q-6 51 -33.5 79t-90.5 28z" />
    <glyph glyph-name="S" unicode="S" horiz-adv-x="598" 
d="M26 141l75 56q76 -122 210 -122q67 0 105 30.5t38 77.5q0 41 -27 70.5t-91 52.5l-110 40q-153 57 -153 188q0 79 62.5 134t165.5 55q141 0 229 -108l-66 -63q-29 38 -74 61t-94 23q-60 0 -94.5 -28.5t-34.5 -69.5q0 -70 105 -108l105 -39q175 -65 175 -204
q0 -84 -66 -142t-178 -58q-183 0 -282 154z" />
    <glyph glyph-name="T" unicode="T" horiz-adv-x="563" 
d="M547 622h-217v-622h-96v622h-217v88h530v-88z" />
    <glyph glyph-name="U" unicode="U" horiz-adv-x="688" 
d="M72 279v431h96v-436q0 -99 46.5 -149t129.5 -50t129.5 50t46.5 149v436h96v-431q0 -142 -72 -217t-200 -75q-129 0 -200.5 75t-71.5 217z" />
    <glyph glyph-name="V" unicode="V" horiz-adv-x="632" 
d="M367 0h-102l-247 710h102l198 -586l197 586h99z" />
    <glyph glyph-name="W" unicode="W" horiz-adv-x="850" 
d="M566 0l-143 478l-139 -478h-106l-160 710h99l122 -571l157 541h59l160 -540l121 570h96l-160 -710h-106z" />
    <glyph glyph-name="X" unicode="X" horiz-adv-x="606" 
d="M481 0l-184 295l-176 -295h-109l234 378l-206 332h113l153 -246l148 246h109l-205 -330l236 -380h-113z" />
    <glyph glyph-name="Y" unicode="Y" horiz-adv-x="581" 
d="M340 0h-96v293l-242 417h110l183 -322l179 322h105l-239 -417v-293z" />
    <glyph glyph-name="Z" unicode="Z" horiz-adv-x="570" 
d="M532 0h-494v65l361 557h-341v88h469v-63l-362 -559h367v-88z" />
    <glyph glyph-name="bracketleft" unicode="[" horiz-adv-x="276" 
d="M82 -192v982h190v-81h-103v-820h103v-81h-190z" />
    <glyph glyph-name="backslash" unicode="\" horiz-adv-x="407" 
d="M4 767h91l308 -935h-91z" />
    <glyph glyph-name="bracketright" unicode="]" horiz-adv-x="276" 
d="M194 790v-982h-190v81h103v820h-103v81h190z" />
    <glyph glyph-name="asciicircum" unicode="^" horiz-adv-x="683" 
d="M62 281l250 429h59l250 -429h-100l-181 320l-180 -320h-98z" />
    <glyph glyph-name="underscore" unicode="_" horiz-adv-x="472" 
d="M0 -84v84h472v-84h-472z" />
    <glyph glyph-name="grave" unicode="`" horiz-adv-x="158" 
d="M0 723h101l57 -139h-78z" />
    <glyph glyph-name="a" unicode="a" horiz-adv-x="527" 
d="M215 63q54 0 104 38t50 102v40h-12q-122 0 -174 -32t-52 -76q0 -34 23 -53t61 -19zM373 0v70q-27 -36 -76 -59.5t-103 -23.5q-67 0 -112 38t-45 104q0 87 86.5 136t231.5 49h14v14q0 52 -31.5 79.5t-82.5 27.5q-81 0 -142 -64l-61 54q83 91 206 91q95 0 148.5 -49.5
t53.5 -151.5v-315h-87z" />
    <glyph glyph-name="b" unicode="b" horiz-adv-x="600" 
d="M330 -13q-109 0 -168 86v-73h-87v710h92v-274q60 80 165 80q101 0 166.5 -74t65.5 -191q0 -116 -66 -190t-168 -74zM161 251q0 -80 44 -131t113 -51q66 0 109 51t43 131q0 81 -43 132.5t-109 51.5q-69 0 -113 -51t-44 -133z" />
    <glyph glyph-name="c" unicode="c" horiz-adv-x="507" 
d="M36 252q0 116 69.5 190t176.5 74q126 0 201 -111l-72 -45q-52 74 -130 74q-68 0 -109.5 -50.5t-41.5 -131.5q0 -82 41.5 -132.5t109.5 -50.5q79 0 133 74l72 -45q-80 -111 -204 -111q-107 0 -176.5 74t-69.5 191z" />
    <glyph glyph-name="d" unicode="d" horiz-adv-x="600" 
d="M130 252q0 -81 43.5 -132.5t109.5 -51.5q69 0 112.5 51t43.5 133q0 80 -44 131t-112 51q-66 0 -109.5 -51t-43.5 -131zM438 0v73q-61 -86 -170 -86q-101 0 -166.5 74t-65.5 191q0 116 66 190t168 74q105 0 163 -79v273h92v-710h-87z" />
    <glyph glyph-name="e" unicode="e" horiz-adv-x="541" 
d="M492 101q-80 -114 -210 -114q-108 0 -177 74t-69 191q0 116 69 190t174 74q102 0 164 -72.5t62 -186.5v-30h-376q7 -72 48.5 -116t104.5 -44q81 0 138 79zM278 437q-59 0 -98 -38t-49 -104h280q-8 67 -42 104.5t-91 37.5z" />
    <glyph glyph-name="f" unicode="f" horiz-adv-x="313" 
d="M303 428h-123v-428h-92v428h-70v75h70v45q0 80 41 127.5t122 47.5q33 0 68 -8l-9 -79q-26 6 -50 6q-80 0 -80 -93v-46h123v-75z" />
    <glyph glyph-name="g" unicode="g" horiz-adv-x="528" 
d="M152 333q0 -45 32 -75.5t80 -30.5t79.5 30.5t31.5 75.5t-31.5 75.5t-79.5 30.5t-80 -30.5t-32 -75.5zM512 -65q0 -76 -69 -117t-180 -41q-110 0 -175 38.5t-65 105.5q0 64 61 109q-41 35 -41 84q0 64 68 100q-47 49 -47 120q0 78 57.5 130t141.5 52q71 0 125 -38
q42 65 124 56l-4 -74q-54 5 -73 -31q28 -42 28 -95q0 -78 -57.5 -129.5t-142.5 -51.5q-53 0 -99 22q-42 -16 -42 -50q0 -47 77 -47h129q80 0 132 -37.5t52 -105.5zM268 -151q151 0 151 83q0 33 -29.5 49.5t-74.5 16.5h-130q-19 0 -34 3q-42 -29 -42 -69q0 -42 44 -62.5
t115 -20.5z" />
    <glyph glyph-name="h" unicode="h" horiz-adv-x="574" 
d="M167 270v-270h-92v710h92v-282q22 40 62.5 64t92.5 24q79 0 130.5 -52.5t51.5 -149.5v-314h-92v296q0 66 -29 100t-83 34q-59 0 -96 -43t-37 -117z" />
    <glyph glyph-name="i" unicode="i" horiz-adv-x="242" 
d="M63 665q0 24 17 41t41 17t41 -17t17 -41t-17 -41.5t-41 -17.5t-41 17.5t-17 41.5zM75 0v503h92v-503h-92z" />
    <glyph glyph-name="j" unicode="j" horiz-adv-x="242" 
d="M63 665q0 24 17 41t41 17t41 -17t17 -41t-17 -41.5t-41 -17.5t-41 17.5t-17 41.5zM-48 -217l8 80q18 -5 41 -5q74 0 74 85v560h92v-559q0 -77 -39.5 -122t-118.5 -45q-21 0 -57 6z" />
    <glyph glyph-name="k" unicode="k" horiz-adv-x="502" 
d="M373 0l-206 227v-227h-92v710h92v-420l198 213h113l-228 -242l243 -261h-120z" />
    <glyph glyph-name="l" unicode="l" horiz-adv-x="242" 
d="M75 0v710h92v-710h-92z" />
    <glyph glyph-name="m" unicode="m" horiz-adv-x="847" 
d="M167 272v-272h-92v503h88v-72q23 38 61 61.5t84 23.5q50 0 89 -26t55 -72q19 46 60.5 72t88.5 26q74 0 125 -53t51 -149v-314h-92v301q0 62 -25 95t-71 33q-52 0 -84.5 -41t-32.5 -110v-278h-92v301q0 62 -24.5 95t-71.5 33q-53 0 -85 -41.5t-32 -115.5z" />
    <glyph glyph-name="n" unicode="n" horiz-adv-x="574" 
d="M167 270v-270h-92v503h88v-84q22 44 63.5 70.5t95.5 26.5q79 0 130.5 -52.5t51.5 -149.5v-314h-92v296q0 66 -29 100t-83 34q-59 0 -96 -43t-37 -117z" />
    <glyph glyph-name="o" unicode="o" horiz-adv-x="566" 
d="M36 252q0 116 69.5 190t177.5 74q107 0 177 -74t70 -190q0 -117 -70 -191t-177 -74q-108 0 -177.5 74t-69.5 191zM130 252q0 -83 42.5 -134t110.5 -51t110 51t42 134q0 81 -42 132.5t-110 51.5t-110.5 -51.5t-42.5 -132.5z" />
    <glyph glyph-name="p" unicode="p" horiz-adv-x="600" 
d="M161 251q0 -80 44 -131t113 -51q66 0 109 51t43 131q0 81 -43 132.5t-109 51.5q-69 0 -113 -51t-44 -133zM330 -13q-105 0 -163 79v-276h-92v713h87v-73q61 86 170 86q101 0 166.5 -74t65.5 -191q0 -116 -66 -190t-168 -74z" />
    <glyph glyph-name="q" unicode="q" horiz-adv-x="600" 
d="M525 -210h-92v277q-60 -80 -165 -80q-101 0 -166.5 74t-65.5 191q0 116 66 190t168 74q109 0 168 -86v73h87v-713zM130 252q0 -81 43.5 -132.5t109.5 -51.5q69 0 112.5 51t43.5 133q0 80 -44 131t-112 51q-66 0 -109.5 -51t-43.5 -131z" />
    <glyph glyph-name="r" unicode="r" horiz-adv-x="346" 
d="M167 0h-92v503h88v-86q20 46 66 72.5t107 26.5l-3 -90q-79 -2 -122.5 -41t-43.5 -114v-271z" />
    <glyph glyph-name="s" unicode="s" horiz-adv-x="465" 
d="M25 103l67 49q60 -85 154 -85q46 0 71.5 19t25.5 48q0 50 -82 74l-72 22q-63 19 -96.5 57t-33.5 87q0 58 48.5 100t124.5 42q58 0 105.5 -25t75.5 -62l-64 -53q-45 60 -115 60q-39 0 -61.5 -17.5t-22.5 -44.5q0 -48 68 -66l78 -23q138 -42 138 -148q0 -64 -51 -107
t-137 -43q-144 0 -221 116z" />
    <glyph glyph-name="t" unicode="t" horiz-adv-x="349" 
d="M327 -5q-34 -8 -65 -8q-83 0 -125 47.5t-42 131.5v262h-81v75h81v163h92v-163h140v-75h-140v-263q0 -97 84 -97q23 0 47 6z" />
    <glyph glyph-name="u" unicode="u" horiz-adv-x="565" 
d="M405 0v77q-48 -90 -157 -90q-80 0 -132 52.5t-52 149.5v314h92v-296q0 -66 29 -100t83 -34q60 0 96.5 43t36.5 117v270h92v-503h-88z" />
    <glyph glyph-name="v" unicode="v" horiz-adv-x="496" 
d="M295 0h-94l-191 503h100l140 -390l140 390h96z" />
    <glyph glyph-name="w" unicode="w" horiz-adv-x="689" 
d="M443 0l-99 323l-98 -323h-98l-133 503h96l95 -390l103 371h71l106 -372l97 391h91l-133 -503h-98z" />
    <glyph glyph-name="x" unicode="x" horiz-adv-x="488" 
d="M370 0l-131 193l-129 -193h-100l180 266l-160 237h109l111 -164l107 164h101l-159 -237l179 -266h-108z" />
    <glyph glyph-name="y" unicode="y" horiz-adv-x="496" 
d="M218 -210h-94l82 212l-196 501h100l140 -390l140 390h96z" />
    <glyph glyph-name="z" unicode="z" horiz-adv-x="450" 
d="M420 0h-392v50l271 378h-254v75h377v-50l-270 -378h268v-75z" />
    <glyph glyph-name="braceleft" unicode="{" horiz-adv-x="318" 
d="M68 268v62q64 12 64 87q0 38 -4 110t-4 115q0 64 34 104.5t109 61.5l23 -70q-46 -18 -62 -41t-16 -70v-209q0 -46 -14 -73.5t-47 -45.5q33 -18 47 -45.5t14 -73.5v-209q0 -47 16 -70t62 -41l-23 -70q-75 21 -109 61.5t-34 104.5q0 43 4 115t4 110q0 75 -64 87z" />
    <glyph glyph-name="bar" unicode="|" horiz-adv-x="251" 
d="M82 -168v935h87v-935h-87z" />
    <glyph glyph-name="braceright" unicode="}" horiz-adv-x="318" 
d="M250 330v-62q-64 -12 -64 -87q0 -38 4 -110t4 -115q0 -64 -34 -104.5t-109 -61.5l-23 70q46 18 62 41t16 70v209q0 46 14 73.5t47 45.5q-33 18 -47 45.5t-14 73.5v209q0 47 -16 70t-62 41l23 70q75 -21 109 -61.5t34 -104.5q0 -43 -4 -115t-4 -110q0 -75 64 -87z" />
    <glyph glyph-name="asciitilde" unicode="~" horiz-adv-x="710" 
d="M82 265q2 81 43.5 131t112.5 50q37 0 72 -17t57 -37.5t51 -37.5t55 -17q34 0 53.5 24.5t19.5 69.5h82q-2 -81 -43.5 -131t-112.5 -50q-37 0 -72 17t-57 37.5t-51 37.5t-55 17q-33 0 -53 -24.5t-20 -69.5h-82z" />
    <glyph glyph-name="uni00A0" unicode="&#xa0;" horiz-adv-x="214" 
 />
    <glyph glyph-name="exclamdown" unicode="&#xa1;" horiz-adv-x="274" 
d="M185 7v-217h-96v217l10 288h75zM195 451q0 -24 -17 -41.5t-41 -17.5t-41 17.5t-17 41.5t17 41.5t41 17.5t41 -17.5t17 -41.5z" />
    <glyph glyph-name="cent" unicode="&#xa2;" horiz-adv-x="507" 
d="M486 98q-66 -92 -164 -108v-135h-86v136q-89 16 -144.5 87t-55.5 174t55.5 173.5t144.5 86.5v138h86v-137q98 -16 161 -108l-72 -45q-52 74 -130 74q-68 0 -109.5 -50.5t-41.5 -131.5q0 -82 41.5 -132.5t109.5 -50.5q79 0 133 74z" />
    <glyph glyph-name="sterling" unicode="&#xa3;" horiz-adv-x="546" 
d="M509 88v-88h-458v68q75 75 79 184h-76v81h67q-5 19 -18.5 52t-21 62.5t-7.5 62.5q0 91 60 152t155 61q89 0 149 -55.5t64 -147.5l-91 -8q0 56 -31.5 89.5t-88.5 33.5q-56 0 -88 -35.5t-32 -94.5q0 -26 7 -54t18 -62t16 -56h170v-81h-163q-4 -90 -56 -164h346z" />
    <glyph glyph-name="currency" unicode="&#xa4;" horiz-adv-x="590" 
d="M507 50l-101 101q-50 -33 -111 -33t-111 33l-101 -101l-60 60l101 99q-36 53 -36 118t36 118l-101 99l60 60l101 -101q51 32 111 32t111 -32l101 101l60 -60l-101 -99q36 -53 36 -118t-36 -118l101 -99zM174 327q0 -53 35.5 -90t85.5 -37t85.5 37t35.5 90q0 52 -35.5 89
t-85.5 37t-85.5 -37t-35.5 -89z" />
    <glyph glyph-name="yen" unicode="&#xa5;" horiz-adv-x="581" 
d="M506 137h-166v-137h-96v137h-164v82h164v81h-164v81h131l-209 329h112l181 -289l177 289h107l-206 -329h133v-81h-166v-81h166v-82z" />
    <glyph glyph-name="brokenbar" unicode="&#xa6;" horiz-adv-x="251" 
d="M82 409v358h87v-358h-87zM82 -168v358h87v-358h-87z" />
    <glyph glyph-name="section" unicode="&#xa7;" horiz-adv-x="615" 
d="M367 151q28 -9 50 -21q49 27 49 82q0 38 -28 66t-100 50l-100 32q-6 2 -15.5 5.5t-12.5 4.5q-64 -23 -64 -84q0 -35 28 -59.5t96 -45.5zM305 -223q-149 0 -241 124l74 58q68 -94 170 -94q58 0 91 26.5t33 66.5q0 36 -24 63t-83 45l-109 35q-164 53 -164 171q0 88 96 138
q-57 52 -57 130q0 75 60 129t158 54q129 0 214 -99l-67 -63q-63 75 -151 75q-56 0 -88 -26.5t-32 -65.5q0 -70 98 -100l105 -35q175 -56 175 -181q0 -88 -88 -139q55 -54 55 -130q0 -75 -62 -128.5t-163 -53.5z" />
    <glyph glyph-name="dieresis" unicode="&#xa8;" horiz-adv-x="304" 
d="M199 654q0 22 15.5 37.5t37.5 15.5t37 -15.5t15 -37.5t-15.5 -38.5t-36.5 -16.5q-22 0 -37.5 16.5t-15.5 38.5zM0 653q0 23 15.5 38.5t37.5 15.5t37.5 -16t15.5 -38t-15.5 -38t-37.5 -16t-37.5 16t-15.5 38z" />
    <glyph glyph-name="copyright" unicode="&#xa9;" horiz-adv-x="852" 
d="M64 355q0 156 104.5 262t257.5 106q154 0 258.5 -105.5t104.5 -262.5t-104.5 -262.5t-258.5 -105.5q-153 0 -257.5 106t-104.5 262zM141 355q0 -126 81.5 -210.5t203.5 -84.5t204 85t82 210t-82 210t-204 85t-203.5 -84.5t-81.5 -210.5zM247 356q0 88 53.5 144.5
t133.5 56.5q98 0 154 -83l-56 -37q-37 54 -99 54q-49 0 -80 -37.5t-31 -97.5q0 -61 31 -98.5t80 -37.5q59 0 102 54l56 -37q-62 -83 -157 -83q-80 0 -133.5 56.5t-53.5 145.5z" />
    <glyph glyph-name="ordfeminine" unicode="&#xaa;" horiz-adv-x="342" 
d="M143 432q33 0 62 21.5t29 55.5v20q-134 0 -134 -58q0 -18 12 -28.5t31 -10.5zM237 417q-43 -45 -106 -45q-43 0 -73.5 25.5t-30.5 66.5q0 55 54.5 87t152.5 32v6q0 32 -18.5 50t-51.5 18q-48 0 -88 -32l-38 51q56 45 132 45q136 0 136 -144v-195h-69v35z" />
    <glyph glyph-name="guillemotleft" unicode="&#xab;" horiz-adv-x="584" 
d="M42 250v59l227 188v-101l-145 -115l145 -116v-103zM295 250v59l227 188v-101l-145 -115l145 -116v-103z" />
    <glyph glyph-name="logicalnot" unicode="&#xac;" horiz-adv-x="526" 
d="M455 136h-87v150h-297v82h384v-232z" />
    <glyph glyph-name="uni00AD" unicode="&#xad;" horiz-adv-x="420" 
d="M74 243v84h272v-84h-272z" />
    <glyph glyph-name="registered" unicode="&#xae;" horiz-adv-x="606" 
d="M49 469q0 106 74.5 180t179.5 74t179.5 -74t74.5 -180q0 -105 -74.5 -179t-179.5 -74t-179.5 74t-74.5 179zM104 469q0 -83 58 -141.5t141 -58.5t141 58.5t58 141.5q0 84 -58 143t-141 59t-141 -59t-58 -143zM306 555h-45v-72h48q21 0 31 10.5t10 25.5q0 16 -11.5 26
t-32.5 10zM293 437h-32v-94h-53v261h100q45 0 70.5 -23.5t25.5 -57.5q0 -49 -44 -69q19 -15 27 -45l5 -23q6 -27 21 -43h-57q-11 14 -17 37l-4 21q-10 36 -42 36z" />
    <glyph glyph-name="macron" unicode="&#xaf;" horiz-adv-x="248" 
d="M0 625v73h248v-73h-248z" />
    <glyph glyph-name="degree" unicode="&#xb0;" horiz-adv-x="383" 
d="M39 592q0 63 44.5 107t107.5 44q64 0 108.5 -44t44.5 -107q0 -64 -44.5 -107.5t-108.5 -43.5t-108 44t-44 107zM110 592q0 -35 23.5 -59t57.5 -24q35 0 58.5 24t23.5 59t-23.5 59t-58.5 24q-34 0 -57.5 -24t-23.5 -59z" />
    <glyph glyph-name="plusminus" unicode="&#xb1;" horiz-adv-x="526" 
d="M455 122h-384v83h149v119h-149v83h149v130h86v-130h149v-83h-149v-119h149v-83z" />
    <glyph glyph-name="twosuperior" unicode="&#xb2;" horiz-adv-x="321" 
d="M287 362h-257v48l120 104q34 31 47 48.5t13 37.5q0 23 -15 39t-38 16q-26 0 -41.5 -18t-15.5 -42q0 -12 3 -27l-69 2q-2 18 -2 29q0 55 37 88t90 33q56 0 90 -32.5t34 -83.5q0 -32 -17.5 -59.5t-54.5 -59.5l-65 -57h141v-66z" />
    <glyph glyph-name="threesuperior" unicode="&#xb3;" horiz-adv-x="321" 
d="M154 352q-110 0 -140 90l68 20q17 -45 71 -45q29 0 45.5 13t16.5 35q0 46 -64 46h-28v54h26q26 0 41 13t15 33q0 19 -15 31.5t-38 12.5q-22 0 -38 -13t-21 -34l-68 12q11 49 47.5 74.5t83.5 25.5q53 0 88 -28t35 -69q0 -55 -53 -79q31 -11 47.5 -35t16.5 -51
q0 -46 -37.5 -76t-98.5 -30z" />
    <glyph glyph-name="acute" unicode="&#xb4;" horiz-adv-x="158" 
d="M0 584l57 139h101l-80 -139h-78z" />
    <glyph glyph-name="uni00B5" unicode="&#xb5;" horiz-adv-x="593" 
d="M269 -13q-70 0 -113 51l5 -248h-86v713h86v-293q0 -65 30 -99.5t85 -34.5q58 0 94 43t36 117v267h86v-365q0 -74 58 -74q15 0 37 4l8 -75q-21 -6 -52 -6q-101 0 -129 89q-21 -42 -59 -65.5t-86 -23.5z" />
    <glyph glyph-name="paragraph" unicode="&#xb6;" horiz-adv-x="587" 
d="M421 0v710h84v-710h-84zM349 0h-84v326h-32q-92 0 -146.5 55t-54.5 137t55.5 137t148.5 55h113v-710z" />
    <glyph glyph-name="periodcentered" unicode="&#xb7;" horiz-adv-x="240" 
d="M62 279q0 24 17 41.5t41 17.5t41 -17.5t17 -41.5t-17 -41.5t-41 -17.5t-41 17.5t-17 41.5z" />
    <glyph glyph-name="cedilla" unicode="&#xb8;" horiz-adv-x="173" 
d="M76 -223q-44 0 -76 19l23 47q23 -13 49 -13q18 0 28.5 8t10.5 22t-10 23t-28 9q-17 0 -34 -6l-24 31l49 96h60l-39 -72q38 0 63 -22t25 -59t-26 -60t-71 -23z" />
    <glyph glyph-name="onesuperior" unicode="&#xb9;" horiz-adv-x="222" 
d="M162 362h-75v228h-67v55h30q49 0 53 51l1 14h58v-348z" />
    <glyph glyph-name="ordmasculine" unicode="&#xba;" horiz-adv-x="384" 
d="M27 546q0 77 47 126t118 49t118 -49t47 -126t-47 -125.5t-118 -48.5t-118 48.5t-47 125.5zM102 546q0 -48 25.5 -79.5t64.5 -31.5t65 31.5t26 79.5q0 49 -26 80t-65 31t-64.5 -31t-25.5 -80z" />
    <glyph glyph-name="guillemotright" unicode="&#xbb;" horiz-adv-x="584" 
d="M542 309v-59l-227 -188v101l145 115l-145 116v103zM289 309v-59l-227 -188v101l145 115l-145 116v103z" />
    <glyph glyph-name="onequarter" unicode="&#xbc;" horiz-adv-x="686" 
d="M162 362h-75v228h-67v55h30q49 0 53 51l1 14h58v-348zM59 0l461 710h94l-461 -710h-94zM668 66h-48v-66h-69v66h-155v48l159 234h65v-222h48v-60zM471 126h80v119z" />
    <glyph glyph-name="onehalf" unicode="&#xbd;" horiz-adv-x="728" 
d="M687 0h-257v48l120 104q34 31 47 48.5t13 37.5q0 23 -15 39t-38 16q-26 0 -41.5 -18t-15.5 -42q0 -12 3 -27l-69 2q-2 18 -2 29q0 55 37 88t90 33q56 0 90 -32.5t34 -83.5q0 -32 -17.5 -59.5t-54.5 -59.5l-65 -57h141v-66zM162 362h-75v228h-67v55h30q49 0 53 51l1 14h58
v-348zM59 0l461 710h94l-461 -710h-94z" />
    <glyph glyph-name="threequarters" unicode="&#xbe;" horiz-adv-x="745" 
d="M158 352q-110 0 -140 90l68 20q17 -45 71 -45q29 0 45.5 13t16.5 35q0 46 -64 46h-28v54h26q26 0 41 13t15 33q0 19 -15 31.5t-38 12.5q-22 0 -38 -13t-21 -34l-68 12q11 49 47.5 74.5t83.5 25.5q53 0 88 -28t35 -69q0 -55 -53 -79q31 -11 47.5 -35t16.5 -51
q0 -46 -37.5 -76t-98.5 -30zM118 0l461 710h94l-461 -710h-94zM727 66h-48v-66h-69v66h-155v48l159 234h65v-222h48v-60zM530 126h80v119z" />
    <glyph glyph-name="questiondown" unicode="&#xbf;" horiz-adv-x="538" 
d="M489 -53q-21 -73 -80.5 -121.5t-148.5 -48.5q-90 0 -147 53t-57 131q0 59 28 100t82 81q38 29 56.5 54.5t19.5 65.5v41h84v-44q0 -62 -22.5 -99t-66.5 -69q-45 -32 -64.5 -58t-19.5 -63q0 -46 30.5 -75.5t82.5 -29.5q105 0 143 112zM342 451q0 -24 -17 -41.5t-41 -17.5
t-41 17.5t-17 41.5t17 41.5t41 17.5t41 -17.5t17 -41.5z" />
    <glyph glyph-name="Agrave" unicode="&#xc0;" horiz-adv-x="644" 
d="M434 259l-114 328l-113 -328h227zM524 0l-60 173h-287l-60 -173h-99l253 710h102l253 -710h-102zM210 930h101l57 -139h-78z" />
    <glyph glyph-name="Aacute" unicode="&#xc1;" horiz-adv-x="644" 
d="M434 259l-114 328l-113 -328h227zM524 0l-60 173h-287l-60 -173h-99l253 710h102l253 -710h-102zM277 791l57 139h101l-80 -139h-78z" />
    <glyph glyph-name="Acircumflex" unicode="&#xc2;" horiz-adv-x="644" 
d="M434 259l-114 328l-113 -328h227zM524 0l-60 173h-287l-60 -173h-99l253 710h102l253 -710h-102zM182 791l94 139h91l94 -139h-79l-60 74l-61 -74h-79z" />
    <glyph glyph-name="Atilde" unicode="&#xc3;" horiz-adv-x="644" 
d="M434 259l-114 328l-113 -328h227zM524 0l-60 173h-287l-60 -173h-99l253 710h102l253 -710h-102zM169 822q1 50 29 79t67 29q36 0 74.5 -26.5t54.5 -26.5q14 0 24 11t10 29h62q-1 -50 -29 -79t-67 -29q-36 0 -74.5 26.5t-54.5 26.5q-14 0 -24 -11t-10 -29h-62z" />
    <glyph glyph-name="Adieresis" unicode="&#xc4;" horiz-adv-x="644" 
d="M434 259l-114 328l-113 -328h227zM524 0l-60 173h-287l-60 -173h-99l253 710h102l253 -710h-102zM369 861q0 23 15.5 38t37.5 15t37 -15.5t15 -37.5t-15.5 -38.5t-36.5 -16.5q-22 0 -37.5 16.5t-15.5 38.5zM170 860q0 23 15.5 38.5t37.5 15.5t37.5 -16t15.5 -38
t-15.5 -38t-37.5 -16t-37.5 16t-15.5 38z" />
    <glyph glyph-name="Aring" unicode="&#xc5;" horiz-adv-x="644" 
d="M434 259l-114 328l-113 -328h227zM524 0l-60 173h-287l-60 -173h-99l253 710h102l253 -710h-102zM220 876q0 42 30 70t73 28q42 0 72 -28.5t30 -69.5q0 -42 -30 -70t-72 -28q-43 0 -73 28.5t-30 69.5zM278 876q0 -19 13 -32t32 -13t32 13t13 32t-13 32t-32 13t-32 -13
t-13 -32z" />
    <glyph glyph-name="AE" unicode="&#xc6;" horiz-adv-x="923" 
d="M448 265v352l-187 -352h187zM448 0v179h-232l-95 -179h-107l387 710h465v-89h-322v-218h295v-86h-295v-228h329v-89h-425z" />
    <glyph glyph-name="Ccedilla" unicode="&#xc7;" horiz-adv-x="679" 
d="M366 -223q-44 0 -76 19l23 47q23 -13 49 -13q18 0 28.5 8t10.5 22t-10 23t-28 9q-17 0 -34 -6l-24 31l37 72q-134 14 -216 115t-82 252q0 162 94 264.5t245 102.5q165 0 265 -137l-75 -57q-76 106 -190 106q-108 0 -174.5 -77.5t-66.5 -201.5q0 -125 66.5 -203t174.5 -78
q116 0 193 108l75 -58q-96 -129 -251 -138l-25 -46q38 0 63 -22t25 -59t-26 -60t-71 -23z" />
    <glyph glyph-name="Egrave" unicode="&#xc8;" horiz-adv-x="585" 
d="M82 0v710h446v-89h-350v-218h323v-86h-323v-228h357v-89h-453zM189 930h101l57 -139h-78z" />
    <glyph glyph-name="Eacute" unicode="&#xc9;" horiz-adv-x="585" 
d="M256 791l57 139h101l-80 -139h-78zM82 0v710h446v-89h-350v-218h323v-86h-323v-228h357v-89h-453z" />
    <glyph glyph-name="Ecircumflex" unicode="&#xca;" horiz-adv-x="585" 
d="M161 791l94 139h91l94 -139h-79l-60 74l-61 -74h-79zM82 0v710h446v-89h-350v-218h323v-86h-323v-228h357v-89h-453z" />
    <glyph glyph-name="Edieresis" unicode="&#xcb;" horiz-adv-x="585" 
d="M348 861q0 23 15 38t38 15q22 0 37 -15.5t15 -37.5t-15.5 -38.5t-36.5 -16.5q-22 0 -37.5 16.5t-15.5 38.5zM149 860q0 23 15.5 38.5t37.5 15.5t37.5 -16t15.5 -38t-15.5 -38t-37.5 -16t-37.5 16t-15.5 38zM82 0v710h446v-89h-350v-218h323v-86h-323v-228h357v-89h-453z
" />
    <glyph glyph-name="Igrave" unicode="&#xcc;" horiz-adv-x="260" 
d="M82 0v710h96v-710h-96zM17 930h101l57 -139h-78z" />
    <glyph glyph-name="Iacute" unicode="&#xcd;" horiz-adv-x="260" 
d="M82 0v710h96v-710h-96zM84 791l57 139h101l-80 -139h-78z" />
    <glyph glyph-name="Icircumflex" unicode="&#xce;" horiz-adv-x="260" 
d="M82 0v710h96v-710h-96zM-10 791l94 139h91l94 -139h-79l-60 74l-61 -74h-79z" />
    <glyph glyph-name="Idieresis" unicode="&#xcf;" horiz-adv-x="260" 
d="M82 0v710h96v-710h-96zM177 861q0 23 15.5 38t37.5 15t37 -15.5t15 -37.5t-15.5 -38.5t-36.5 -16.5q-22 0 -37.5 16.5t-15.5 38.5zM-22 860q0 23 15.5 38.5t37.5 15.5t37.5 -16t15.5 -38t-15.5 -38t-37.5 -16t-37.5 16t-15.5 38z" />
    <glyph glyph-name="Eth" unicode="&#xd0;" horiz-adv-x="696" 
d="M311 0h-219v296h-78v84h78v330h219q164 0 252.5 -93.5t88.5 -261.5t-88.5 -261.5t-252.5 -93.5zM188 89h125q120 0 180.5 69.5t60.5 196.5q0 126 -61 196t-180 70h-125v-241h174v-84h-174v-207z" />
    <glyph glyph-name="Ntilde" unicode="&#xd1;" horiz-adv-x="711" 
d="M554 0l-379 529v-529h-93v710h77l378 -524v524h92v-710h-75zM203 822q1 50 29 79t67 29q36 0 74.5 -26.5t54.5 -26.5q14 0 24 11t10 29h62q-1 -50 -29 -79t-67 -29q-36 0 -74.5 26.5t-54.5 26.5q-14 0 -24 -11t-10 -29h-62z" />
    <glyph glyph-name="Ograve" unicode="&#xd2;" horiz-adv-x="766" 
d="M44 355q0 163 94 265.5t245 102.5t245 -102.5t94 -265.5t-94 -265.5t-245 -102.5t-245 102.5t-94 265.5zM142 355q0 -124 66.5 -202t174.5 -78t174 77.5t66 202.5q0 124 -66 202t-174 78t-174.5 -78t-66.5 -202zM271 930h101l57 -139h-78z" />
    <glyph glyph-name="Oacute" unicode="&#xd3;" horiz-adv-x="766" 
d="M338 791l57 139h101l-80 -139h-78zM44 355q0 163 94 265.5t245 102.5t245 -102.5t94 -265.5t-94 -265.5t-245 -102.5t-245 102.5t-94 265.5zM142 355q0 -124 66.5 -202t174.5 -78t174 77.5t66 202.5q0 124 -66 202t-174 78t-174.5 -78t-66.5 -202z" />
    <glyph glyph-name="Ocircumflex" unicode="&#xd4;" horiz-adv-x="766" 
d="M243 791l94 139h91l94 -139h-79l-60 74l-61 -74h-79zM44 355q0 163 94 265.5t245 102.5t245 -102.5t94 -265.5t-94 -265.5t-245 -102.5t-245 102.5t-94 265.5zM142 355q0 -124 66.5 -202t174.5 -78t174 77.5t66 202.5q0 124 -66 202t-174 78t-174.5 -78t-66.5 -202z" />
    <glyph glyph-name="Otilde" unicode="&#xd5;" horiz-adv-x="766" 
d="M44 355q0 163 94 265.5t245 102.5t245 -102.5t94 -265.5t-94 -265.5t-245 -102.5t-245 102.5t-94 265.5zM142 355q0 -124 66.5 -202t174.5 -78t174 77.5t66 202.5q0 124 -66 202t-174 78t-174.5 -78t-66.5 -202zM229 822q1 50 29 79t67 29q36 0 74.5 -26.5t54.5 -26.5
q14 0 24 11t10 29h62q-1 -50 -29 -79t-67 -29q-36 0 -74.5 26.5t-54.5 26.5q-14 0 -24 -11t-10 -29h-62z" />
    <glyph glyph-name="Odieresis" unicode="&#xd6;" horiz-adv-x="766" 
d="M430 861q0 23 15 38t38 15q22 0 37 -15.5t15 -37.5t-15.5 -38.5t-36.5 -16.5q-22 0 -37.5 16.5t-15.5 38.5zM231 860q0 23 15.5 38.5t37.5 15.5t37.5 -16t15.5 -38t-15.5 -38t-37.5 -16t-37.5 16t-15.5 38zM44 355q0 163 94 265.5t245 102.5t245 -102.5t94 -265.5
t-94 -265.5t-245 -102.5t-245 102.5t-94 265.5zM142 355q0 -124 66.5 -202t174.5 -78t174 77.5t66 202.5q0 124 -66 202t-174 78t-174.5 -78t-66.5 -202z" />
    <glyph glyph-name="multiply" unicode="&#xd7;" horiz-adv-x="526" 
d="M81 204l123 122l-123 123l60 60l122 -123l122 123l60 -60l-123 -123l123 -122l-60 -60l-122 123l-122 -123z" />
    <glyph glyph-name="Oslash" unicode="&#xd8;" horiz-adv-x="771" 
d="M386 -13q-119 0 -206 67l-46 -54h-105l95 110q-77 99 -77 245q0 163 94 265.5t245 102.5q119 0 206 -67l46 54h105l-95 -110q77 -99 77 -245q0 -163 -94 -265.5t-245 -102.5zM145 355q0 -97 43 -169l343 400q-62 49 -145 49q-108 0 -174.5 -78t-66.5 -202zM386 75
q108 0 174 77.5t66 202.5q0 98 -42 170l-343 -401q62 -49 145 -49z" />
    <glyph glyph-name="Ugrave" unicode="&#xd9;" horiz-adv-x="688" 
d="M72 279v431h96v-436q0 -99 46.5 -149t129.5 -50t129.5 50t46.5 149v436h96v-431q0 -142 -72 -217t-200 -75q-129 0 -200.5 75t-71.5 217zM232 930h101l57 -139h-78z" />
    <glyph glyph-name="Uacute" unicode="&#xda;" horiz-adv-x="688" 
d="M299 791l57 139h101l-80 -139h-78zM72 279v431h96v-436q0 -99 46.5 -149t129.5 -50t129.5 50t46.5 149v436h96v-431q0 -142 -72 -217t-200 -75q-129 0 -200.5 75t-71.5 217z" />
    <glyph glyph-name="Ucircumflex" unicode="&#xdb;" horiz-adv-x="688" 
d="M204 791l94 139h91l94 -139h-79l-60 74l-61 -74h-79zM72 279v431h96v-436q0 -99 46.5 -149t129.5 -50t129.5 50t46.5 149v436h96v-431q0 -142 -72 -217t-200 -75q-129 0 -200.5 75t-71.5 217z" />
    <glyph glyph-name="Udieresis" unicode="&#xdc;" horiz-adv-x="688" 
d="M391 861q0 23 15.5 38t37.5 15t37 -15.5t15 -37.5t-15.5 -38.5t-36.5 -16.5q-22 0 -37.5 16.5t-15.5 38.5zM192 860q0 23 15.5 38.5t37.5 15.5t37.5 -16t15.5 -38t-15.5 -38t-37.5 -16t-37.5 16t-15.5 38zM72 279v431h96v-436q0 -99 46.5 -149t129.5 -50t129.5 50
t46.5 149v436h96v-431q0 -142 -72 -217t-200 -75q-129 0 -200.5 75t-71.5 217z" />
    <glyph glyph-name="Yacute" unicode="&#xdd;" horiz-adv-x="581" 
d="M340 0h-96v293l-242 417h110l183 -322l179 322h105l-239 -417v-293zM250 791l57 139h101l-80 -139h-78z" />
    <glyph glyph-name="Thorn" unicode="&#xde;" horiz-adv-x="603" 
d="M348 142h-170v-142h-96v710h96v-125h168q102 0 162.5 -63.5t60.5 -157.5q0 -95 -59.5 -158.5t-161.5 -63.5zM334 496h-156v-265h158q66 0 101 37.5t35 95.5t-35.5 95t-102.5 37z" />
    <glyph glyph-name="germandbls" unicode="&#xdf;" horiz-adv-x="607" 
d="M75 0v499q0 99 57.5 161.5t164.5 62.5q87 0 140 -48.5t53 -121.5q0 -42 -18 -73t-39 -45t-39 -31t-18 -34q0 -19 33 -37l44 -26q115 -69 115 -168q0 -67 -48.5 -109.5t-125.5 -42.5q-78 0 -145 40l35 79q55 -39 108 -39q37 0 61 21.5t24 56.5q0 49 -72 91l-38 22
q-45 27 -63.5 51t-18.5 56q0 26 12 45.5t28.5 33l33.5 27t29 33t12 44.5q0 42 -29 67.5t-79 25.5q-57 0 -91 -39.5t-34 -109.5v-492h-92z" />
    <glyph glyph-name="agrave" unicode="&#xe0;" horiz-adv-x="527" 
d="M215 63q54 0 104 38t50 102v40h-12q-122 0 -174 -32t-52 -76q0 -34 23 -53t61 -19zM373 0v70q-27 -36 -76 -59.5t-103 -23.5q-67 0 -112 38t-45 104q0 87 86.5 136t231.5 49h14v14q0 52 -31.5 79.5t-82.5 27.5q-81 0 -142 -64l-61 54q83 91 206 91q95 0 148.5 -49.5
t53.5 -151.5v-315h-87zM141 723h101l57 -139h-78z" />
    <glyph glyph-name="aacute" unicode="&#xe1;" horiz-adv-x="527" 
d="M215 63q54 0 104 38t50 102v40h-12q-122 0 -174 -32t-52 -76q0 -34 23 -53t61 -19zM373 0v70q-27 -36 -76 -59.5t-103 -23.5q-67 0 -112 38t-45 104q0 87 86.5 136t231.5 49h14v14q0 52 -31.5 79.5t-82.5 27.5q-81 0 -142 -64l-61 54q83 91 206 91q95 0 148.5 -49.5
t53.5 -151.5v-315h-87zM208 584l57 139h101l-80 -139h-78z" />
    <glyph glyph-name="acircumflex" unicode="&#xe2;" horiz-adv-x="527" 
d="M215 63q54 0 104 38t50 102v40h-12q-122 0 -174 -32t-52 -76q0 -34 23 -53t61 -19zM373 0v70q-27 -36 -76 -59.5t-103 -23.5q-67 0 -112 38t-45 104q0 87 86.5 136t231.5 49h14v14q0 52 -31.5 79.5t-82.5 27.5q-81 0 -142 -64l-61 54q83 91 206 91q95 0 148.5 -49.5
t53.5 -151.5v-315h-87zM114 584l94 139h91l94 -139h-79l-60 74l-61 -74h-79z" />
    <glyph glyph-name="atilde" unicode="&#xe3;" horiz-adv-x="527" 
d="M215 63q54 0 104 38t50 102v40h-12q-122 0 -174 -32t-52 -76q0 -34 23 -53t61 -19zM373 0v70q-27 -36 -76 -59.5t-103 -23.5q-67 0 -112 38t-45 104q0 87 86.5 136t231.5 49h14v14q0 52 -31.5 79.5t-82.5 27.5q-81 0 -142 -64l-61 54q83 91 206 91q95 0 148.5 -49.5
t53.5 -151.5v-315h-87zM100 615q1 50 29 79t67 29q36 0 74.5 -26.5t54.5 -26.5q14 0 24 11t10 29h62q-1 -50 -29 -79t-67 -29q-36 0 -74.5 26.5t-54.5 26.5q-14 0 -24 -11t-10 -29h-62z" />
    <glyph glyph-name="adieresis" unicode="&#xe4;" horiz-adv-x="527" 
d="M215 63q54 0 104 38t50 102v40h-12q-122 0 -174 -32t-52 -76q0 -34 23 -53t61 -19zM373 0v70q-27 -36 -76 -59.5t-103 -23.5q-67 0 -112 38t-45 104q0 87 86.5 136t231.5 49h14v14q0 52 -31.5 79.5t-82.5 27.5q-81 0 -142 -64l-61 54q83 91 206 91q95 0 148.5 -49.5
t53.5 -151.5v-315h-87zM301 654q0 22 15.5 37.5t37.5 15.5t37 -15.5t15 -37.5t-15.5 -38.5t-36.5 -16.5q-22 0 -37.5 16.5t-15.5 38.5zM102 653q0 23 15.5 38.5t37.5 15.5t37.5 -16t15.5 -38t-15.5 -38t-37.5 -16t-37.5 16t-15.5 38z" />
    <glyph glyph-name="aring" unicode="&#xe5;" horiz-adv-x="527" 
d="M215 63q54 0 104 38t50 102v40h-12q-122 0 -174 -32t-52 -76q0 -34 23 -53t61 -19zM373 0v70q-27 -36 -76 -59.5t-103 -23.5q-67 0 -112 38t-45 104q0 87 86.5 136t231.5 49h14v14q0 52 -31.5 79.5t-82.5 27.5q-81 0 -142 -64l-61 54q83 91 206 91q95 0 148.5 -49.5
t53.5 -151.5v-315h-87zM151 669q0 42 30 70t73 28q42 0 72 -28.5t30 -69.5q0 -42 -30 -70t-72 -28q-43 0 -73 28.5t-30 69.5zM209 669q0 -19 13 -32t32 -13t32 13t13 32t-13 32t-32 13t-32 -13t-13 -32z" />
    <glyph glyph-name="ae" unicode="&#xe6;" horiz-adv-x="841" 
d="M792 101q-73 -114 -200 -114q-61 0 -109.5 30.5t-78.5 85.5q-66 -116 -199 -116q-75 0 -122 37t-47 105q0 77 69.5 123t196.5 46h61v30q0 52 -30.5 79.5t-79.5 27.5q-79 0 -140 -64l-61 54q79 91 204 91q121 0 163 -92q63 92 172 92q99 0 156.5 -70.5t57.5 -185.5v-29
h-356q5 -74 44 -119t97 -45q77 0 130 79zM588 437q-55 0 -91 -37t-46 -102h260q-14 139 -123 139zM217 63q52 0 99 38t47 106v24h-62q-86 0 -128.5 -27.5t-42.5 -69.5q0 -33 24.5 -52t62.5 -19z" />
    <glyph glyph-name="ccedilla" unicode="&#xe7;" horiz-adv-x="507" 
d="M265 -223q-44 0 -76 19l23 47q23 -13 49 -13q18 0 28.5 8t10.5 22t-10 23t-28 9t-34 -6l-24 31l37 73q-91 14 -148 85.5t-57 176.5q0 116 69.5 190t176.5 74q126 0 201 -111l-72 -45q-52 74 -130 74q-68 0 -109.5 -50.5t-41.5 -131.5q0 -82 41.5 -132.5t109.5 -50.5
q79 0 133 74l72 -45q-74 -103 -187 -110l-25 -47q38 0 63 -22t25 -59t-26 -60t-71 -23z" />
    <glyph glyph-name="egrave" unicode="&#xe8;" horiz-adv-x="541" 
d="M492 101q-80 -114 -210 -114q-108 0 -177 74t-69 191q0 116 69 190t174 74q102 0 164 -72.5t62 -186.5v-30h-376q7 -72 48.5 -116t104.5 -44q81 0 138 79zM278 437q-59 0 -98 -38t-49 -104h280q-8 67 -42 104.5t-91 37.5zM167 723h101l57 -139h-78z" />
    <glyph glyph-name="eacute" unicode="&#xe9;" horiz-adv-x="541" 
d="M234 584l57 139h101l-80 -139h-78zM492 101q-80 -114 -210 -114q-108 0 -177 74t-69 191q0 116 69 190t174 74q102 0 164 -72.5t62 -186.5v-30h-376q7 -72 48.5 -116t104.5 -44q81 0 138 79zM278 437q-59 0 -98 -38t-49 -104h280q-8 67 -42 104.5t-91 37.5z" />
    <glyph glyph-name="ecircumflex" unicode="&#xea;" horiz-adv-x="541" 
d="M140 584l94 139h91l94 -139h-79l-60 74l-61 -74h-79zM492 101q-80 -114 -210 -114q-108 0 -177 74t-69 191q0 116 69 190t174 74q102 0 164 -72.5t62 -186.5v-30h-376q7 -72 48.5 -116t104.5 -44q81 0 138 79zM278 437q-59 0 -98 -38t-49 -104h280q-8 67 -42 104.5
t-91 37.5z" />
    <glyph glyph-name="edieresis" unicode="&#xeb;" horiz-adv-x="541" 
d="M327 654q0 22 15.5 37.5t37.5 15.5t37 -15.5t15 -37.5t-15.5 -38.5t-36.5 -16.5q-22 0 -37.5 16.5t-15.5 38.5zM128 653q0 23 15.5 38.5t37.5 15.5t37.5 -16t15.5 -38t-15.5 -38t-37.5 -16t-37.5 16t-15.5 38zM492 101q-80 -114 -210 -114q-108 0 -177 74t-69 191
q0 116 69 190t174 74q102 0 164 -72.5t62 -186.5v-30h-376q7 -72 48.5 -116t104.5 -44q81 0 138 79zM278 437q-59 0 -98 -38t-49 -104h280q-8 67 -42 104.5t-91 37.5z" />
    <glyph glyph-name="igrave" unicode="&#xec;" horiz-adv-x="242" 
d="M75 0v503h92v-503h-92zM9 723h101l57 -139h-78z" />
    <glyph glyph-name="iacute" unicode="&#xed;" horiz-adv-x="242" 
d="M76 584l57 139h101l-80 -139h-78zM75 0v503h92v-503h-92z" />
    <glyph glyph-name="icircumflex" unicode="&#xee;" horiz-adv-x="242" 
d="M-19 584l94 139h91l94 -139h-79l-60 74l-61 -74h-79zM75 0v503h92v-503h-92z" />
    <glyph glyph-name="idieresis" unicode="&#xef;" horiz-adv-x="242" 
d="M168 654q0 22 15 37.5t38 15.5q22 0 37 -15.5t15 -37.5t-15.5 -38.5t-36.5 -16.5q-22 0 -37.5 16.5t-15.5 38.5zM-31 653q0 23 15.5 38.5t37.5 15.5t37.5 -16t15.5 -38t-15.5 -38t-37.5 -16t-37.5 16t-15.5 38zM75 0v503h92v-503h-92z" />
    <glyph glyph-name="eth" unicode="&#xf0;" horiz-adv-x="573" 
d="M285 -13q-97 0 -166.5 65.5t-69.5 166.5t65.5 164.5t154.5 63.5q99 0 156 -68q-28 97 -83 175h-181v76h120q-44 47 -97 89h114q45 -38 87 -89h125v-76h-73q89 -146 89 -299q0 -119 -67 -193.5t-174 -74.5zM146 219q0 -62 38.5 -103t100.5 -41q66 0 105.5 41.5t39.5 110.5
q0 59 -39.5 98t-102.5 39t-102.5 -41t-39.5 -104z" />
    <glyph glyph-name="ntilde" unicode="&#xf1;" horiz-adv-x="574" 
d="M167 270v-270h-92v503h88v-84q22 44 63.5 70.5t95.5 26.5q79 0 130.5 -52.5t51.5 -149.5v-314h-92v296q0 66 -29 100t-83 34q-59 0 -96 -43t-37 -117zM141 615q1 50 29 79t67 29q36 0 74.5 -26.5t54.5 -26.5q14 0 24 11t10 29h62q-1 -50 -29 -79t-67 -29
q-36 0 -74.5 26.5t-54.5 26.5q-14 0 -24 -11t-10 -29h-62z" />
    <glyph glyph-name="ograve" unicode="&#xf2;" horiz-adv-x="566" 
d="M36 252q0 116 69.5 190t177.5 74q107 0 177 -74t70 -190q0 -117 -70 -191t-177 -74q-108 0 -177.5 74t-69.5 191zM130 252q0 -83 42.5 -134t110.5 -51t110 51t42 134q0 81 -42 132.5t-110 51.5t-110.5 -51.5t-42.5 -132.5zM171 723h101l57 -139h-78z" />
    <glyph glyph-name="oacute" unicode="&#xf3;" horiz-adv-x="566" 
d="M238 584l57 139h101l-80 -139h-78zM36 252q0 116 69.5 190t177.5 74q107 0 177 -74t70 -190q0 -117 -70 -191t-177 -74q-108 0 -177.5 74t-69.5 191zM130 252q0 -83 42.5 -134t110.5 -51t110 51t42 134q0 81 -42 132.5t-110 51.5t-110.5 -51.5t-42.5 -132.5z" />
    <glyph glyph-name="ocircumflex" unicode="&#xf4;" horiz-adv-x="566" 
d="M143 584l94 139h91l94 -139h-79l-60 74l-61 -74h-79zM36 252q0 116 69.5 190t177.5 74q107 0 177 -74t70 -190q0 -117 -70 -191t-177 -74q-108 0 -177.5 74t-69.5 191zM130 252q0 -83 42.5 -134t110.5 -51t110 51t42 134q0 81 -42 132.5t-110 51.5t-110.5 -51.5
t-42.5 -132.5z" />
    <glyph glyph-name="otilde" unicode="&#xf5;" horiz-adv-x="566" 
d="M36 252q0 116 69.5 190t177.5 74q107 0 177 -74t70 -190q0 -117 -70 -191t-177 -74q-108 0 -177.5 74t-69.5 191zM130 252q0 -83 42.5 -134t110.5 -51t110 51t42 134q0 81 -42 132.5t-110 51.5t-110.5 -51.5t-42.5 -132.5zM129 615q1 50 29 79t67 29q36 0 74.5 -26.5
t54.5 -26.5q14 0 24 11t10 29h62q-1 -50 -29 -79t-67 -29q-36 0 -74.5 26.5t-54.5 26.5q-14 0 -24 -11t-10 -29h-62z" />
    <glyph glyph-name="odieresis" unicode="&#xf6;" horiz-adv-x="566" 
d="M330 654q0 22 15 37.5t38 15.5q22 0 37 -15.5t15 -37.5t-15.5 -38.5t-36.5 -16.5q-22 0 -37.5 16.5t-15.5 38.5zM131 653q0 23 15.5 38.5t37.5 15.5t37.5 -16t15.5 -38t-15.5 -38t-37.5 -16t-37.5 16t-15.5 38zM36 252q0 116 69.5 190t177.5 74q107 0 177 -74t70 -190
q0 -117 -70 -191t-177 -74q-108 0 -177.5 74t-69.5 191zM130 252q0 -83 42.5 -134t110.5 -51t110 51t42 134q0 81 -42 132.5t-110 51.5t-110.5 -51.5t-42.5 -132.5z" />
    <glyph glyph-name="divide" unicode="&#xf7;" horiz-adv-x="526" 
d="M205 499q0 24 17 41t41 17t41 -17t17 -41q0 -25 -17 -42t-41 -17t-41 17t-17 42zM71 286v82h384v-82h-384zM205 155q0 25 17 42t41 17t41 -17t17 -42q0 -24 -17 -41t-41 -17t-41 17t-17 41z" />
    <glyph glyph-name="oslash" unicode="&#xf8;" horiz-adv-x="571" 
d="M286 -13q-84 0 -147 47l-31 -34h-101l80 88q-48 68 -48 164q0 116 69.5 190t177.5 74q83 0 147 -47l31 34h101l-80 -88q48 -70 48 -163q0 -117 -70 -191t-177 -74zM133 252q0 -50 18 -93l224 246q-37 31 -89 31q-68 0 -110.5 -51.5t-42.5 -132.5zM286 67q68 0 110 51
t42 134q0 53 -18 92l-223 -246q37 -31 89 -31z" />
    <glyph glyph-name="ugrave" unicode="&#xf9;" horiz-adv-x="565" 
d="M405 0v77q-48 -90 -157 -90q-80 0 -132 52.5t-52 149.5v314h92v-296q0 -66 29 -100t83 -34q60 0 96.5 43t36.5 117v270h92v-503h-88zM166 723h101l57 -139h-78z" />
    <glyph glyph-name="uacute" unicode="&#xfa;" horiz-adv-x="565" 
d="M233 584l57 139h101l-80 -139h-78zM405 0v77q-48 -90 -157 -90q-80 0 -132 52.5t-52 149.5v314h92v-296q0 -66 29 -100t83 -34q60 0 96.5 43t36.5 117v270h92v-503h-88z" />
    <glyph glyph-name="ucircumflex" unicode="&#xfb;" horiz-adv-x="565" 
d="M139 584l94 139h91l94 -139h-79l-60 74l-61 -74h-79zM405 0v77q-48 -90 -157 -90q-80 0 -132 52.5t-52 149.5v314h92v-296q0 -66 29 -100t83 -34q60 0 96.5 43t36.5 117v270h92v-503h-88z" />
    <glyph glyph-name="udieresis" unicode="&#xfc;" horiz-adv-x="565" 
d="M326 654q0 22 15 37.5t38 15.5q22 0 37 -15.5t15 -37.5t-15.5 -38.5t-36.5 -16.5q-22 0 -37.5 16.5t-15.5 38.5zM127 653q0 23 15.5 38.5t37.5 15.5t37.5 -16t15.5 -38t-15.5 -38t-37.5 -16t-37.5 16t-15.5 38zM405 0v77q-48 -90 -157 -90q-80 0 -132 52.5t-52 149.5v314
h92v-296q0 -66 29 -100t83 -34q60 0 96.5 43t36.5 117v270h92v-503h-88z" />
    <glyph glyph-name="yacute" unicode="&#xfd;" horiz-adv-x="496" 
d="M218 -210h-94l82 212l-196 501h100l140 -390l140 390h96zM204 584l57 139h101l-80 -139h-78z" />
    <glyph glyph-name="thorn" unicode="&#xfe;" horiz-adv-x="600" 
d="M161 251q0 -80 44 -131t113 -51q66 0 109 51t43 131q0 81 -43 132.5t-109 51.5q-69 0 -113 -51t-44 -133zM330 -13q-105 0 -163 79v-276h-92v920h95v-270q60 76 162 76q101 0 166.5 -74t65.5 -191q0 -116 -66 -190t-168 -74z" />
    <glyph glyph-name="ydieresis" unicode="&#xff;" horiz-adv-x="496" 
d="M218 -210h-94l82 212l-196 501h100l140 -390l140 390h96zM297 654q0 22 15.5 37.5t37.5 15.5t37 -15.5t15 -37.5t-15.5 -38.5t-36.5 -16.5q-22 0 -37.5 16.5t-15.5 38.5zM98 653q0 23 15.5 38.5t37.5 15.5t37.5 -16t15.5 -38t-15.5 -38t-37.5 -16t-37.5 16t-15.5 38z" />
    <glyph glyph-name="Amacron" unicode="&#x100;" horiz-adv-x="644" 
d="M434 259l-114 328l-113 -328h227zM524 0l-60 173h-287l-60 -173h-99l253 710h102l253 -710h-102zM199 832v73h248v-73h-248z" />
    <glyph glyph-name="amacron" unicode="&#x101;" horiz-adv-x="527" 
d="M215 63q54 0 104 38t50 102v40h-12q-122 0 -174 -32t-52 -76q0 -34 23 -53t61 -19zM373 0v70q-27 -36 -76 -59.5t-103 -23.5q-67 0 -112 38t-45 104q0 87 86.5 136t231.5 49h14v14q0 52 -31.5 79.5t-82.5 27.5q-81 0 -142 -64l-61 54q83 91 206 91q95 0 148.5 -49.5
t53.5 -151.5v-315h-87zM130 625v73h248v-73h-248z" />
    <glyph glyph-name="Abreve" unicode="&#x102;" horiz-adv-x="644" 
d="M434 259l-114 328l-113 -328h227zM524 0l-60 173h-287l-60 -173h-99l253 710h102l253 -710h-102zM187 930h70q3 -30 21 -46.5t45 -16.5t44 16.5t20 46.5h70q-3 -62 -40 -96.5t-94 -34.5t-94.5 34.5t-41.5 96.5z" />
    <glyph glyph-name="abreve" unicode="&#x103;" horiz-adv-x="527" 
d="M215 63q54 0 104 38t50 102v40h-12q-122 0 -174 -32t-52 -76q0 -34 23 -53t61 -19zM373 0v70q-27 -36 -76 -59.5t-103 -23.5q-67 0 -112 38t-45 104q0 87 86.5 136t231.5 49h14v14q0 52 -31.5 79.5t-82.5 27.5q-81 0 -142 -64l-61 54q83 91 206 91q95 0 148.5 -49.5
t53.5 -151.5v-315h-87zM118 723h70q3 -30 21 -46.5t45 -16.5t44 16.5t20 46.5h70q-3 -62 -40 -96.5t-94 -34.5t-94.5 34.5t-41.5 96.5z" />
    <glyph glyph-name="Aogonek" unicode="&#x104;" horiz-adv-x="644" 
d="M434 259l-114 328l-113 -328h227zM630 -206q-29 -17 -76 -17q-55 0 -86.5 28.5t-31.5 71.5q0 78 86 128l-58 168h-287l-60 -173h-99l253 710h102l253 -710q-47 -12 -80 -43.5t-33 -68.5q0 -22 15.5 -35.5t39.5 -13.5q20 0 46 10z" />
    <glyph glyph-name="aogonek" unicode="&#x105;" horiz-adv-x="527" 
d="M215 63q54 0 104 38t50 102v40h-12q-122 0 -174 -32t-52 -76q0 -34 23 -53t61 -19zM464 -206q-29 -17 -76 -17q-55 0 -86.5 28.5t-31.5 71.5t28.5 79t74.5 57v57q-27 -36 -76 -59.5t-103 -23.5q-67 0 -112 38t-45 104q0 87 86.5 136t231.5 49h14v14q0 52 -31.5 79.5
t-82.5 27.5q-81 0 -142 -64l-61 54q83 91 206 91q95 0 148.5 -49.5t53.5 -151.5v-315q-47 -12 -80 -43.5t-33 -68.5q0 -22 15 -35.5t39 -13.5q21 0 47 10z" />
    <glyph glyph-name="Cacute" unicode="&#x106;" horiz-adv-x="679" 
d="M325 791l57 139h101l-80 -139h-78zM44 356q0 162 94 264.5t245 102.5q165 0 265 -137l-75 -57q-76 106 -190 106q-108 0 -174.5 -77.5t-66.5 -201.5q0 -125 66.5 -203t174.5 -78q116 0 193 108l75 -58q-102 -138 -268 -138q-151 0 -245 103t-94 266z" />
    <glyph glyph-name="cacute" unicode="&#x107;" horiz-adv-x="507" 
d="M224 584l57 139h101l-80 -139h-78zM36 252q0 116 69.5 190t176.5 74q126 0 201 -111l-72 -45q-52 74 -130 74q-68 0 -109.5 -50.5t-41.5 -131.5q0 -82 41.5 -132.5t109.5 -50.5q79 0 133 74l72 -45q-80 -111 -204 -111q-107 0 -176.5 74t-69.5 191z" />
    <glyph glyph-name="Ccaron" unicode="&#x10c;" horiz-adv-x="679" 
d="M230 930h79l61 -74l60 74h79l-94 -139h-91zM44 356q0 162 94 264.5t245 102.5q165 0 265 -137l-75 -57q-76 106 -190 106q-108 0 -174.5 -77.5t-66.5 -201.5q0 -125 66.5 -203t174.5 -78q116 0 193 108l75 -58q-102 -138 -268 -138q-151 0 -245 103t-94 266z" />
    <glyph glyph-name="ccaron" unicode="&#x10d;" horiz-adv-x="507" 
d="M130 723h79l61 -74l60 74h79l-94 -139h-91zM36 252q0 116 69.5 190t176.5 74q126 0 201 -111l-72 -45q-52 74 -130 74q-68 0 -109.5 -50.5t-41.5 -131.5q0 -82 41.5 -132.5t109.5 -50.5q79 0 133 74l72 -45q-80 -111 -204 -111q-107 0 -176.5 74t-69.5 191z" />
    <glyph glyph-name="Dcaron" unicode="&#x10e;" horiz-adv-x="686" 
d="M178 930h79l61 -74l60 74h79l-94 -139h-91zM82 0v710h219q164 0 252.5 -93.5t88.5 -261.5t-88.5 -261.5t-252.5 -93.5h-219zM303 621h-125v-532h125q120 0 180.5 69.5t60.5 196.5q0 126 -61 196t-180 70z" />
    <glyph glyph-name="dcaron" unicode="&#x10f;" horiz-adv-x="700" 
d="M588 486l41 224h95l-65 -224h-71zM130 252q0 -81 43.5 -132.5t109.5 -51.5q69 0 112.5 51t43.5 133q0 80 -44 131t-112 51q-66 0 -109.5 -51t-43.5 -131zM438 0v73q-61 -86 -170 -86q-101 0 -166.5 74t-65.5 191q0 116 66 190t168 74q105 0 163 -79v273h92v-710h-87z" />
    <glyph glyph-name="Dcroat" unicode="&#x110;" horiz-adv-x="696" 
d="M311 0h-219v296h-78v84h78v330h219q164 0 252.5 -93.5t88.5 -261.5t-88.5 -261.5t-252.5 -93.5zM188 89h125q120 0 180.5 69.5t60.5 196.5q0 126 -61 196t-180 70h-125v-241h174v-84h-174v-207z" />
    <glyph glyph-name="dcroat" unicode="&#x111;" horiz-adv-x="600" 
d="M130 252q0 -81 43.5 -132.5t109.5 -51.5q69 0 112.5 51t43.5 133q0 80 -44 131t-112 51q-66 0 -109.5 -51t-43.5 -131zM438 73q-61 -86 -170 -86q-101 0 -166.5 74t-65.5 191q0 116 66 190t168 74q105 0 163 -79v128h-148v76h148v69h92v-69h75v-76h-75v-565h-87v73z" />
    <glyph glyph-name="Emacron" unicode="&#x112;" horiz-adv-x="585" 
d="M82 0v710h446v-89h-350v-218h323v-86h-323v-228h357v-89h-453zM178 832v73h248v-73h-248z" />
    <glyph glyph-name="emacron" unicode="&#x113;" horiz-adv-x="541" 
d="M492 101q-80 -114 -210 -114q-108 0 -177 74t-69 191q0 116 69 190t174 74q102 0 164 -72.5t62 -186.5v-30h-376q7 -72 48.5 -116t104.5 -44q81 0 138 79zM278 437q-59 0 -98 -38t-49 -104h280q-8 67 -42 104.5t-91 37.5zM156 625v73h248v-73h-248z" />
    <glyph glyph-name="Edotaccent" unicode="&#x116;" horiz-adv-x="585" 
d="M82 0v710h446v-89h-350v-218h323v-86h-323v-228h357v-89h-453zM243 868q0 24 17 41t41 17t41 -17t17 -41t-17 -41.5t-41 -17.5t-41 17.5t-17 41.5z" />
    <glyph glyph-name="edotaccent" unicode="&#x117;" horiz-adv-x="541" 
d="M492 101q-80 -114 -210 -114q-108 0 -177 74t-69 191q0 116 69 190t174 74q102 0 164 -72.5t62 -186.5v-30h-376q7 -72 48.5 -116t104.5 -44q81 0 138 79zM278 437q-59 0 -98 -38t-49 -104h280q-8 67 -42 104.5t-91 37.5zM222 661q0 24 17 41t41 17t41 -17t17 -41
t-17 -41.5t-41 -17.5t-41 17.5t-17 41.5z" />
    <glyph glyph-name="Eogonek" unicode="&#x118;" horiz-adv-x="585" 
d="M539 -206q-29 -17 -76 -17q-55 0 -86.5 28.5t-31.5 71.5q0 75 79 123h-342v710h446v-89h-350v-218h323v-86h-323v-228h357v-89q-47 -12 -80 -43.5t-33 -68.5q0 -22 15 -35.5t39 -13.5q21 0 47 10z" />
    <glyph glyph-name="eogonek" unicode="&#x119;" horiz-adv-x="541" 
d="M463 -206q-36 -17 -80 -17q-55 0 -84.5 28.5t-29.5 74.5q0 54 48 110q-11 -3 -35 -3q-108 0 -177 74t-69 191q0 116 69 190t174 74q102 0 164 -72.5t62 -186.5v-30h-376q7 -72 48.5 -116t104.5 -44q81 0 138 79l68 -43q-79 -86 -110.5 -132t-31.5 -83q0 -23 14.5 -36
t39.5 -13q22 0 46 10zM278 437q-59 0 -98 -38t-49 -104h280q-8 67 -42 104.5t-91 37.5z" />
    <glyph glyph-name="Ecaron" unicode="&#x11a;" horiz-adv-x="585" 
d="M161 930h79l61 -74l60 74h79l-94 -139h-91zM82 0v710h446v-89h-350v-218h323v-86h-323v-228h357v-89h-453z" />
    <glyph glyph-name="ecaron" unicode="&#x11b;" horiz-adv-x="541" 
d="M140 723h79l61 -74l60 74h79l-94 -139h-91zM492 101q-80 -114 -210 -114q-108 0 -177 74t-69 191q0 116 69 190t174 74q102 0 164 -72.5t62 -186.5v-30h-376q7 -72 48.5 -116t104.5 -44q81 0 138 79zM278 437q-59 0 -98 -38t-49 -104h280q-8 67 -42 104.5t-91 37.5z" />
    <glyph glyph-name="Gbreve" unicode="&#x11e;" horiz-adv-x="709" 
d="M656 97q-49 -52 -120.5 -81t-150.5 -29q-152 0 -246.5 103t-94.5 266q0 162 94 264.5t245 102.5q166 0 265 -137l-75 -57q-76 106 -191 106q-108 0 -174 -77.5t-66 -201.5q0 -125 67 -203.5t178 -78.5q103 0 176 58v151h-186v88h279v-274zM227 930h70q3 -30 21 -46.5
t45 -16.5t44 16.5t20 46.5h70q-3 -62 -40 -96.5t-94 -34.5t-94.5 34.5t-41.5 96.5z" />
    <glyph glyph-name="gbreve" unicode="&#x11f;" horiz-adv-x="528" 
d="M152 333q0 -45 32 -75.5t80 -30.5t79.5 30.5t31.5 75.5t-31.5 75.5t-79.5 30.5t-80 -30.5t-32 -75.5zM512 -65q0 -76 -69 -117t-180 -41q-110 0 -175 38.5t-65 105.5q0 64 61 109q-41 35 -41 84q0 64 68 100q-47 49 -47 120q0 78 57.5 130t141.5 52q71 0 125 -38
q42 65 124 56l-4 -74q-54 5 -73 -31q28 -42 28 -95q0 -78 -57.5 -129.5t-142.5 -51.5q-53 0 -99 22q-42 -16 -42 -50q0 -47 77 -47h129q80 0 132 -37.5t52 -105.5zM268 -151q151 0 151 83q0 33 -29.5 49.5t-74.5 16.5h-130q-19 0 -34 3q-42 -29 -42 -69q0 -42 44 -62.5
t115 -20.5zM129 723h70q3 -30 21 -46.5t45 -16.5t44 16.5t20 46.5h70q-3 -62 -40 -96.5t-94 -34.5t-94.5 34.5t-41.5 96.5z" />
    <glyph glyph-name="uni0122" unicode="&#x122;" horiz-adv-x="709" 
d="M286 -225l42 141h98l-64 -141h-76zM656 97q-49 -52 -120.5 -81t-150.5 -29q-152 0 -246.5 103t-94.5 266q0 162 94 264.5t245 102.5q166 0 265 -137l-75 -57q-76 106 -191 106q-108 0 -174 -77.5t-66 -201.5q0 -125 67 -203.5t178 -78.5q103 0 176 58v151h-186v88h279
v-274z" />
    <glyph glyph-name="uni0123" unicode="&#x123;" horiz-adv-x="528" 
d="M356 723l-42 -141h-98l64 141h76zM152 333q0 -45 32 -75.5t80 -30.5t79.5 30.5t31.5 75.5t-31.5 75.5t-79.5 30.5t-80 -30.5t-32 -75.5zM512 -65q0 -76 -69 -117t-180 -41q-110 0 -175 38.5t-65 105.5q0 64 61 109q-41 35 -41 84q0 64 68 100q-47 49 -47 120
q0 78 57.5 130t141.5 52q71 0 125 -38q42 65 124 56l-4 -74q-54 5 -73 -31q28 -42 28 -95q0 -78 -57.5 -129.5t-142.5 -51.5q-53 0 -99 22q-42 -16 -42 -50q0 -47 77 -47h129q80 0 132 -37.5t52 -105.5zM268 -151q151 0 151 83q0 33 -29.5 49.5t-74.5 16.5h-130q-19 0 -34 3
q-42 -29 -42 -69q0 -42 44 -62.5t115 -20.5z" />
    <glyph glyph-name="Imacron" unicode="&#x12a;" horiz-adv-x="260" 
d="M82 0v710h96v-710h-96zM6 832v73h248v-73h-248z" />
    <glyph glyph-name="imacron" unicode="&#x12b;" horiz-adv-x="242" 
d="M75 0v503h92v-503h-92zM-3 625v73h248v-73h-248z" />
    <glyph glyph-name="Iogonek" unicode="&#x12e;" horiz-adv-x="260" 
d="M182 -206q-29 -17 -76 -17q-55 0 -86.5 28.5t-31.5 71.5q0 82 94 131v702h96v-710q-47 -12 -80 -43.5t-33 -68.5q0 -22 15 -35.5t39 -13.5q21 0 47 10z" />
    <glyph glyph-name="iogonek" unicode="&#x12f;" horiz-adv-x="242" 
d="M63 665q0 24 17 41t41 17t41 -17t17 -41t-17 -41.5t-41 -17.5t-41 17.5t-17 41.5zM171 -206q-29 -17 -76 -17q-55 0 -86.5 28.5t-31.5 71.5q0 42 27 77t71 56v493h92v-503q-47 -12 -80 -43.5t-33 -68.5q0 -22 15 -35.5t39 -13.5q21 0 47 10z" />
    <glyph glyph-name="Idotaccent" unicode="&#x130;" horiz-adv-x="260" 
d="M82 0v710h96v-710h-96zM72 868q0 24 17 41t41 17t41 -17t17 -41t-17 -41.5t-41 -17.5t-41 17.5t-17 41.5z" />
    <glyph glyph-name="dotlessi" unicode="&#x131;" horiz-adv-x="242" 
d="M75 0v503h92v-503h-92z" />
    <glyph glyph-name="IJ" unicode="&#x132;" horiz-adv-x="599" 
d="M82 208v502h96v-502h-96zM81 20l25 83q68 -28 147 -28q91 0 134.5 44.5t43.5 146.5v444h96v-439q0 -138 -68.5 -211t-202.5 -73q-96 0 -175 33z" />
    <glyph glyph-name="ij" unicode="&#x133;" horiz-adv-x="485" 
d="M63 665q0 24 17 41t41 17t41 -17t17 -41t-17 -41.5t-41 -17.5t-41 17.5t-17 41.5zM75 0v503h92v-503h-92zM305 665q0 24 17 41t41 17t41 -17t17 -41t-17 -41.5t-41 -17.5t-41 17.5t-17 41.5zM194 -217l8 80q18 -5 41 -5q74 0 74 85v560h92v-559q0 -77 -39.5 -122
t-118.5 -45q-21 0 -57 6z" />
    <glyph glyph-name="uni0136" unicode="&#x136;" horiz-adv-x="608" 
d="M229 -225l42 141h98l-64 -141h-76zM473 0l-295 334v-334h-96v710h96v-319l284 319h116l-310 -343l326 -367h-121z" />
    <glyph glyph-name="uni0137" unicode="&#x137;" horiz-adv-x="502" 
d="M182 -225l42 141h98l-64 -141h-76zM373 0l-206 227v-227h-92v710h92v-420l198 213h113l-228 -242l243 -261h-120z" />
    <glyph glyph-name="Lacute" unicode="&#x139;" horiz-adv-x="513" 
d="M84 791l57 139h101l-80 -139h-78zM82 0v710h96v-621h307v-89h-403z" />
    <glyph glyph-name="lacute" unicode="&#x13a;" horiz-adv-x="242" 
d="M77 791l57 139h101l-80 -139h-78zM75 0v710h92v-710h-92z" />
    <glyph glyph-name="uni013B" unicode="&#x13b;" horiz-adv-x="513" 
d="M188 -225l42 141h98l-64 -141h-76zM82 0v710h96v-621h307v-89h-403z" />
    <glyph glyph-name="uni013C" unicode="&#x13c;" horiz-adv-x="242" 
d="M29 -225l42 141h98l-64 -141h-76zM75 0v710h92v-710h-92z" />
    <glyph glyph-name="Lcaron" unicode="&#x13d;" horiz-adv-x="513" 
d="M344 486l41 224h94l-65 -224h-70zM82 0v710h96v-621h307v-89h-403z" />
    <glyph glyph-name="lcaron" unicode="&#x13e;" horiz-adv-x="342" 
d="M231 486l40 224h95l-65 -224h-70zM75 0v710h92v-710h-92z" />
    <glyph glyph-name="Lslash" unicode="&#x141;" horiz-adv-x="523" 
d="M495 0h-403v201l-76 -53v90l76 53v419h96v-353l132 91v-90l-132 -91v-178h307v-89z" />
    <glyph glyph-name="lslash" unicode="&#x142;" horiz-adv-x="267" 
d="M179 0h-92v204l-69 -51v92l69 51v414h92v-347l101 74v-92l-101 -74v-271z" />
    <glyph glyph-name="Nacute" unicode="&#x143;" horiz-adv-x="711" 
d="M311 791l57 139h101l-80 -139h-78zM554 0l-379 529v-529h-93v710h77l378 -524v524h92v-710h-75z" />
    <glyph glyph-name="nacute" unicode="&#x144;" horiz-adv-x="574" 
d="M249 584l57 139h101l-80 -139h-78zM167 270v-270h-92v503h88v-84q22 44 63.5 70.5t95.5 26.5q79 0 130.5 -52.5t51.5 -149.5v-314h-92v296q0 66 -29 100t-83 34q-59 0 -96 -43t-37 -117z" />
    <glyph glyph-name="uni0145" unicode="&#x145;" horiz-adv-x="711" 
d="M281 -225l42 141h98l-64 -141h-76zM554 0l-379 529v-529h-93v710h77l378 -524v524h92v-710h-75z" />
    <glyph glyph-name="uni0146" unicode="&#x146;" horiz-adv-x="574" 
d="M199 -225l42 141h98l-64 -141h-76zM167 270v-270h-92v503h88v-84q22 44 63.5 70.5t95.5 26.5q79 0 130.5 -52.5t51.5 -149.5v-314h-92v296q0 66 -29 100t-83 34q-59 0 -96 -43t-37 -117z" />
    <glyph glyph-name="Ncaron" unicode="&#x147;" horiz-adv-x="711" 
d="M217 930h79l61 -74l60 74h79l-94 -139h-91zM554 0l-379 529v-529h-93v710h77l378 -524v524h92v-710h-75z" />
    <glyph glyph-name="ncaron" unicode="&#x148;" horiz-adv-x="574" 
d="M155 723h79l61 -74l60 74h79l-94 -139h-91zM167 270v-270h-92v503h88v-84q22 44 63.5 70.5t95.5 26.5q79 0 130.5 -52.5t51.5 -149.5v-314h-92v296q0 66 -29 100t-83 34q-59 0 -96 -43t-37 -117z" />
    <glyph glyph-name="Omacron" unicode="&#x14c;" horiz-adv-x="766" 
d="M259 832v73h248v-73h-248zM44 355q0 163 94 265.5t245 102.5t245 -102.5t94 -265.5t-94 -265.5t-245 -102.5t-245 102.5t-94 265.5zM142 355q0 -124 66.5 -202t174.5 -78t174 77.5t66 202.5q0 124 -66 202t-174 78t-174.5 -78t-66.5 -202z" />
    <glyph glyph-name="omacron" unicode="&#x14d;" horiz-adv-x="566" 
d="M159 625v73h248v-73h-248zM36 252q0 116 69.5 190t177.5 74q107 0 177 -74t70 -190q0 -117 -70 -191t-177 -74q-108 0 -177.5 74t-69.5 191zM130 252q0 -83 42.5 -134t110.5 -51t110 51t42 134q0 81 -42 132.5t-110 51.5t-110.5 -51.5t-42.5 -132.5z" />
    <glyph glyph-name="Ohungarumlaut" unicode="&#x150;" horiz-adv-x="766" 
d="M409 791l53 139h89l-70 -139h-72zM284 791l53 139h89l-70 -139h-72zM44 355q0 163 94 265.5t245 102.5t245 -102.5t94 -265.5t-94 -265.5t-245 -102.5t-245 102.5t-94 265.5zM142 355q0 -124 66.5 -202t174.5 -78t174 77.5t66 202.5q0 124 -66 202t-174 78t-174.5 -78
t-66.5 -202z" />
    <glyph glyph-name="ohungarumlaut" unicode="&#x151;" horiz-adv-x="566" 
d="M309 584l53 139h89l-70 -139h-72zM184 584l53 139h89l-70 -139h-72zM36 252q0 116 69.5 190t177.5 74q107 0 177 -74t70 -190q0 -117 -70 -191t-177 -74q-108 0 -177.5 74t-69.5 191zM130 252q0 -83 42.5 -134t110.5 -51t110 51t42 134q0 81 -42 132.5t-110 51.5
t-110.5 -51.5t-42.5 -132.5z" />
    <glyph glyph-name="OE" unicode="&#x152;" horiz-adv-x="946" 
d="M395 0q-159 0 -255 98.5t-96 256.5t96 256.5t255 98.5h494v-89h-322v-218h295v-86h-295v-228h329v-89h-501zM471 621h-76q-117 0 -185 -73.5t-68 -192.5t68 -192.5t185 -73.5h76v532z" />
    <glyph glyph-name="oe" unicode="&#x153;" horiz-adv-x="897" 
d="M847 101q-73 -114 -198 -114q-61 0 -110.5 30t-79.5 83q-30 -53 -79 -83t-109 -30q-103 0 -169 74t-66 191q0 116 66.5 190t168.5 74q60 0 109 -30t79 -83q30 53 79 83t109 30q98 0 156 -71.5t58 -187.5v-30h-356q6 -72 45 -116t97 -44q76 0 129 79zM644 437
q-55 0 -91.5 -38t-45.5 -104h260q-6 68 -37 105t-86 37zM130 252q0 -83 39.5 -134t103.5 -51q63 0 102.5 51.5t39.5 133.5q0 81 -39.5 132.5t-102.5 51.5q-64 0 -103.5 -51.5t-39.5 -132.5z" />
    <glyph glyph-name="Racute" unicode="&#x154;" horiz-adv-x="634" 
d="M261 791l57 139h101l-80 -139h-78zM350 621h-172v-240h170q62 0 99 34t37 86q0 53 -36.5 86.5t-97.5 33.5zM327 297h-149v-297h-96v710h270q105 0 167 -58.5t62 -144.5q0 -58 -31 -103.5t-88 -71.5q76 -42 86 -133l9 -70q7 -66 43 -129h-102q-30 47 -38 118l-9 72
q-6 51 -33.5 79t-90.5 28z" />
    <glyph glyph-name="racute" unicode="&#x155;" horiz-adv-x="346" 
d="M150 584l57 139h101l-80 -139h-78zM167 0h-92v503h88v-86q20 46 66 72.5t107 26.5l-3 -90q-79 -2 -122.5 -41t-43.5 -114v-271z" />
    <glyph glyph-name="uni0156" unicode="&#x156;" horiz-adv-x="634" 
d="M245 -225l42 141h98l-64 -141h-76zM350 621h-172v-240h170q62 0 99 34t37 86q0 53 -36.5 86.5t-97.5 33.5zM327 297h-149v-297h-96v710h270q105 0 167 -58.5t62 -144.5q0 -58 -31 -103.5t-88 -71.5q76 -42 86 -133l9 -70q7 -66 43 -129h-102q-30 47 -38 118l-9 72
q-6 51 -33.5 79t-90.5 28z" />
    <glyph glyph-name="uni0157" unicode="&#x157;" horiz-adv-x="346" 
d="M29 -225l42 141h98l-64 -141h-76zM167 0h-92v503h88v-86q20 46 66 72.5t107 26.5l-3 -90q-79 -2 -122.5 -41t-43.5 -114v-271z" />
    <glyph glyph-name="Rcaron" unicode="&#x158;" horiz-adv-x="634" 
d="M167 930h79l61 -74l60 74h79l-94 -139h-91zM350 621h-172v-240h170q62 0 99 34t37 86q0 53 -36.5 86.5t-97.5 33.5zM327 297h-149v-297h-96v710h270q105 0 167 -58.5t62 -144.5q0 -58 -31 -103.5t-88 -71.5q76 -42 86 -133l9 -70q7 -66 43 -129h-102q-30 47 -38 118
l-9 72q-6 51 -33.5 79t-90.5 28z" />
    <glyph glyph-name="rcaron" unicode="&#x159;" horiz-adv-x="346" 
d="M55 723h79l61 -74l60 74h79l-94 -139h-91zM167 0h-92v503h88v-86q20 46 66 72.5t107 26.5l-3 -90q-79 -2 -122.5 -41t-43.5 -114v-271z" />
    <glyph glyph-name="Sacute" unicode="&#x15a;" horiz-adv-x="598" 
d="M259 791l57 139h101l-80 -139h-78zM26 141l75 56q76 -122 210 -122q67 0 105 30.5t38 77.5q0 41 -27 70.5t-91 52.5l-110 40q-153 57 -153 188q0 79 62.5 134t165.5 55q141 0 229 -108l-66 -63q-29 38 -74 61t-94 23q-60 0 -94.5 -28.5t-34.5 -69.5q0 -70 105 -108
l105 -39q175 -65 175 -204q0 -84 -66 -142t-178 -58q-183 0 -282 154z" />
    <glyph glyph-name="sacute" unicode="&#x15b;" horiz-adv-x="465" 
d="M191 584l57 139h101l-80 -139h-78zM25 103l67 49q60 -85 154 -85q46 0 71.5 19t25.5 48q0 50 -82 74l-72 22q-63 19 -96.5 57t-33.5 87q0 58 48.5 100t124.5 42q58 0 105.5 -25t75.5 -62l-64 -53q-45 60 -115 60q-39 0 -61.5 -17.5t-22.5 -44.5q0 -48 68 -66l78 -23
q138 -42 138 -148q0 -64 -51 -107t-137 -43q-144 0 -221 116z" />
    <glyph glyph-name="uni015E" unicode="&#x15e;" horiz-adv-x="598" 
d="M307 -223q-44 0 -76 19l23 47q23 -13 49 -13q18 0 28.5 8t10.5 22t-10 23t-28 9t-34 -6l-24 31l36 71q-164 11 -256 153l75 56q76 -122 210 -122q67 0 105 30.5t38 77.5q0 41 -27 70.5t-91 52.5l-110 40q-153 57 -153 188q0 79 62.5 134t165.5 55q141 0 229 -108l-66 -63
q-29 38 -74 61t-94 23q-60 0 -94.5 -28.5t-34.5 -69.5q0 -70 105 -108l105 -39q175 -65 175 -204q0 -77 -56.5 -133t-153.5 -65l-26 -48q38 0 63 -22t25 -59t-26 -60t-71 -23z" />
    <glyph glyph-name="uni015F" unicode="&#x15f;" horiz-adv-x="465" 
d="M235 -223q-44 0 -76 19l23 47q23 -13 49 -13q18 0 28.5 8t10.5 22t-10 23t-28 9t-34 -6l-24 31l37 72q-118 12 -186 114l67 49q60 -85 154 -85q46 0 71.5 19t25.5 48q0 50 -82 74l-72 22q-63 19 -96.5 57t-33.5 87q0 58 48.5 100t124.5 42q58 0 105.5 -25t75.5 -62
l-64 -53q-45 60 -115 60q-39 0 -61.5 -17.5t-22.5 -44.5q0 -48 68 -66l78 -23q138 -42 138 -148q0 -59 -44.5 -101t-120.5 -48l-25 -47q38 0 63 -22t25 -59t-26 -60t-71 -23z" />
    <glyph glyph-name="Scaron" unicode="&#x160;" horiz-adv-x="598" 
d="M164 930h79l61 -74l60 74h79l-94 -139h-91zM26 141l75 56q76 -122 210 -122q67 0 105 30.5t38 77.5q0 41 -27 70.5t-91 52.5l-110 40q-153 57 -153 188q0 79 62.5 134t165.5 55q141 0 229 -108l-66 -63q-29 38 -74 61t-94 23q-60 0 -94.5 -28.5t-34.5 -69.5
q0 -70 105 -108l105 -39q175 -65 175 -204q0 -84 -66 -142t-178 -58q-183 0 -282 154z" />
    <glyph glyph-name="scaron" unicode="&#x161;" horiz-adv-x="465" 
d="M96 723h79l61 -74l60 74h79l-94 -139h-91zM25 103l67 49q60 -85 154 -85q46 0 71.5 19t25.5 48q0 50 -82 74l-72 22q-63 19 -96.5 57t-33.5 87q0 58 48.5 100t124.5 42q58 0 105.5 -25t75.5 -62l-64 -53q-45 60 -115 60q-39 0 -61.5 -17.5t-22.5 -44.5q0 -48 68 -66
l78 -23q138 -42 138 -148q0 -64 -51 -107t-137 -43q-144 0 -221 116z" />
    <glyph glyph-name="Tcommaaccent" unicode="&#x162;" horiz-adv-x="555" 
d="M265 -223q-44 0 -76 19l24 47q21 -13 48 -13q39 0 39 30q0 14 -10 23t-27 9t-35 -6l-24 31l46 83h-16v622h-217v88h530v-88h-217v-622h-22l-33 -59q38 -1 62.5 -22.5t24.5 -58.5t-26 -60t-71 -23z" />
    <glyph glyph-name="tcommaaccent" unicode="&#x163;" horiz-adv-x="345" 
d="M194 -223q-44 0 -76 19l23 47q23 -13 49 -13q18 0 28.5 8t10.5 22t-10 23t-28 9q-17 0 -34 -6l-24 31l45 87q-83 42 -83 162v262h-81v75h81v163h92v-163h140v-75h-140v-263q0 -97 84 -97q23 0 47 6l9 -79q-34 -8 -65 -8q-13 0 -33 2l-26 -48q38 0 63 -22t25 -59t-26 -60
t-71 -23z" />
    <glyph glyph-name="Tcaron" unicode="&#x164;" horiz-adv-x="563" 
d="M547 622h-217v-622h-96v622h-217v88h530v-88zM142 930h79l61 -74l60 74h79l-94 -139h-91z" />
    <glyph glyph-name="tcaron" unicode="&#x165;" horiz-adv-x="472" 
d="M361 486l40 224h95l-65 -224h-70zM327 -5q-34 -8 -65 -8q-83 0 -125 47.5t-42 131.5v262h-81v75h81v163h92v-163h140v-75h-140v-263q0 -97 84 -97q23 0 47 6z" />
    <glyph glyph-name="Umacron" unicode="&#x16a;" horiz-adv-x="688" 
d="M72 279v431h96v-436q0 -99 46.5 -149t129.5 -50t129.5 50t46.5 149v436h96v-431q0 -142 -72 -217t-200 -75q-129 0 -200.5 75t-71.5 217zM220 832v73h248v-73h-248z" />
    <glyph glyph-name="umacron" unicode="&#x16b;" horiz-adv-x="565" 
d="M405 0v77q-48 -90 -157 -90q-80 0 -132 52.5t-52 149.5v314h92v-296q0 -66 29 -100t83 -34q60 0 96.5 43t36.5 117v270h92v-503h-88zM155 625v73h248v-73h-248z" />
    <glyph glyph-name="Uring" unicode="&#x16e;" horiz-adv-x="688" 
d="M242 876q0 42 30 70t73 28q42 0 72 -28.5t30 -69.5q0 -42 -30 -70t-72 -28q-43 0 -73 28.5t-30 69.5zM300 876q0 -19 13 -32t32 -13t32 13t13 32t-13 32t-32 13t-32 -13t-13 -32zM72 279v431h96v-436q0 -99 46.5 -149t129.5 -50t129.5 50t46.5 149v436h96v-431
q0 -142 -72 -217t-200 -75q-129 0 -200.5 75t-71.5 217z" />
    <glyph glyph-name="uring" unicode="&#x16f;" horiz-adv-x="565" 
d="M176 669q0 42 30 70t73 28q42 0 72 -28.5t30 -69.5q0 -42 -30 -70t-72 -28q-43 0 -73 28.5t-30 69.5zM234 669q0 -19 13 -32t32 -13t32 13t13 32t-13 32t-32 13t-32 -13t-13 -32zM405 0v77q-48 -90 -157 -90q-80 0 -132 52.5t-52 149.5v314h92v-296q0 -66 29 -100t83 -34
q60 0 96.5 43t36.5 117v270h92v-503h-88z" />
    <glyph glyph-name="Uhungarumlaut" unicode="&#x170;" horiz-adv-x="688" 
d="M72 279v431h96v-436q0 -99 46.5 -149t129.5 -50t129.5 50t46.5 149v436h96v-431q0 -142 -72 -217t-200 -75q-129 0 -200.5 75t-71.5 217zM370 791l53 139h89l-70 -139h-72zM245 791l53 139h89l-70 -139h-72z" />
    <glyph glyph-name="uhungarumlaut" unicode="&#x171;" horiz-adv-x="565" 
d="M405 0v77q-48 -90 -157 -90q-80 0 -132 52.5t-52 149.5v314h92v-296q0 -66 29 -100t83 -34q60 0 96.5 43t36.5 117v270h92v-503h-88zM305 584l53 139h89l-70 -139h-72zM180 584l53 139h89l-70 -139h-72z" />
    <glyph glyph-name="Uogonek" unicode="&#x172;" horiz-adv-x="688" 
d="M72 279v431h96v-436q0 -99 46.5 -149t129.5 -50t129.5 50t46.5 149v436h96v-431q0 -110 -44 -181t-124 -96q-48 -14 -80.5 -45t-32.5 -69q0 -22 15.5 -35.5t39.5 -13.5q20 0 46 10l16 -55q-29 -17 -76 -17q-55 0 -86.5 28.5t-31.5 71.5q0 64 61 111q-117 7 -182 81.5
t-65 209.5z" />
    <glyph glyph-name="uogonek" unicode="&#x173;" horiz-adv-x="565" 
d="M497 -206q-29 -17 -76 -17q-55 0 -86.5 28.5t-31.5 71.5t28 78.5t74 56.5v65q-48 -90 -157 -90q-80 0 -132 52.5t-52 149.5v314h92v-296q0 -66 29 -100t83 -34q60 0 96.5 43t36.5 117v270h92v-503q-47 -12 -80 -43.5t-33 -68.5q0 -22 15 -35.5t39 -13.5q21 0 47 10z" />
    <glyph glyph-name="Ycircumflex" unicode="&#x176;" horiz-adv-x="581" 
d="M340 0h-96v293l-242 417h110l183 -322l179 322h105l-239 -417v-293zM155 791l94 139h91l94 -139h-79l-60 74l-61 -74h-79z" />
    <glyph glyph-name="ycircumflex" unicode="&#x177;" horiz-adv-x="496" 
d="M218 -210h-94l82 212l-196 501h100l140 -390l140 390h96zM110 584l94 139h91l94 -139h-79l-60 74l-61 -74h-79z" />
    <glyph glyph-name="Ydieresis" unicode="&#x178;" horiz-adv-x="581" 
d="M340 0h-96v293l-242 417h110l183 -322l179 322h105l-239 -417v-293zM342 861q0 23 15 38t38 15q22 0 37 -15.5t15 -37.5t-15.5 -38.5t-36.5 -16.5q-22 0 -37.5 16.5t-15.5 38.5zM143 860q0 23 15.5 38.5t37.5 15.5t37.5 -16t15.5 -38t-15.5 -38t-37.5 -16t-37.5 16
t-15.5 38z" />
    <glyph glyph-name="Zacute" unicode="&#x179;" horiz-adv-x="570" 
d="M250 791l57 139h101l-80 -139h-78zM532 0h-494v65l361 557h-341v88h469v-63l-362 -559h367v-88z" />
    <glyph glyph-name="zacute" unicode="&#x17a;" horiz-adv-x="450" 
d="M189 584l57 139h101l-80 -139h-78zM420 0h-392v50l271 378h-254v75h377v-50l-270 -378h268v-75z" />
    <glyph glyph-name="Zdotaccent" unicode="&#x17b;" horiz-adv-x="570" 
d="M532 0h-494v65l361 557h-341v88h469v-63l-362 -559h367v-88zM237 868q0 24 17 41t41 17t41 -17t17 -41t-17 -41.5t-41 -17.5t-41 17.5t-17 41.5z" />
    <glyph glyph-name="zdotaccent" unicode="&#x17c;" horiz-adv-x="450" 
d="M420 0h-392v50l271 378h-254v75h377v-50l-270 -378h268v-75zM176 661q0 24 17 41t41 17t41 -17t17 -41t-17 -41.5t-41 -17.5t-41 17.5t-17 41.5z" />
    <glyph glyph-name="Zcaron" unicode="&#x17d;" horiz-adv-x="570" 
d="M155 930h79l61 -74l60 74h79l-94 -139h-91zM532 0h-494v65l361 557h-341v88h469v-63l-362 -559h367v-88z" />
    <glyph glyph-name="zcaron" unicode="&#x17e;" horiz-adv-x="450" 
d="M94 723h79l61 -74l60 74h79l-94 -139h-91zM420 0h-392v50l271 378h-254v75h377v-50l-270 -378h268v-75z" />
    <glyph glyph-name="uni0192" unicode="&#x192;" horiz-adv-x="313" 
d="M28 -223q-32 0 -64 8l8 79q24 -6 48 -6q68 0 68 85v485h-70v75h70v45q0 80 41 127.5t122 47.5q33 0 68 -8l-9 -79q-26 6 -50 6q-80 0 -80 -93v-46h123v-75h-123v-484q0 -77 -38 -122t-114 -45z" />
    <glyph glyph-name="uni0218" unicode="&#x218;" horiz-adv-x="598" 
d="M225 -225l42 141h98l-64 -141h-76zM26 141l75 56q76 -122 210 -122q67 0 105 30.5t38 77.5q0 41 -27 70.5t-91 52.5l-110 40q-153 57 -153 188q0 79 62.5 134t165.5 55q141 0 229 -108l-66 -63q-29 38 -74 61t-94 23q-60 0 -94.5 -28.5t-34.5 -69.5q0 -70 105 -108
l105 -39q175 -65 175 -204q0 -84 -66 -142t-178 -58q-183 0 -282 154z" />
    <glyph glyph-name="uni0219" unicode="&#x219;" horiz-adv-x="465" 
d="M157 -225l42 141h98l-64 -141h-76zM25 103l67 49q60 -85 154 -85q46 0 71.5 19t25.5 48q0 50 -82 74l-72 22q-63 19 -96.5 57t-33.5 87q0 58 48.5 100t124.5 42q58 0 105.5 -25t75.5 -62l-64 -53q-45 60 -115 60q-39 0 -61.5 -17.5t-22.5 -44.5q0 -48 68 -66l78 -23
q138 -42 138 -148q0 -64 -51 -107t-137 -43q-144 0 -221 116z" />
    <glyph glyph-name="uni021A" unicode="&#x21a;" horiz-adv-x="556" 
d="M184 -225l42 141h98l-64 -141h-76zM547 622h-217v-622h-96v622h-217v88h530v-88z" />
    <glyph glyph-name="uni021B" unicode="&#x21b;" horiz-adv-x="345" 
d="M116 -225l42 141h98l-64 -141h-76zM327 -5q-34 -8 -65 -8q-83 0 -125 47.5t-42 131.5v262h-81v75h81v163h92v-163h140v-75h-140v-263q0 -97 84 -97q23 0 47 6z" />
    <glyph glyph-name="circumflex" unicode="&#x2c6;" horiz-adv-x="279" 
d="M0 584l94 139h91l94 -139h-79l-60 74l-61 -74h-79z" />
    <glyph glyph-name="caron" unicode="&#x2c7;" horiz-adv-x="279" 
d="M0 723h79l61 -74l60 74h79l-94 -139h-91z" />
    <glyph glyph-name="breve" unicode="&#x2d8;" horiz-adv-x="270" 
d="M0 723h70q3 -30 21 -46.5t45 -16.5t44 16.5t20 46.5h70q-3 -62 -40 -96.5t-94 -34.5t-94.5 34.5t-41.5 96.5z" />
    <glyph glyph-name="dotaccent" unicode="&#x2d9;" horiz-adv-x="116" 
d="M0 661q0 24 17 41t41 17t41 -17t17 -41t-17 -41.5t-41 -17.5t-41 17.5t-17 41.5z" />
    <glyph glyph-name="ring" unicode="&#x2da;" horiz-adv-x="205" 
d="M0 669q0 42 30 70t73 28q42 0 72 -28.5t30 -69.5q0 -42 -30 -70t-72 -28q-43 0 -73 28.5t-30 69.5zM58 669q0 -19 13 -32t32 -13t32 13t13 32t-13 32t-32 13t-32 -13t-13 -32z" />
    <glyph glyph-name="ogonek" unicode="&#x2db;" horiz-adv-x="194" 
d="M0 -123q0 60 52.5 104t124.5 54l13 -35q-47 -12 -80 -43.5t-33 -68.5q0 -22 15 -35.5t39 -13.5q21 0 47 10l16 -55q-29 -17 -76 -17q-55 0 -86.5 28.5t-31.5 71.5z" />
    <glyph glyph-name="tilde" unicode="&#x2dc;" horiz-adv-x="321" 
d="M0 615q1 50 29 79t67 29q36 0 74.5 -26.5t54.5 -26.5q14 0 24 11t10 29h62q-1 -50 -29 -79t-67 -29q-36 0 -74.5 26.5t-54.5 26.5q-14 0 -24 -11t-10 -29h-62z" />
    <glyph glyph-name="hungarumlaut" unicode="&#x2dd;" horiz-adv-x="267" 
d="M125 584l53 139h89l-70 -139h-72zM0 584l53 139h89l-70 -139h-72z" />
    <glyph glyph-name="pi" unicode="&#x3c0;" horiz-adv-x="528" 
d="M513 -8q-27 -5 -49 -5q-67 0 -99 36t-32 97v291h-142l-37 -411h-86l37 411h-72v92h459v-92h-76v-285q0 -33 13.5 -47t41.5 -14q15 0 33 3z" />
    <glyph glyph-name="uni0E3F" unicode="&#xe3f;" horiz-adv-x="636" 
d="M343 622h-165v-214h165q58 0 91.5 30.5t33.5 77.5q0 48 -33 77t-92 29zM362 325h-184v-236h182q65 0 100 31.5t35 85.5q0 53 -34.5 86t-98.5 33zM360 0h-8v-145h-86v145h-184v710h184v145h86v-145h2q96 0 152.5 -54.5t56.5 -132.5q0 -96 -86 -148q55 -26 85.5 -72
t30.5 -106q0 -84 -62 -140.5t-171 -56.5z" />
    <glyph glyph-name="wgrave" unicode="&#x1e81;" horiz-adv-x="689" 
d="M443 0l-99 323l-98 -323h-98l-133 503h96l95 -390l103 371h71l106 -372l97 391h91l-133 -503h-98zM232 723h101l57 -139h-78z" />
    <glyph glyph-name="Ygrave" unicode="&#x1ef2;" horiz-adv-x="581" 
d="M340 0h-96v293l-242 417h110l183 -322l179 322h105l-239 -417v-293zM183 930h101l57 -139h-78z" />
    <glyph glyph-name="ygrave" unicode="&#x1ef3;" horiz-adv-x="496" 
d="M218 -210h-94l82 212l-196 501h100l140 -390l140 390h96zM137 723h101l57 -139h-78z" />
    <glyph glyph-name="endash" unicode="&#x2013;" horiz-adv-x="590" 
d="M74 243v84h442v-84h-442z" />
    <glyph glyph-name="emdash" unicode="&#x2014;" horiz-adv-x="720" 
d="M24 243v84h672v-84h-672z" />
    <glyph glyph-name="quoteleft" unicode="&#x2018;" horiz-adv-x="197" 
d="M166 710l-41 -224h-94l65 224h70z" />
    <glyph glyph-name="quoteright" unicode="&#x2019;" horiz-adv-x="197" 
d="M31 486l41 224h94l-65 -224h-70z" />
    <glyph glyph-name="quotesinglbase" unicode="&#x201a;" horiz-adv-x="197" 
d="M31 -123l41 224h94l-65 -224h-70z" />
    <glyph glyph-name="quotedblleft" unicode="&#x201c;" horiz-adv-x="345" 
d="M166 710l-41 -224h-94l65 224h70zM314 710l-41 -224h-94l65 224h70z" />
    <glyph glyph-name="quotedblright" unicode="&#x201d;" horiz-adv-x="345" 
d="M31 486l41 224h94l-65 -224h-70zM179 486l41 224h94l-65 -224h-70z" />
    <glyph glyph-name="quotedblbase" unicode="&#x201e;" horiz-adv-x="345" 
d="M31 -123l41 224h94l-65 -224h-70zM179 -123l41 224h94l-65 -224h-70z" />
    <glyph glyph-name="dagger" unicode="&#x2020;" horiz-adv-x="440" 
d="M268 286l-11 -286h-74l-11 286v188h-138v88h138v148h96v-148h138v-88h-138v-188z" />
    <glyph glyph-name="daggerdbl" unicode="&#x2021;" horiz-adv-x="440" 
d="M406 148h-138v-148h-96v148h-138v88h138v238h-138v88h138v148h96v-148h138v-88h-138v-238h138v-88z" />
    <glyph glyph-name="bullet" unicode="&#x2022;" horiz-adv-x="341" 
d="M72 287q0 41 29 70t70 29q40 0 69 -29t29 -70t-29 -70.5t-69 -29.5q-41 0 -70 29.5t-29 70.5z" />
    <glyph glyph-name="ellipsis" unicode="&#x2026;" horiz-adv-x="684" 
d="M62 49q0 24 17 41.5t41 17.5t41 -17.5t17 -41.5t-17 -41.5t-41 -17.5t-41 17.5t-17 41.5zM284 49q0 24 17 41.5t41 17.5t41 -17.5t17 -41.5t-17 -41.5t-41 -17.5t-41 17.5t-17 41.5zM506 49q0 24 17 41.5t41 17.5t41 -17.5t17 -41.5t-17 -41.5t-41 -17.5t-41 17.5
t-17 41.5z" />
    <glyph glyph-name="perthousand" unicode="&#x2030;" horiz-adv-x="1225" 
d="M36 542q0 75 47 127t121 52t121 -52t47 -127q0 -74 -47 -126t-121 -52q-73 0 -120.5 52t-47.5 126zM168 0l423 710h95l-422 -710h-96zM114 542q0 -48 25 -78t65 -30t65 30t25 78q0 49 -24.5 79t-65.5 30t-65.5 -30t-24.5 -79zM862 168q0 74 47 126t121 52t121 -52
t47 -126q0 -75 -47 -127t-121 -52q-73 0 -120.5 52t-47.5 127zM482 168q0 74 47 126t121 52t121 -52t47 -126q0 -75 -47 -127t-121 -52q-73 0 -120.5 52t-47.5 127zM940 168q0 -49 25 -79t65 -30t65 30t25 79t-24.5 78.5t-65.5 29.5q-40 0 -65 -29.5t-25 -78.5zM560 168
q0 -49 25 -79t65 -30t65 30t25 79t-24.5 78.5t-65.5 29.5q-40 0 -65 -29.5t-25 -78.5z" />
    <glyph glyph-name="guilsinglleft" unicode="&#x2039;" horiz-adv-x="331" 
d="M42 250v59l227 188v-101l-145 -115l145 -116v-103z" />
    <glyph glyph-name="guilsinglright" unicode="&#x203a;" horiz-adv-x="331" 
d="M289 309v-59l-227 -188v101l145 115l-145 116v103z" />
    <glyph glyph-name="fraction" unicode="&#x2044;" horiz-adv-x="555" 
d="M0 0l461 710h94l-461 -710h-94z" />
    <glyph glyph-name="uni20A9" unicode="&#x20a9;" horiz-adv-x="886" 
d="M485 371l-44 164l-43 -164h87zM257 140l41 149h-73zM584 0l-77 289h-130l-75 -289h-106l-65 289h-113v82h94l-76 339h99l72 -339h114l87 309h71l88 -309h115l72 339h96l-76 -339h94v-82h-113l-65 -289h-106zM633 141l31 148h-73z" />
    <glyph glyph-name="uni20AA" unicode="&#x20aa;" horiz-adv-x="796" 
d="M82 0v710h213q126 0 181 -59t55 -184v-257h-87v267q0 78 -34 113.5t-108 35.5h-127v-626h-93zM266 243v257h87v-267q0 -78 34 -113.5t107 -35.5h127v626h93v-710h-213q-125 0 -180 59t-55 184z" />
    <glyph glyph-name="Euro" unicode="&#x20ac;" horiz-adv-x="703" 
d="M674 83q-91 -96 -231 -96q-116 0 -199.5 66t-114.5 178h-115v82h100q-2 28 -2 43q0 26 1 38h-99v81h113q31 113 115 180.5t201 67.5q139 0 229 -95l-59 -66q-70 73 -171 73q-75 0 -131 -43t-82 -117h261v-81h-278q-2 -24 -2 -38q0 -15 2 -43h278v-82h-259
q27 -72 82.5 -114t128.5 -42q104 0 173 74z" />
    <glyph glyph-name="uni20B9" unicode="&#x20b9;" horiz-adv-x="548" 
d="M366 89q41 -49 85 -89h-126q-34 27 -67 72l-190 239v78h121q46 0 77 22t42 59h-240v78h240q-11 37 -44 58.5t-80 21.5h-116v82h466v-82h-181q39 -34 52 -80h129v-78h-126q-11 -71 -71 -115t-150 -44h-2z" />
    <glyph glyph-name="uni20BA" unicode="&#x20ba;" horiz-adv-x="545" 
d="M196 0h-102v179l-78 -54v90l78 54v92l-78 -54v90l78 54v259h93v-195l133 92v-90l-133 -92v-92l133 92v-90l-133 -92v-158h17q223 0 236 208l91 -5q-8 -136 -95 -212t-240 -76z" />
    <glyph glyph-name="uni20BD" unicode="&#x20bd;" horiz-adv-x="598" 
d="M398 129h-188v-129h-96v129h-100v82h100v81h-100v82h100v336h230q100 0 160 -60.5t60 -150.5t-60 -148.5t-162 -58.5h-132v-81h188v-82zM332 621h-122v-247h123q65 0 99.5 35t34.5 90q0 54 -35 88t-100 34z" />
    <glyph glyph-name="uni20BE" unicode="&#x20be;" horiz-adv-x="673" 
d="M605 0h-533v84h149q-76 44 -120.5 124.5t-44.5 174.5q0 111 53 196t143 121v155h79v-135q21 3 43 3q14 0 40 -2v134h78v-153q110 -42 163 -156l-84 -43q-28 66 -79 100v-227h-78v259q-19 3 -40 3q-24 0 -43 -4v-258h-79v223q-46 -34 -72 -91t-26 -125q0 -134 82 -216.5
t242 -82.5h127v-84z" />
    <glyph glyph-name="uni2117" unicode="&#x2117;" horiz-adv-x="852" 
d="M64 355q0 156 104.5 262t257.5 106q154 0 258.5 -105.5t104.5 -262.5t-104.5 -262.5t-258.5 -105.5q-153 0 -257.5 106t-104.5 262zM141 355q0 -126 81.5 -210.5t203.5 -84.5t204 85t82 210t-82 210t-204 85t-203.5 -84.5t-81.5 -210.5zM446 281h-64v-134h-72v407h136
q66 0 108 -39.5t42 -96.5q0 -58 -42 -97.5t-108 -39.5zM438 487h-56v-139h58q41 0 61.5 19.5t20.5 50.5q0 30 -21.5 49.5t-62.5 19.5z" />
    <glyph glyph-name="trademark" unicode="&#x2122;" horiz-adv-x="868" 
d="M333 640h-121v-358h-76v358h-122v70h319v-70zM581 315l-103 226v-259h-76v428h71l128 -273l125 273h70v-428h-75v259l-104 -226h-36z" />
    <glyph glyph-name="uni2126" unicode="&#x2126;" horiz-adv-x="759" 
d="M331 73v-73h-259v83h132q-69 49 -109.5 130t-40.5 172q0 142 92.5 240t233.5 98t233 -98t92 -240q0 -91 -40.5 -172t-109.5 -130h133v-83h-259v73q87 48 134 129.5t47 182.5t-65 172.5t-165 71.5q-101 0 -166 -71.5t-65 -172.5t47 -182.5t135 -129.5z" />
    <glyph glyph-name="estimated" unicode="&#x212e;" horiz-adv-x="856" 
d="M758 210q-41 -100 -130 -160t-198 -60q-149 0 -253.5 104.5t-104.5 260.5t104.5 260.5t253.5 104.5t253.5 -104.5t104.5 -260.5v-10h-602v-206q44 -54 107.5 -83.5t136.5 -29.5q95 0 172.5 49.5t115.5 134.5h40zM430 684q-73 0 -136.5 -29.5t-107.5 -83.5v-190h491v186
q-44 55 -108.5 86t-138.5 31z" />
    <glyph glyph-name="uni2190" unicode="&#x2190;" horiz-adv-x="760" 
d="M382 113l-63 -62l-309 309l309 309l63 -62l-211 -204h564v-86h-564z" />
    <glyph glyph-name="arrowup" unicode="&#x2191;" horiz-adv-x="680" 
d="M587 353l-204 211v-564h-86v564l-204 -211l-62 63l309 309l309 -309z" />
    <glyph glyph-name="uni2192" unicode="&#x2192;" horiz-adv-x="760" 
d="M441 51l-63 62l211 204h-564v86h564l-211 204l63 62l309 -309z" />
    <glyph glyph-name="arrowdown" unicode="&#x2193;" horiz-adv-x="680" 
d="M340 -15l-309 309l62 63l204 -211v564h86v-564l204 211l62 -63z" />
    <glyph glyph-name="uni2196" unicode="&#x2196;" horiz-adv-x="680" 
d="M637 138l-62 -62l-398 400l5 -294h-88v438h437v-88l-293 5z" />
    <glyph glyph-name="uni2197" unicode="&#x2197;" horiz-adv-x="680" 
d="M498 182l5 294l-398 -400l-62 62l399 399l-293 -5v88h437v-438h-88z" />
    <glyph glyph-name="uni2198" unicode="&#x2198;" horiz-adv-x="680" 
d="M586 90h-437v88l293 -5l-399 399l62 62l398 -400l-5 294h88v-438z" />
    <glyph glyph-name="uni2199" unicode="&#x2199;" horiz-adv-x="680" 
d="M531 90h-437v438h88l-5 -294l398 400l62 -62l-399 -399l293 5v-88z" />
    <glyph glyph-name="partialdiff" unicode="&#x2202;" horiz-adv-x="569" 
d="M278 -13q-97 0 -166 64.5t-69 165.5q0 100 64.5 165t150.5 65q46 0 87 -17.5t66 -48.5q-30 97 -103.5 162t-180.5 89l23 91q93 -20 166 -70.5t116 -116.5t65 -136.5t22 -139.5q0 -122 -65.5 -197.5t-175.5 -75.5zM138 217q0 -65 39.5 -107t103.5 -42t103.5 43.5
t39.5 110.5q0 64 -39 104t-103 40t-104 -41.5t-40 -107.5z" />
    <glyph glyph-name="uni2206" unicode="&#x2206;" horiz-adv-x="614" 
d="M18 0l239 710h101l238 -710h-578zM467 86l-162 496l-160 -496h322z" />
    <glyph glyph-name="product" unicode="&#x220f;" horiz-adv-x="678" 
d="M82 0v710h514v-710h-96v622h-322v-622h-96z" />
    <glyph glyph-name="summation" unicode="&#x2211;" horiz-adv-x="559" 
d="M38 0v71l242 291l-234 271v77h460v-84h-331l201 -232v-56l-207 -250h352v-88h-483z" />
    <glyph glyph-name="minus" unicode="&#x2212;" horiz-adv-x="526" 
d="M71 286v82h384v-82h-384z" />
    <glyph glyph-name="uni2219" unicode="&#x2219;" horiz-adv-x="341" 
d="M72 287q0 41 29 70t70 29q40 0 69 -29t29 -70t-29 -70.5t-69 -29.5q-41 0 -70 29.5t-29 70.5z" />
    <glyph glyph-name="radical" unicode="&#x221a;" horiz-adv-x="601" 
d="M359 0h-94l-151 423h-114v80h186l128 -388l199 595h96z" />
    <glyph glyph-name="infinity" unicode="&#x221e;" horiz-adv-x="756" 
d="M534 143q-113 0 -164 109q-19 -49 -62 -79t-96 -30q-71 0 -122 52.5t-51 132.5q0 78 54 131.5t129 53.5q112 0 165 -109q19 49 62 79t96 30q71 0 121.5 -52.5t50.5 -132.5q0 -78 -54 -131.5t-129 -53.5zM535 224q41 0 69 29.5t28 74.5q0 44 -25.5 74.5t-70.5 30.5
q-41 0 -73 -30t-41 -73l15 -31q34 -75 98 -75zM220 223q41 0 73.5 30.5t40.5 73.5l-15 30q-34 75 -98 75q-40 0 -68.5 -30t-28.5 -74t26 -74.5t70 -30.5z" />
    <glyph glyph-name="integral" unicode="&#x222b;" horiz-adv-x="371" 
d="M33 -216l9 76q18 -5 41 -5q61 0 61 73v649q0 68 34 107t103 39q31 0 57 -7l-8 -76q-20 5 -41 5q-62 0 -62 -73v-649q0 -68 -34 -107t-103 -39q-29 0 -57 7z" />
    <glyph glyph-name="approxequal" unicode="&#x2248;" horiz-adv-x="526" 
d="M71 362v84q46 30 100 30q33 0 90 -20t94 -20q52 0 100 30v-84q-46 -30 -100 -30q-33 0 -90 20t-94 20q-52 0 -100 -30zM71 188v83q46 30 100 30q33 0 90 -20t94 -20q52 0 100 30v-83q-46 -30 -100 -30q-33 0 -90 20t-94 20q-52 0 -100 -30z" />
    <glyph glyph-name="notequal" unicode="&#x2260;" horiz-adv-x="526" 
d="M455 198h-225l-62 -102h-92l62 102h-67v82h118l56 93h-174v82h225l62 102h92l-62 -102h67v-82h-118l-56 -93h174v-82z" />
    <glyph glyph-name="lessequal" unicode="&#x2264;" horiz-adv-x="526" 
d="M448 554v-88l-264 -82l264 -82v-90l-370 127v89zM448 104h-370v83h370v-83z" />
    <glyph glyph-name="greaterequal" unicode="&#x2265;" horiz-adv-x="526" 
d="M78 212v88l264 82l-264 82v90l370 -126v-89zM78 104v83h370v-83h-370z" />
    <glyph glyph-name="uni24EA" unicode="&#x24ea;" 
d="M58 355q0 156 104.5 262t257.5 106t257.5 -106t104.5 -262t-104.5 -262t-257.5 -106t-257.5 106t-104.5 262zM135 355q0 -126 81.5 -210.5t203.5 -84.5t203.5 84.5t81.5 210.5t-81.5 210.5t-203.5 84.5t-203.5 -84.5t-81.5 -210.5zM270 355q0 84 42.5 134t107.5 50
q64 0 106.5 -50t42.5 -134t-42 -134t-107 -50q-64 0 -107 50t-43 134zM345 355q0 -54 21 -86.5t54 -32.5q32 0 53 32.5t21 86.5q0 55 -21 87t-53 32q-33 0 -54 -32t-21 -87z" />
    <glyph glyph-name="uni24FF" unicode="&#x24ff;" 
d="M58 355q0 156 104.5 262t257.5 106t257.5 -106t104.5 -262t-104.5 -262t-257.5 -106t-257.5 106t-104.5 262zM270 355q0 -84 43 -134t107 -50q65 0 107 50t42 134t-42.5 134t-106.5 50q-65 0 -107.5 -50t-42.5 -134zM345 355q0 55 21 87t54 32q32 0 53 -32t21 -87
q0 -54 -21 -86.5t-53 -32.5q-33 0 -54 32.5t-21 86.5z" />
    <glyph glyph-name="lozenge" unicode="&#x25ca;" horiz-adv-x="576" 
d="M50 305l191 405h94l191 -405l-191 -405h-94zM146 311l144 -323l140 311l-144 323z" />
    <glyph glyph-name="uni2780" unicode="&#x2780;" 
d="M58 355q0 156 104.5 262t257.5 106t257.5 -106t104.5 -262t-104.5 -262t-257.5 -106t-257.5 106t-104.5 262zM135 355q0 -126 81.5 -210.5t203.5 -84.5t203.5 84.5t81.5 210.5t-81.5 210.5t-203.5 84.5t-203.5 -84.5t-81.5 -210.5zM458 181h-75v228h-67v55h30q49 0 53 51
l1 14h58v-348z" />
    <glyph glyph-name="uni2781" unicode="&#x2781;" 
d="M58 355q0 156 104.5 262t257.5 106t257.5 -106t104.5 -262t-104.5 -262t-257.5 -106t-257.5 106t-104.5 262zM135 355q0 -126 81.5 -210.5t203.5 -84.5t203.5 84.5t81.5 210.5t-81.5 210.5t-203.5 84.5t-203.5 -84.5t-81.5 -210.5zM544 181h-257v48l120 104
q34 31 47 48.5t13 37.5q0 23 -15 39t-38 16q-26 0 -41.5 -18t-15.5 -42q0 -12 3 -27l-69 2q-2 18 -2 29q0 55 37 88t90 33q56 0 90 -32.5t34 -83.5q0 -32 -17.5 -59.5t-54.5 -59.5l-65 -57h141v-66z" />
    <glyph glyph-name="uni2782" unicode="&#x2782;" 
d="M58 355q0 156 104.5 262t257.5 106t257.5 -106t104.5 -262t-104.5 -262t-257.5 -106t-257.5 106t-104.5 262zM135 355q0 -126 81.5 -210.5t203.5 -84.5t203.5 84.5t81.5 210.5t-81.5 210.5t-203.5 84.5t-203.5 -84.5t-81.5 -210.5zM413 171q-110 0 -140 90l68 20
q17 -45 71 -45q29 0 45.5 13t16.5 35q0 46 -64 46h-28v54h26q26 0 41 13t15 33q0 19 -15 31.5t-38 12.5q-22 0 -38 -13t-21 -34l-68 12q11 49 47.5 74.5t83.5 25.5q53 0 88 -28t35 -69q0 -55 -53 -79q31 -11 47.5 -35t16.5 -51q0 -46 -37.5 -76t-98.5 -30z" />
    <glyph glyph-name="uni2783" unicode="&#x2783;" 
d="M58 355q0 156 104.5 262t257.5 106t257.5 -106t104.5 -262t-104.5 -262t-257.5 -106t-257.5 106t-104.5 262zM135 355q0 -126 81.5 -210.5t203.5 -84.5t203.5 84.5t81.5 210.5t-81.5 210.5t-203.5 84.5t-203.5 -84.5t-81.5 -210.5zM531 247h-48v-66h-69v66h-155v48
l159 234h65v-222h48v-60zM334 307h80v119z" />
    <glyph glyph-name="uni2784" unicode="&#x2784;" 
d="M58 355q0 156 104.5 262t257.5 106t257.5 -106t104.5 -262t-104.5 -262t-257.5 -106t-257.5 106t-104.5 262zM135 355q0 -126 81.5 -210.5t203.5 -84.5t203.5 84.5t81.5 210.5t-81.5 210.5t-203.5 84.5t-203.5 -84.5t-81.5 -210.5zM415 171q-49 0 -83 23.5t-48 62.5
l68 22q14 -44 60 -44q26 0 42 16t16 41t-16.5 40t-42.5 15q-37 0 -55 -31l-61 15l13 198h215v-64h-154l-6 -84q28 23 69 23q46 0 78.5 -31.5t32.5 -80.5q0 -52 -35.5 -86.5t-92.5 -34.5z" />
    <glyph glyph-name="uni2785" unicode="&#x2785;" 
d="M58 355q0 156 104.5 262t257.5 106t257.5 -106t104.5 -262t-104.5 -262t-257.5 -106t-257.5 106t-104.5 262zM135 355q0 -126 81.5 -210.5t203.5 -84.5t203.5 84.5t81.5 210.5t-81.5 210.5t-203.5 84.5t-203.5 -84.5t-81.5 -210.5zM417 171q-59 0 -97.5 36.5t-38.5 96.5
q0 56 38.5 121t87.5 104h98q-93 -64 -131 -143q30 18 67 18q45 0 78.5 -30.5t33.5 -80.5q0 -52 -39.5 -87t-96.5 -35zM355 290q0 -23 17.5 -40t44.5 -17t44 16.5t17 40.5q0 26 -16.5 42t-44.5 16t-45 -16t-17 -42z" />
    <glyph glyph-name="uni2786" unicode="&#x2786;" 
d="M58 355q0 156 104.5 262t257.5 106t257.5 -106t104.5 -262t-104.5 -262t-257.5 -106t-257.5 106t-104.5 262zM135 355q0 -126 81.5 -210.5t203.5 -84.5t203.5 84.5t81.5 210.5t-81.5 210.5t-203.5 84.5t-203.5 -84.5t-81.5 -210.5zM295 463v66h247v-40l-130 -308h-82
l126 282h-161z" />
    <glyph glyph-name="uni2787" unicode="&#x2787;" 
d="M58 355q0 156 104.5 262t257.5 106t257.5 -106t104.5 -262t-104.5 -262t-257.5 -106t-257.5 106t-104.5 262zM135 355q0 -126 81.5 -210.5t203.5 -84.5t203.5 84.5t81.5 210.5t-81.5 210.5t-203.5 84.5t-203.5 -84.5t-81.5 -210.5zM420 171q-61 0 -100.5 29.5t-39.5 76.5
q0 59 59 87q-48 29 -48 76q0 41 36 70t93 29t93 -29t36 -70q0 -47 -48 -76q59 -28 59 -87q0 -47 -39.5 -76.5t-100.5 -29.5zM365 435q0 -20 15 -33t40 -13t40 13t15 33q0 19 -15 32t-40 13t-40 -13t-15 -32zM355 284q0 -23 17.5 -38t47.5 -15t47.5 15t17.5 38t-18 38t-47 15
t-47 -15t-18 -38z" />
    <glyph glyph-name="uni2788" unicode="&#x2788;" 
d="M58 355q0 156 104.5 262t257.5 106t257.5 -106t104.5 -262t-104.5 -262t-257.5 -106t-257.5 106t-104.5 262zM135 355q0 -126 81.5 -210.5t203.5 -84.5t203.5 84.5t81.5 210.5t-81.5 210.5t-203.5 84.5t-203.5 -84.5t-81.5 -210.5zM433 181h-98q43 30 78 68.5t52 75.5
q-29 -19 -66 -19q-45 0 -78.5 30.5t-33.5 80.5q0 52 39.5 87t96.5 35q59 0 97.5 -36.5t38.5 -96.5q0 -56 -38.5 -121t-87.5 -104zM361 420q0 -26 17 -42t44 -16q28 0 45.5 16t17.5 42q0 23 -18 40t-44 17q-27 0 -44.5 -16.5t-17.5 -40.5z" />
    <glyph glyph-name="uni278A" unicode="&#x278a;" 
d="M58 355q0 156 104.5 262t257.5 106t257.5 -106t104.5 -262t-104.5 -262t-257.5 -106t-257.5 106t-104.5 262zM458 181v348h-58l-1 -14q-4 -51 -53 -51h-30v-55h67v-228h75z" />
    <glyph glyph-name="uni278B" unicode="&#x278b;" 
d="M58 355q0 156 104.5 262t257.5 106t257.5 -106t104.5 -262t-104.5 -262t-257.5 -106t-257.5 106t-104.5 262zM544 181v66h-141l65 57q37 32 54.5 59.5t17.5 59.5q0 51 -34 83.5t-90 32.5q-53 0 -90 -33t-37 -88q0 -11 2 -29l69 -2q-3 15 -3 27q0 24 15.5 42t41.5 18
q23 0 38 -16t15 -39q0 -20 -13 -37.5t-47 -48.5l-120 -104v-48h257z" />
    <glyph glyph-name="uni278C" unicode="&#x278c;" 
d="M58 355q0 156 104.5 262t257.5 106t257.5 -106t104.5 -262t-104.5 -262t-257.5 -106t-257.5 106t-104.5 262zM413 171q61 0 98.5 30t37.5 76q0 27 -16.5 51t-47.5 35q53 24 53 79q0 41 -35 69t-88 28q-47 0 -83.5 -25.5t-47.5 -74.5l68 -12q5 21 21 34t38 13
q23 0 38 -12.5t15 -31.5q0 -20 -15 -33t-41 -13h-26v-54h28q64 0 64 -46q0 -22 -16.5 -35t-45.5 -13q-54 0 -71 45l-68 -20q30 -90 140 -90z" />
    <glyph glyph-name="uni278D" unicode="&#x278d;" 
d="M58 355q0 156 104.5 262t257.5 106t257.5 -106t104.5 -262t-104.5 -262t-257.5 -106t-257.5 106t-104.5 262zM531 247v60h-48v222h-65l-159 -234v-48h155v-66h69v66h48zM334 307l80 119v-119h-80z" />
    <glyph glyph-name="uni278E" unicode="&#x278e;" 
d="M58 355q0 156 104.5 262t257.5 106t257.5 -106t104.5 -262t-104.5 -262t-257.5 -106t-257.5 106t-104.5 262zM415 171q57 0 92.5 34.5t35.5 86.5q0 49 -32.5 80.5t-78.5 31.5q-41 0 -69 -23l6 84h154v64h-215l-13 -198l61 -15q18 31 55 31q26 0 42.5 -15t16.5 -40
t-16 -41t-42 -16q-46 0 -60 44l-68 -22q14 -39 48 -62.5t83 -23.5z" />
    <glyph glyph-name="uni278F" unicode="&#x278f;" 
d="M58 355q0 156 104.5 262t257.5 106t257.5 -106t104.5 -262t-104.5 -262t-257.5 -106t-257.5 106t-104.5 262zM417 171q57 0 96.5 35t39.5 87q0 50 -33.5 80.5t-78.5 30.5q-35 0 -67 -18q37 78 131 143h-98q-49 -39 -87.5 -104t-38.5 -121q0 -60 38.5 -96.5t97.5 -36.5z
M355 290q0 26 17 42t45 16t44.5 -16t16.5 -42q0 -24 -17 -40.5t-44 -16.5t-44.5 17t-17.5 40z" />
    <glyph glyph-name="uni2790" unicode="&#x2790;" 
d="M58 355q0 156 104.5 262t257.5 106t257.5 -106t104.5 -262t-104.5 -262t-257.5 -106t-257.5 106t-104.5 262zM295 463h161l-126 -282h82l130 308v40h-247v-66z" />
    <glyph glyph-name="uni2791" unicode="&#x2791;" 
d="M58 355q0 156 104.5 262t257.5 106t257.5 -106t104.5 -262t-104.5 -262t-257.5 -106t-257.5 106t-104.5 262zM420 171q61 0 100.5 29.5t39.5 76.5q0 59 -59 87q48 29 48 76q0 41 -36 70t-93 29t-93 -29t-36 -70q0 -47 48 -76q-59 -28 -59 -87q0 -47 39.5 -76.5
t100.5 -29.5zM365 435q0 19 15 32t40 13t40 -13t15 -32q0 -20 -15 -33t-40 -13t-40 13t-15 33zM355 284q0 23 18 38t47 15t47 -15t18 -38t-17.5 -38t-47.5 -15t-47.5 15t-17.5 38z" />
    <glyph glyph-name="uni2792" unicode="&#x2792;" 
d="M58 355q0 156 104.5 262t257.5 106t257.5 -106t104.5 -262t-104.5 -262t-257.5 -106t-257.5 106t-104.5 262zM433 181q49 39 87.5 104t38.5 121q0 60 -38.5 96.5t-97.5 36.5q-57 0 -96.5 -35t-39.5 -87q0 -50 33.5 -80.5t78.5 -30.5q36 0 67 19q-36 -78 -131 -144h98z
M361 420q0 24 17.5 40.5t44.5 16.5q26 0 44 -17t18 -40q0 -26 -17.5 -42t-45.5 -16q-27 0 -44 16t-17 42z" />
    <glyph glyph-name="uni27F7" unicode="&#x27f7;" horiz-adv-x="1100" 
d="M781 51l-63 62l211 204h-758l211 -204l-63 -62l-309 309l309 309l63 -62l-211 -204h758l-211 204l63 62l309 -309z" />
    <glyph glyph-name="uniF8FF" unicode="&#xf8ff;" horiz-adv-x="575" 
d="M425 515v-275h-275v275h275zM317 394h55v14h-40v18h33v14h-33v15h39v14h-54v-75zM259 469h-55v-75h16v32h33v14h-33v15h39v14zM259 300h-39v18h32v15h-32v14h38v14h-54v-75h55v14zM315 286h26q18 0 25.5 8.5t7.5 29.5t-7 29t-24 8h-28v-75zM330 347h12q17 0 17 -23
q0 -14 -3.5 -19t-14.5 -5h-11v47z" />
    <glyph glyph-name="fi" unicode="&#xfb01;" horiz-adv-x="555" 
d="M376 665q0 24 17 41t41 17t41 -17t17 -41t-17 -41.5t-41 -17.5t-41 17.5t-17 41.5zM303 428h-123v-428h-92v428h-70v75h70v45q0 80 41 127.5t122 47.5q33 0 68 -8l-9 -79q-26 6 -50 6q-80 0 -80 -93v-46h123v-75zM388 0v503h92v-503h-92z" />
    <glyph glyph-name="fl" unicode="&#xfb02;" horiz-adv-x="555" 
d="M388 0v710h92v-710h-92zM303 428h-123v-428h-92v428h-70v75h70v45q0 80 41 127.5t122 47.5q33 0 68 -8l-9 -79q-26 6 -50 6q-80 0 -80 -93v-46h123v-75z" />
    <glyph glyph-name="zeroslash" horiz-adv-x="634" 
d="M51 355q0 172 72 270t194 98t194 -98t72 -270t-72 -270t-194 -98t-194 98t-72 270zM149 355q0 -84 18 -144l261 369q-43 55 -111 55q-80 0 -124 -73.5t-44 -206.5zM317 75q80 0 124 73.5t44 206.5q0 80 -18 145l-262 -369q44 -56 112 -56z" />
    <glyph glyph-name="zeroslash.tnum" horiz-adv-x="640" 
d="M60 355q0 172 70 270t190 98q119 0 189.5 -98t70.5 -270t-70 -270t-190 -98q-119 0 -189.5 98t-70.5 270zM158 355q0 -77 16 -139l255 361q-41 58 -109 58q-77 0 -119.5 -73t-42.5 -207zM320 75q77 0 119.5 73t42.5 207q0 77 -16 139l-255 -361q41 -58 109 -58z" />
    <glyph glyph-name="zero.tnum" horiz-adv-x="640" 
d="M60 355q0 172 70 270t190 98q119 0 189.5 -98t70.5 -270t-70 -270t-190 -98q-119 0 -189.5 98t-70.5 270zM158 355q0 -133 42.5 -206.5t119.5 -73.5t119.5 73t42.5 207q0 133 -42.5 206.5t-119.5 73.5t-119.5 -73t-42.5 -207z" />
    <glyph glyph-name="one.tnum" horiz-adv-x="640" 
d="M534 0h-415v87h164v416h-153v77h60q52 0 78 20.5t30 73.5l3 36h78v-623h155v-87z" />
    <glyph glyph-name="two.tnum" horiz-adv-x="640" 
d="M549 0h-445v74l189 192q75 74 110 131.5t35 113.5q0 55 -33.5 89.5t-91.5 34.5q-59 0 -91.5 -35.5t-32.5 -94.5q0 -24 6 -54l-94 3q-4 24 -4 52q0 97 63 157t154 60q99 0 160.5 -60t61.5 -153q0 -73 -43 -141t-128 -152l-129 -129h313v-88z" />
    <glyph glyph-name="three.tnum" horiz-adv-x="640" 
d="M315 -13q-86 0 -156 50.5t-90 150.5l92 21q33 -134 153 -134q63 0 101.5 34.5t38.5 91.5q0 56 -37.5 90.5t-117.5 34.5h-50v76h50q74 0 107 34t33 87q0 49 -33 80.5t-86 31.5q-119 0 -136 -138l-89 10q11 108 76 162t152 54q88 0 150 -56.5t62 -137.5q0 -107 -93 -159
q53 -23 81.5 -68t28.5 -102q0 -93 -67 -153t-170 -60z" />
    <glyph glyph-name="four.tnum" horiz-adv-x="640" 
d="M572 153h-101v-153h-93v153h-318v85l317 472h94v-469h101v-88zM159 241h219v328z" />
    <glyph glyph-name="five.tnum" horiz-adv-x="640" 
d="M324 -13q-93 0 -159 52t-88 138l90 26q16 -58 59.5 -93t97.5 -35q61 0 103.5 43.5t42.5 111.5q0 69 -41 112t-110 43q-51 0 -89.5 -23t-56.5 -62l-80 16l44 394h385v-88h-303l-23 -192q61 44 139 44q102 0 167.5 -69t65.5 -175q0 -107 -69 -175t-175 -68z" />
    <glyph glyph-name="six.tnum" horiz-adv-x="640" 
d="M321 -13q-101 0 -173 71t-72 186q0 70 24 142.5t63 132.5t79 107t83 84h139q-87 -63 -153.5 -140t-98.5 -153q58 45 132 45q90 0 156 -65t66 -168q0 -105 -71.5 -173.5t-173.5 -68.5zM174 227q0 -67 41 -109.5t106 -42.5t106 42.5t41 106.5q0 67 -39.5 108t-102.5 41
q-67 0 -109.5 -40.5t-42.5 -105.5z" />
    <glyph glyph-name="seven.tnum" horiz-adv-x="640" 
d="M93 622v88h466v-52l-265 -658h-110l264 622h-355z" />
    <glyph glyph-name="eight.tnum" horiz-adv-x="640" 
d="M320 -13q-108 0 -176.5 61t-68.5 152q0 58 30 105t82 74q-87 55 -87 153q0 81 62 136t158 55t158 -55t62 -136q0 -98 -87 -153q52 -27 82 -74t30 -105q0 -91 -68.5 -152t-176.5 -61zM197 523q0 -48 34 -80.5t89 -32.5t89 32.5t34 80.5t-34 80t-89 32t-89 -32t-34 -80z
M172 206q0 -56 39 -93.5t109 -37.5t109 37.5t39 93.5q0 55 -40.5 93t-107.5 38t-107.5 -38t-40.5 -93z" />
    <glyph glyph-name="nine.tnum" horiz-adv-x="640" 
d="M315 0h-139q87 63 153.5 140t98.5 153q-58 -45 -132 -45q-90 0 -156 65t-66 168q0 105 71.5 173.5t173.5 68.5q101 0 173 -71t72 -186q0 -70 -24 -142.5t-63 -132.5t-79 -107t-83 -84zM172 486q0 -67 39.5 -108t102.5 -41q67 0 109.5 40.5t42.5 105.5q0 67 -41 109.5
t-106 42.5t-106 -42.5t-41 -106.5z" />
    <glyph glyph-name="zero.num" horiz-adv-x="367" 
d="M34 536q0 84 42.5 134t107.5 50q64 0 106.5 -50t42.5 -134t-42 -134t-107 -50q-64 0 -107 50t-43 134zM109 536q0 -54 21 -86.5t54 -32.5q32 0 53 32.5t21 86.5q0 55 -21 87t-53 32q-33 0 -54 -32t-21 -87z" />
    <glyph glyph-name="one.num" horiz-adv-x="222" 
d="M162 362h-75v228h-67v55h30q49 0 53 51l1 14h58v-348z" />
    <glyph glyph-name="two.num" horiz-adv-x="321" 
d="M287 362h-257v48l120 104q34 31 47 48.5t13 37.5q0 23 -15 39t-38 16q-26 0 -41.5 -18t-15.5 -42q0 -12 3 -27l-69 2q-2 18 -2 29q0 55 37 88t90 33q56 0 90 -32.5t34 -83.5q0 -32 -17.5 -59.5t-54.5 -59.5l-65 -57h141v-66z" />
    <glyph glyph-name="three.num" horiz-adv-x="321" 
d="M154 352q-110 0 -140 90l68 20q17 -45 71 -45q29 0 45.5 13t16.5 35q0 46 -64 46h-28v54h26q26 0 41 13t15 33q0 19 -15 31.5t-38 12.5q-22 0 -38 -13t-21 -34l-68 12q11 49 47.5 74.5t83.5 25.5q53 0 88 -28t35 -69q0 -55 -53 -79q31 -11 47.5 -35t16.5 -51
q0 -46 -37.5 -76t-98.5 -30z" />
    <glyph glyph-name="four.num" horiz-adv-x="302" 
d="M288 428h-48v-66h-69v66h-155v48l159 234h65v-222h48v-60zM91 488h80v119z" />
    <glyph glyph-name="five.num" horiz-adv-x="321" 
d="M162 352q-49 0 -83 23.5t-48 62.5l68 22q14 -44 60 -44q26 0 42 16t16 41t-16.5 40t-42.5 15q-37 0 -55 -31l-61 15l13 198h215v-64h-154l-6 -84q28 23 69 23q46 0 78.5 -31.5t32.5 -80.5q0 -52 -35.5 -86.5t-92.5 -34.5z" />
    <glyph glyph-name="six.num" horiz-adv-x="338" 
d="M171 352q-59 0 -97.5 36.5t-38.5 96.5q0 56 38.5 121t87.5 104h98q-93 -64 -131 -143q30 18 67 18q45 0 78.5 -30.5t33.5 -80.5q0 -52 -39.5 -87t-96.5 -35zM109 471q0 -23 17.5 -40t44.5 -17t44 16.5t17 40.5q0 26 -16.5 42t-44.5 16t-45 -16t-17 -42z" />
    <glyph glyph-name="seven.num" horiz-adv-x="268" 
d="M9 644v66h247v-40l-130 -308h-82l126 282h-161z" />
    <glyph glyph-name="eight.num" horiz-adv-x="342" 
d="M171 352q-61 0 -100.5 29.5t-39.5 76.5q0 59 59 87q-48 29 -48 76q0 41 36 70t93 29t93 -29t36 -70q0 -47 -48 -76q59 -28 59 -87q0 -47 -39.5 -76.5t-100.5 -29.5zM116 616q0 -20 15 -33t40 -13t40 13t15 33q0 19 -15 32t-40 13t-40 -13t-15 -32zM106 465
q0 -23 17.5 -38t47.5 -15t47.5 15t17.5 38t-18 38t-47 15t-47 -15t-18 -38z" />
    <glyph glyph-name="nine.num" horiz-adv-x="338" 
d="M177 362h-98q43 30 78 68.5t52 75.5q-29 -19 -66 -19q-45 0 -78.5 30.5t-33.5 80.5q0 52 39.5 87t96.5 35q59 0 97.5 -36.5t38.5 -96.5q0 -56 -38.5 -121t-87.5 -104zM105 601q0 -26 17 -42t44 -16q28 0 45.5 16t17.5 42q0 23 -18 40t-44 17q-27 0 -44.5 -16.5
t-17.5 -40.5z" />
    <glyph glyph-name="zero.den" horiz-adv-x="367" 
d="M34 174q0 84 42.5 134t107.5 50q64 0 106.5 -50t42.5 -134t-42 -134t-107 -50q-64 0 -107 50t-43 134zM109 174q0 -54 21 -86.5t54 -32.5q32 0 53 32.5t21 86.5q0 55 -21 87t-53 32q-33 0 -54 -32t-21 -87z" />
    <glyph glyph-name="one.den" horiz-adv-x="222" 
d="M162 0h-75v228h-67v55h30q49 0 53 51l1 14h58v-348z" />
    <glyph glyph-name="two.den" horiz-adv-x="321" 
d="M287 0h-257v48l120 104q34 31 47 48.5t13 37.5q0 23 -15 39t-38 16q-26 0 -41.5 -18t-15.5 -42q0 -12 3 -27l-69 2q-2 18 -2 29q0 55 37 88t90 33q56 0 90 -32.5t34 -83.5q0 -32 -17.5 -59.5t-54.5 -59.5l-65 -57h141v-66z" />
    <glyph glyph-name="three.den" horiz-adv-x="321" 
d="M154 -10q-110 0 -140 90l68 20q17 -45 71 -45q29 0 45.5 13t16.5 35q0 46 -64 46h-28v54h26q26 0 41 13t15 33q0 19 -15 31.5t-38 12.5q-22 0 -38 -13t-21 -34l-68 12q11 49 47.5 74.5t83.5 25.5q53 0 88 -28t35 -69q0 -55 -53 -79q31 -11 47.5 -35t16.5 -51
q0 -46 -37.5 -76t-98.5 -30z" />
    <glyph glyph-name="four.den" horiz-adv-x="302" 
d="M288 66h-48v-66h-69v66h-155v48l159 234h65v-222h48v-60zM91 126h80v119z" />
    <glyph glyph-name="five.den" horiz-adv-x="321" 
d="M162 -10q-49 0 -83 23.5t-48 62.5l68 22q14 -44 60 -44q26 0 42 16t16 41t-16.5 40t-42.5 15q-37 0 -55 -31l-61 15l13 198h215v-64h-154l-6 -84q28 23 69 23q46 0 78.5 -31.5t32.5 -80.5q0 -52 -35.5 -86.5t-92.5 -34.5z" />
    <glyph glyph-name="six.den" horiz-adv-x="338" 
d="M171 -10q-59 0 -97.5 36.5t-38.5 96.5q0 56 38.5 121t87.5 104h98q-93 -64 -131 -143q30 18 67 18q45 0 78.5 -30.5t33.5 -80.5q0 -52 -39.5 -87t-96.5 -35zM109 109q0 -23 17.5 -40t44.5 -17t44 16.5t17 40.5q0 26 -16.5 42t-44.5 16t-45 -16t-17 -42z" />
    <glyph glyph-name="seven.den" horiz-adv-x="268" 
d="M9 282v66h247v-40l-130 -308h-82l126 282h-161z" />
    <glyph glyph-name="eight.den" horiz-adv-x="342" 
d="M171 -10q-61 0 -100.5 29.5t-39.5 76.5q0 59 59 87q-48 29 -48 76q0 41 36 70t93 29t93 -29t36 -70q0 -47 -48 -76q59 -28 59 -87q0 -47 -39.5 -76.5t-100.5 -29.5zM116 254q0 -20 15 -33t40 -13t40 13t15 33q0 19 -15 32t-40 13t-40 -13t-15 -32zM106 103
q0 -23 17.5 -38t47.5 -15t47.5 15t17.5 38t-18 38t-47 15t-47 -15t-18 -38z" />
    <glyph glyph-name="nine.den" horiz-adv-x="338" 
d="M177 0h-98q43 30 78 68.5t52 75.5q-29 -19 -66 -19q-45 0 -78.5 30.5t-33.5 80.5q0 52 39.5 87t96.5 35q59 0 97.5 -36.5t38.5 -96.5q0 -56 -38.5 -121t-87.5 -104zM105 239q0 -26 17 -42t44 -16q28 0 45.5 16t17.5 42q0 23 -18 40t-44 17q-27 0 -44.5 -16.5t-17.5 -40.5
z" />
    <glyph glyph-name="uni00200326" horiz-adv-x="140" 
d="M0 -225l42 141h98l-64 -141h-76z" />
    </font>
</defs>
</svg>
