<?xml version="1.0" standalone="no"?>
<!DOCTYPE svg PUBLIC "-//W3C//DTD SVG 1.1//EN" "http://www.w3.org/Graphics/SVG/1.1/DTD/svg11.dtd" >
<svg>
<metadata>
Created by FontForge 20090622 at Tue Nov 21 09:50:12 2017
 By deploy user
Copyright 2016 Studio Feed Inc., all rights reserved.
</metadata>
<defs>
<font id="Guillon-Demi" horiz-adv-x="840" >
  <font-face 
    font-family="Guillon Demi"
    font-weight="500"
    font-stretch="normal"
    units-per-em="1000"
    panose-1="0 0 0 0 0 0 0 0 0 0"
    ascent="800"
    descent="-200"
    x-height="505"
    cap-height="710"
    bbox="-46 -225 1225 982"
    underline-thickness="50"
    underline-position="-100"
    unicode-range="U+000D-U+FB02"
  />
<missing-glyph horiz-adv-x="686" 
d="M80 -210v920h526v-920h-526zM210 -91h266v682h-266v-682z" />
    <glyph glyph-name="f_f" unicode="ff" horiz-adv-x="642" 
d="M401 0v407h-195v-407h-126v407h-70v98h70v35q0 83 43.5 134t135.5 51q33 0 72 -6l-9 -106q-26 4 -49 4q-34 0 -50.5 -17.5t-16.5 -57.5v-37h195v35q0 83 43.5 134t135.5 51q33 0 72 -6l-9 -106q-26 4 -49 4q-34 0 -50.5 -17.5t-16.5 -57.5v-37h105v-98h-105v-407h-126z
" />
    <glyph glyph-name="f_i" unicode="fi" horiz-adv-x="577" 
d="M374 664q0 31 22 53t53 22t53 -22t22 -53t-22 -53.5t-53 -22.5t-53 22.5t-22 53.5zM386 0v407h-180v-407h-126v407h-70v98h70v35q0 83 43.5 134t135.5 51q33 0 72 -6l-9 -106q-26 4 -49 4q-34 0 -50.5 -17.5t-16.5 -57.5v-37h306v-505h-126z" />
    <glyph glyph-name="f_j" unicode="fj" horiz-adv-x="577" 
d="M374 664q0 31 22 53t53 22t53 -22t22 -53t-22 -53.5t-53 -22.5t-53 22.5t-22 53.5zM336 -225q-28 0 -61 6l9 106q20 -4 38 -4q32 0 48 17.5t16 57.5v449h-180v-407h-126v407h-70v98h70v35q0 83 43.5 134t135.5 51q33 0 72 -6l-9 -106q-26 4 -49 4q-34 0 -50.5 -17.5
t-16.5 -57.5v-37h306v-545q0 -185 -176 -185z" />
    <glyph glyph-name="f_l" unicode="fl" horiz-adv-x="577" 
d="M386 0v710h126v-710h-126zM311 407h-105v-407h-126v407h-70v98h70v35q0 83 43.5 134t135.5 51q33 0 72 -6l-9 -106q-26 4 -49 4q-34 0 -50.5 -17.5t-16.5 -57.5v-37h105v-98z" />
    <glyph glyph-name="f_t" unicode="ft" horiz-adv-x="663" 
d="M642 -9q-36 -6 -67 -6q-92 0 -135.5 51t-43.5 134v237h-190v-407h-126v407h-70v98h70v35q0 83 43.5 134t135.5 51q33 0 72 -6l-9 -106q-26 4 -49 4q-34 0 -50.5 -17.5t-16.5 -57.5v-37h190v165h126v-165h121v-98h-121v-239q0 -40 16.5 -57.5t50.5 -17.5q20 0 44 4z" />
    <glyph glyph-name="f_f_i" unicode="ffi" horiz-adv-x="898" 
d="M695 664q0 31 22 53t53 22t53 -22t22 -53t-22 -53.5t-53 -22.5t-53 22.5t-22 53.5zM401 0v407h-195v-407h-126v407h-70v98h70v35q0 83 43.5 134t135.5 51q33 0 72 -6l-9 -106q-26 4 -49 4q-34 0 -50.5 -17.5t-16.5 -57.5v-37h195v35q0 83 43.5 134t135.5 51q33 0 72 -6
l-9 -106q-26 4 -49 4q-34 0 -50.5 -17.5t-16.5 -57.5v-37h306v-505h-126v407h-180v-407h-126z" />
    <glyph glyph-name="f_f_j" unicode="ffj" horiz-adv-x="898" 
d="M695 664q0 31 22 53t53 22t53 -22t22 -53t-22 -53.5t-53 -22.5t-53 22.5t-22 53.5zM657 -225q-28 0 -61 6l9 106q20 -4 38 -4q32 0 48 17.5t16 57.5v449h-180v-407h-126v407h-195v-407h-126v407h-70v98h70v35q0 83 43.5 134t135.5 51q33 0 72 -6l-9 -106q-26 4 -49 4
q-34 0 -50.5 -17.5t-16.5 -57.5v-37h195v35q0 83 43.5 134t135.5 51q33 0 72 -6l-9 -106q-26 4 -49 4q-34 0 -50.5 -17.5t-16.5 -57.5v-37h306v-545q0 -185 -176 -185z" />
    <glyph glyph-name="f_f_l" unicode="ffl" horiz-adv-x="898" 
d="M707 0v710h126v-710h-126zM401 0v407h-195v-407h-126v407h-70v98h70v35q0 83 43.5 134t135.5 51q33 0 72 -6l-9 -106q-26 4 -49 4q-34 0 -50.5 -17.5t-16.5 -57.5v-37h195v35q0 83 43.5 134t135.5 51q33 0 72 -6l-9 -106q-26 4 -49 4q-34 0 -50.5 -17.5t-16.5 -57.5v-37
h105v-98h-105v-407h-126z" />
    <glyph glyph-name="f_f_t" unicode="fft" horiz-adv-x="984" 
d="M963 -9q-36 -6 -67 -6q-92 0 -135.5 51t-43.5 134v237h-190v-407h-126v407h-195v-407h-126v407h-70v98h70v35q0 83 43.5 134t135.5 51q33 0 72 -6l-9 -106q-26 4 -49 4q-34 0 -50.5 -17.5t-16.5 -57.5v-37h195v35q0 83 43.5 134t135.5 51q33 0 72 -6l-9 -106q-26 4 -49 4
q-34 0 -50.5 -17.5t-16.5 -57.5v-37h190v165h126v-165h121v-98h-121v-239q0 -40 16.5 -57.5t50.5 -17.5q20 0 44 4z" />
    <glyph glyph-name=".notdef" horiz-adv-x="686" 
d="M80 -210v920h526v-920h-526zM210 -91h266v682h-266v-682z" />
    <glyph glyph-name=".null" horiz-adv-x="0" 
 />
    <glyph glyph-name="nonmarkingreturn" horiz-adv-x="333" 
 />
    <glyph glyph-name="NULL" horiz-adv-x="0" 
 />
    <glyph glyph-name="NULL" horiz-adv-x="0" 
 />
    <glyph glyph-name="CR" unicode="&#xd;" horiz-adv-x="0" 
 />
    <glyph glyph-name="space" unicode=" " horiz-adv-x="210" 
 />
    <glyph glyph-name="exclam" unicode="!" horiz-adv-x="280" 
d="M75 505v205h130v-205l-14 -288h-102zM65 66q0 31 22 53t53 22t53 -22t22 -53t-22 -53.5t-53 -22.5t-53 22.5t-22 53.5z" />
    <glyph glyph-name="quotedbl" unicode="&#x22;" horiz-adv-x="357" 
d="M196 710h121l-15 -238h-91zM40 710h121l-15 -238h-91z" />
    <glyph glyph-name="numbersign" unicode="#" horiz-adv-x="609" 
d="M345 272l18 166h-99l-18 -166h99zM314 0l19 170h-99l-19 -170h-110l19 170h-104v102h116l18 166h-105v102h117l19 170h110l-19 -170h99l19 170h110l-19 -170h104v-102h-116l-18 -166h105v-102h-117l-19 -170h-110z" />
    <glyph glyph-name="dollar" unicode="$" horiz-adv-x="604" 
d="M365 -145h-115v135q-147 22 -233 151l101 77q75 -115 197 -115q56 0 87.5 23t31.5 62q0 31 -22 54.5t-82 46.5l-116 46q-149 58 -149 191q0 72 49.5 125.5t135.5 68.5v135h115v-135q112 -18 182 -104l-89 -85q-26 33 -68 55t-88 22q-52 0 -81.5 -21.5t-29.5 -52.5
q0 -29 20 -48t69 -39l109 -44q177 -71 177 -209q0 -78 -53.5 -134.5t-147.5 -70.5v-134z" />
    <glyph glyph-name="percent" unicode="%" horiz-adv-x="875" 
d="M30 536q0 79 49.5 132.5t126.5 53.5t126.5 -54t49.5 -132q0 -79 -49.5 -132.5t-126.5 -53.5t-126.5 54t-49.5 132zM180 0l390 710h125l-389 -710h-126zM132 536q0 -43 20.5 -69.5t53.5 -26.5t53.5 26.5t20.5 69.5q0 44 -20.5 70t-53.5 26t-53.5 -26t-20.5 -70zM493 174
q0 79 49.5 132.5t126.5 53.5t126.5 -54t49.5 -132q0 -79 -49.5 -132.5t-126.5 -53.5t-126.5 54t-49.5 132zM595 174q0 -43 20.5 -69.5t53.5 -26.5t53.5 26.5t20.5 69.5q0 44 -20.5 70t-53.5 26t-53.5 -26t-20.5 -70z" />
    <glyph glyph-name="ampersand" unicode="&#x26;" horiz-adv-x="624" 
d="M522 -15l-67 72q-85 -72 -185 -72q-108 0 -171.5 54t-63.5 135q0 60 30.5 106t96.5 91q-47 51 -65 88t-18 87q0 73 57 126t144 53q91 0 144 -52.5t53 -126.5q0 -53 -28.5 -93t-90.5 -80l-19 -12l113 -118q23 41 41 91l114 -41q-33 -84 -70 -139l77 -80zM265 438l2 -2
l30 18q54 33 54 89q0 34 -19.5 54.5t-51.5 20.5t-53.5 -21t-21.5 -54q0 -43 60 -105zM265 93q57 0 111 49l-141 151q-41 -30 -56.5 -54.5t-15.5 -54.5q0 -41 28 -66t74 -25z" />
    <glyph glyph-name="quotesingle" unicode="'" horiz-adv-x="201" 
d="M40 710h121l-15 -238h-91z" />
    <glyph glyph-name="parenleft" unicode="(" horiz-adv-x="340" 
d="M65 299q0 248 181 491l79 -59q-140 -198 -140 -432t140 -432l-79 -59q-181 243 -181 491z" />
    <glyph glyph-name="parenright" unicode=")" horiz-adv-x="340" 
d="M94 790q181 -243 181 -491t-181 -491l-79 59q140 198 140 432t-140 432z" />
    <glyph glyph-name="asterisk" unicode="*" horiz-adv-x="474" 
d="M376 386l-99 66l8 -118h-96l8 118l-99 -66l-48 84l106 52l-106 52l48 84l99 -66l-8 118h96l-8 -118l99 66l48 -84l-106 -52l106 -52z" />
    <glyph glyph-name="plus" unicode="+" horiz-adv-x="530" 
d="M65 271v110h143v151h114v-151h143v-110h-143v-151h-114v151h-143z" />
    <glyph glyph-name="comma" unicode="," horiz-adv-x="239" 
d="M25 -119l40 238h129l-78 -238h-91z" />
    <glyph glyph-name="hyphen" unicode="-" horiz-adv-x="420" 
d="M70 229v112h280v-112h-280z" />
    <glyph glyph-name="period" unicode="." horiz-adv-x="250" 
d="M50 66q0 31 22 53t53 22t53 -22t22 -53t-22 -53.5t-53 -22.5t-53 22.5t-22 53.5z" />
    <glyph glyph-name="slash" unicode="/" horiz-adv-x="421" 
d="M0 -168l300 935h121l-300 -935h-121z" />
    <glyph glyph-name="zero" unicode="0" horiz-adv-x="642" 
d="M45 355q0 172 74.5 271t201.5 99t201.5 -99t74.5 -271t-74.5 -271t-201.5 -99t-201.5 99t-74.5 271zM179 355q0 -118 37.5 -184.5t104.5 -66.5q68 0 105 66.5t37 184.5t-37.5 184.5t-104.5 66.5q-68 0 -105 -66.5t-37 -184.5z" />
    <glyph glyph-name="one" unicode="1" horiz-adv-x="360" 
d="M280 0h-130v492h-140v80q140 16 170 138h100v-710z" />
    <glyph glyph-name="two" unicode="2" horiz-adv-x="527" 
d="M492 0h-460v90l171 173q80 81 114.5 134t34.5 107q0 46 -27.5 74t-75.5 28q-50 0 -76 -29t-26 -80q0 -24 4 -48l-125 3q-3 24 -3 46q0 103 66.5 165t161.5 62q105 0 169 -62t64 -159q0 -77 -44 -143t-140 -162l-80 -80h272v-119z" />
    <glyph glyph-name="three" unicode="3" horiz-adv-x="539" 
d="M264 -15q-86 0 -159.5 52.5t-94.5 158.5l126 28q29 -120 126 -120q50 0 82 29t32 76q0 48 -31 77t-97 29h-50v99h50q60 0 86.5 28t26.5 74q0 39 -25.5 64.5t-67.5 25.5q-96 0 -111 -121l-121 14q11 113 79 169.5t157 56.5q91 0 155.5 -58.5t64.5 -141.5q0 -95 -79 -152
q45 -25 70.5 -68t25.5 -97q0 -96 -69.5 -159.5t-175.5 -63.5z" />
    <glyph glyph-name="four" unicode="4" horiz-adv-x="551" 
d="M145 264h175v259zM541 145h-95v-145h-126v145h-310v107l310 458h126v-446h95v-119z" />
    <glyph glyph-name="five" unicode="5" horiz-adv-x="582" 
d="M295 -15q-98 0 -165 53.5t-90 142.5l123 35q13 -49 50.5 -80.5t81.5 -31.5q49 0 83.5 36.5t34.5 91.5q0 57 -34 93t-91 36q-45 0 -79.5 -23t-46.5 -58l-109 21l45 409h403v-119h-291l-18 -144q56 33 121 33q103 0 168.5 -70t65.5 -178q0 -110 -70 -178.5t-182 -68.5z" />
    <glyph glyph-name="six" unicode="6" horiz-adv-x="581" 
d="M298 -15q-105 0 -179 74t-74 195q0 67 23 138.5t60 132t72 105.5t70 80h182q-70 -55 -131 -126t-92 -135q47 28 99 28q89 0 156 -66t67 -172q0 -111 -73 -182.5t-180 -71.5zM178 231q0 -57 32.5 -92t87.5 -35q54 0 87 35.5t33 91.5q0 57 -32.5 92t-87.5 35t-87.5 -35
t-32.5 -92z" />
    <glyph glyph-name="seven" unicode="7" horiz-adv-x="477" 
d="M0 591v119h457v-65l-228 -645h-150l226 591h-305z" />
    <glyph glyph-name="eight" unicode="8" horiz-adv-x="562" 
d="M281 -15q-106 0 -178.5 64t-72.5 161q0 114 101 173q-75 51 -75 142q0 84 64 142t161 58t161 -58t64 -142q0 -91 -75 -142q101 -59 101 -173q0 -97 -72.5 -161t-178.5 -64zM185 515q0 -42 26.5 -67.5t69.5 -25.5t69.5 25.5t26.5 67.5t-26.5 67.5t-69.5 25.5t-69.5 -25.5
t-26.5 -67.5zM160 215q0 -48 33 -79.5t88 -31.5t88 31.5t33 79.5t-33 79.5t-88 31.5t-88 -31.5t-33 -79.5z" />
    <glyph glyph-name="nine" unicode="9" horiz-adv-x="581" 
d="M311 0h-182q70 55 131 126t92 135q-47 -28 -99 -28q-89 0 -156 66t-67 172q0 111 73 182.5t180 71.5q105 0 179 -74t74 -195q0 -67 -23 -138.5t-60 -132t-72 -105.5t-70 -80zM163 479q0 -57 32.5 -92t87.5 -35t87.5 35t32.5 92t-32.5 92t-87.5 35q-54 0 -87 -35.5
t-33 -91.5z" />
    <glyph glyph-name="colon" unicode=":" horiz-adv-x="260" 
d="M55 66q0 31 22 53t53 22t53 -22t22 -53t-22 -53.5t-53 -22.5t-53 22.5t-22 53.5zM55 440q0 31 22 53t53 22t53 -22t22 -53t-22 -53.5t-53 -22.5t-53 22.5t-22 53.5z" />
    <glyph glyph-name="semicolon" unicode=";" horiz-adv-x="260" 
d="M25 -119l40 238h129l-78 -238h-91zM55 440q0 31 22 53t53 22t53 -22t22 -53t-22 -53.5t-53 -22.5t-53 22.5t-22 53.5z" />
    <glyph glyph-name="less" unicode="&#x3c;" horiz-adv-x="530" 
d="M460 562v-128l-250 -105l250 -105v-132l-395 185v100z" />
    <glyph glyph-name="equal" unicode="=" horiz-adv-x="530" 
d="M65 359v110h400v-110h-400zM65 184v110h400v-110h-400z" />
    <glyph glyph-name="greater" unicode="&#x3e;" horiz-adv-x="530" 
d="M70 92v128l250 105l-250 105v132l395 -185v-100z" />
    <glyph glyph-name="question" unicode="?" horiz-adv-x="552" 
d="M45 549q23 76 85.5 126t155.5 50q92 0 154 -56t62 -136q0 -33 -8 -60.5t-25.5 -51t-30.5 -36.5t-37 -34q-28 -24 -40.5 -36t-26.5 -34t-15 -45l-1 -19h-112v24q0 45 16 81t32.5 53t45.5 41q25 20 36 30.5t22.5 31t11.5 42.5q0 38 -26 62t-68 24q-87 0 -124 -99zM187 66
q0 31 22 53t53 22t53 -22t22 -53t-22 -53.5t-53 -22.5t-53 22.5t-22 53.5z" />
    <glyph glyph-name="at" unicode="@" horiz-adv-x="1049" 
d="M543 -225q-133 0 -242 56.5t-175 165t-66 249.5q0 202 139 340.5t336 138.5q124 0 227 -55t165 -161t62 -243q0 -133 -55.5 -215.5t-154.5 -82.5q-57 0 -98 28.5t-59 77.5q-53 -61 -140 -61q-92 0 -150.5 67t-58.5 173q0 104 59.5 171.5t152.5 67.5q74 0 122 -45v30h122
v-323q0 -83 61 -83q93 0 93 195q0 166 -99.5 264.5t-248.5 98.5q-157 0 -261.5 -110.5t-104.5 -272.5q0 -178 105.5 -276.5t268.5 -98.5q93 0 161 15l12 -93q-83 -18 -173 -18zM396 253q0 -60 31 -97.5t79 -37.5t79 37.5t31 97.5q0 58 -31 95.5t-79 37.5t-79 -37t-31 -96z
" />
    <glyph glyph-name="A" unicode="A" horiz-adv-x="644" 
d="M413 257l-94 292l-92 -292h186zM495 0l-45 141h-260l-45 -141h-135l240 710h144l240 -710h-139z" />
    <glyph glyph-name="B" unicode="B" horiz-adv-x="636" 
d="M352 592h-152v-171h152q42 0 67 24.5t25 62.5q0 39 -24 61.5t-68 22.5zM370 311h-170v-191h167q49 0 75.5 25.5t26.5 68.5q0 42 -25.5 69.5t-73.5 27.5zM70 0v710h300q93 0 147.5 -56t54.5 -135q0 -88 -75 -143q104 -59 104 -177q0 -83 -63 -141t-172 -58h-296z" />
    <glyph glyph-name="C" unicode="C" horiz-adv-x="681" 
d="M40 356q0 164 94.5 266.5t247.5 102.5q174 0 274 -145l-102 -77q-67 103 -173 103q-93 0 -150 -69.5t-57 -180.5q0 -112 57 -182t150 -70q108 0 178 105l102 -77q-104 -147 -279 -147q-153 0 -247.5 103.5t-94.5 267.5z" />
    <glyph glyph-name="D" unicode="D" horiz-adv-x="686" 
d="M305 590h-105v-470h105q103 0 156 61t53 174q0 111 -53 173t-156 62zM70 0v710h231q166 0 255.5 -93.5t89.5 -261.5t-89.5 -261.5t-255.5 -93.5h-231z" />
    <glyph glyph-name="E" unicode="E" horiz-adv-x="590" 
d="M70 0v710h463v-120h-333v-172h306v-116h-306v-182h340v-120h-470z" />
    <glyph glyph-name="F" unicode="F" horiz-adv-x="560" 
d="M503 288h-303v-288h-130v710h460v-120h-330v-186h303v-116z" />
    <glyph glyph-name="G" unicode="G" horiz-adv-x="709" 
d="M664 102q-48 -52 -125.5 -84.5t-159.5 -32.5q-151 0 -245 103.5t-94 267.5t94.5 266.5t247.5 102.5q174 0 274 -145l-102 -77q-68 103 -174 103q-93 0 -149.5 -69t-56.5 -181t57 -183t151 -71q92 0 156 45v121h-167v118h293v-284z" />
    <glyph glyph-name="H" unicode="H" horiz-adv-x="706" 
d="M70 0v710h130v-283h306v283h130v-710h-130v308h-306v-308h-130z" />
    <glyph glyph-name="I" unicode="I" horiz-adv-x="270" 
d="M70 0v710h130v-710h-130z" />
    <glyph glyph-name="J" unicode="J" horiz-adv-x="365" 
d="M0 -4l13 115q42 -7 67 -7q49 0 72 24.5t23 75.5v506h130v-509q0 -102 -51.5 -159t-159.5 -57q-39 0 -94 11z" />
    <glyph glyph-name="K" unicode="K" horiz-adv-x="620" 
d="M460 0l-260 328v-328h-130v710h130v-302l246 302h154l-281 -336l301 -374h-160z" />
    <glyph glyph-name="L" unicode="L" horiz-adv-x="515" 
d="M70 0v710h130v-590h295v-120h-425z" />
    <glyph glyph-name="M" unicode="M" horiz-adv-x="796" 
d="M371 62l-175 377v-439h-126v710h129l203 -429l195 429h129v-710h-126v439l-175 -377h-54z" />
    <glyph glyph-name="N" unicode="N" horiz-adv-x="705" 
d="M534 0l-337 464v-464h-127v710h104l335 -455v455h126v-710h-101z" />
    <glyph glyph-name="O" unicode="O" horiz-adv-x="763" 
d="M40 355q0 163 95 266.5t247 103.5q151 0 246 -103t95 -267t-95 -267t-246 -103q-152 0 -247 103t-95 267zM174 355q0 -112 57 -181.5t151 -69.5q93 0 150 69.5t57 181.5t-57 181.5t-150 69.5q-94 0 -151 -70t-57 -181z" />
    <glyph glyph-name="P" unicode="P" horiz-adv-x="612" 
d="M344 590h-144v-212h147q52 0 77.5 30t25.5 76q0 47 -26.5 76.5t-79.5 29.5zM367 258h-167v-258h-130v710h294q99 0 158.5 -65t59.5 -161q0 -97 -58.5 -161.5t-156.5 -64.5z" />
    <glyph glyph-name="Q" unicode="Q" horiz-adv-x="763" 
d="M661 -60l-100 93q-79 -48 -179 -48q-152 0 -247 103t-95 267q0 163 95 266.5t247 103.5q151 0 246 -103t95 -267q0 -135 -66 -231l98 -84zM174 355q0 -112 57 -181.5t151 -69.5q93 0 150 69.5t57 181.5t-57 181.5t-150 69.5q-94 0 -151 -70t-57 -181z" />
    <glyph glyph-name="R" unicode="R" horiz-adv-x="637" 
d="M358 590h-158v-197h161q49 0 76.5 28.5t27.5 70.5q0 43 -28.5 70.5t-78.5 27.5zM328 282h-128v-282h-130v710h292q109 0 172 -60.5t63 -147.5q0 -57 -29 -103t-82 -75q63 -43 75 -125l10 -70q9 -67 46 -129h-138q-30 44 -40 116l-11 74q-7 46 -28 69t-72 23z" />
    <glyph glyph-name="S" unicode="S" horiz-adv-x="604" 
d="M17 141l101 77q75 -115 197 -115q56 0 87.5 23t31.5 62q0 31 -22 54.5t-82 46.5l-116 46q-149 58 -149 191q0 84 66 141.5t178 57.5q150 0 238 -109l-89 -85q-26 33 -68 55t-88 22q-52 0 -81.5 -21.5t-29.5 -52.5q0 -29 20 -48t69 -39l109 -44q177 -71 177 -209
q0 -89 -69 -149t-187 -60q-189 0 -293 156z" />
    <glyph glyph-name="T" unicode="T" horiz-adv-x="570" 
d="M555 591h-205v-591h-130v591h-205v119h540v-119z" />
    <glyph glyph-name="U" unicode="U" horiz-adv-x="690" 
d="M60 278v432h130v-440q0 -82 41.5 -124t113.5 -42t113.5 42t41.5 124v440h130v-432q0 -142 -75 -217.5t-210 -75.5t-210 75.5t-75 217.5z" />
    <glyph glyph-name="V" unicode="V" horiz-adv-x="632" 
d="M388 0h-144l-234 710h139l170 -547l168 547h135z" />
    <glyph glyph-name="W" unicode="W" horiz-adv-x="850" 
d="M536 0l-114 392l-108 -392h-148l-156 710h135l104 -532l141 502h72l143 -502l104 532h131l-156 -710h-148z" />
    <glyph glyph-name="X" unicode="X" horiz-adv-x="607" 
d="M453 0l-159 264l-146 -264h-148l225 380l-199 330h154l128 -214l119 214h148l-196 -330l228 -380h-154z" />
    <glyph glyph-name="Y" unicode="Y" horiz-adv-x="581" 
d="M358 0h-130v285l-238 425h150l158 -297l151 297h142l-233 -425v-285z" />
    <glyph glyph-name="Z" unicode="Z" horiz-adv-x="573" 
d="M543 0h-513v84l333 507h-313v119h489v-81l-334 -510h338v-119z" />
    <glyph glyph-name="bracketleft" unicode="[" horiz-adv-x="280" 
d="M70 -192v982h210v-107h-95v-768h95v-107h-210z" />
    <glyph glyph-name="backslash" unicode="\" horiz-adv-x="421" 
d="M0 767h121l300 -935h-121z" />
    <glyph glyph-name="bracketright" unicode="]" horiz-adv-x="280" 
d="M0 -192v107h95v768h-95v107h210v-982h-210z" />
    <glyph glyph-name="asciicircum" unicode="^" horiz-adv-x="691" 
d="M50 281l258 429h75l258 -429h-132l-166 291l-163 -291h-130z" />
    <glyph glyph-name="underscore" unicode="_" horiz-adv-x="480" 
d="M0 -112v112h480v-112h-480z" />
    <glyph glyph-name="grave" unicode="`" horiz-adv-x="177" 
d="M0 725h135l42 -139h-102z" />
    <glyph glyph-name="a" unicode="a" horiz-adv-x="528" 
d="M226 85q45 0 84 33.5t39 86.5v26q-58 -2 -98.5 -11.5t-59 -24.5t-26 -28t-7.5 -27q0 -27 19 -41t49 -14zM355 0v54q-28 -29 -72 -49t-92 -20q-66 0 -113.5 38t-47.5 107q0 92 89 141t230 53v10q0 37 -25.5 57.5t-65.5 20.5q-70 0 -126 -63l-84 70q35 46 91 73.5t124 27.5
q210 0 210 -209v-311h-118z" />
    <glyph glyph-name="b" unicode="b" horiz-adv-x="607" 
d="M337 -15q-98 0 -154 69v-54h-118v710h126v-251q56 61 149 61q104 0 170.5 -75t66.5 -193q0 -117 -67 -192t-173 -75zM182 252q0 -68 38 -112.5t96 -44.5t95.5 43.5t37.5 113.5q0 71 -37.5 115.5t-95.5 44.5q-59 0 -96.5 -44.5t-37.5 -115.5z" />
    <glyph glyph-name="c" unicode="c" horiz-adv-x="508" 
d="M30 253q0 117 71.5 192t181.5 75q130 0 205 -116l-98 -58q-43 64 -109 64q-56 0 -89.5 -43t-33.5 -114t33.5 -114.5t89.5 -43.5q68 0 114 64l98 -58q-80 -116 -210 -116q-110 0 -181.5 75t-71.5 193z" />
    <glyph glyph-name="d" unicode="d" horiz-adv-x="607" 
d="M158 253q0 -71 37.5 -115.5t95.5 -44.5q59 0 96.5 44.5t37.5 115.5q0 68 -38 112.5t-96 44.5t-95.5 -43.5t-37.5 -113.5zM424 0v55q-59 -70 -157 -70q-104 0 -170.5 75t-66.5 193q0 117 67 192t173 75q91 0 146 -60v250h126v-710h-118z" />
    <glyph glyph-name="e" unicode="e" horiz-adv-x="549" 
d="M280 415q-51 0 -82.5 -30.5t-40.5 -86.5h235q-15 117 -112 117zM501 106q-78 -121 -217 -121q-112 0 -183 75t-71 193q0 117 71 192t181 75q109 0 173 -74t64 -193v-41h-361q10 -54 44 -87t82 -33q70 0 119 72z" />
    <glyph glyph-name="f" unicode="f" horiz-adv-x="321" 
d="M311 407h-105v-407h-126v407h-70v98h70v35q0 83 43.5 134t135.5 51q33 0 72 -6l-9 -106q-26 4 -49 4q-34 0 -50.5 -17.5t-16.5 -57.5v-37h105v-98z" />
    <glyph glyph-name="g" unicode="g" horiz-adv-x="530" 
d="M174 333q0 -35 25.5 -59.5t63.5 -24.5q37 0 62.5 24.5t25.5 59.5t-25.5 60t-62.5 25q-38 0 -63.5 -24.5t-25.5 -60.5zM520 -58q0 -81 -71 -124t-184 -43q-115 0 -182.5 40t-67.5 109q0 62 56 107q-36 36 -36 82q0 65 66 104q-45 50 -45 118q0 79 60 132t146 53
q67 0 120 -33q48 66 135 57l-7 -97q-46 3 -66 -22q25 -41 25 -90q0 -78 -60 -130.5t-148 -52.5q-48 0 -90 17q-31 -13 -31 -37q0 -36 55 -36h125q87 0 143.5 -38.5t56.5 -115.5zM274 -131q120 0 120 67q0 53 -95 53h-128q-12 0 -18 1q-24 -23 -24 -48q0 -73 145 -73z" />
    <glyph glyph-name="h" unicode="h" horiz-adv-x="574" 
d="M191 284v-284h-126v710h126v-262q46 72 140 72q76 0 129.5 -50.5t53.5 -146.5v-323h-126v293q0 111 -93 111q-48 0 -76 -32.5t-28 -87.5z" />
    <glyph glyph-name="i" unicode="i" horiz-adv-x="256" 
d="M53 664q0 31 22 53t53 22t53 -22t22 -53t-22 -53.5t-53 -22.5t-53 22.5t-22 53.5zM65 0v505h126v-505h-126z" />
    <glyph glyph-name="j" unicode="j" horiz-adv-x="256" 
d="M53 664q0 31 22 53t53 22t53 -22t22 -53t-22 -53.5t-53 -22.5t-53 22.5t-22 53.5zM-46 -219l9 106q20 -4 38 -4q32 0 48 17.5t16 57.5v547h126v-545q0 -185 -176 -185q-28 0 -61 6z" />
    <glyph glyph-name="k" unicode="k" horiz-adv-x="510" 
d="M355 0l-164 214v-214h-126v710h126v-403l163 198h150l-207 -240l218 -265h-160z" />
    <glyph glyph-name="l" unicode="l" horiz-adv-x="256" 
d="M65 0v710h126v-710h-126z" />
    <glyph glyph-name="m" unicode="m" horiz-adv-x="849" 
d="M191 286v-286h-126v505h120v-56q52 71 139 71q45 0 82 -21.5t56 -58.5q19 40 57.5 60t81.5 20q75 0 131.5 -51t56.5 -146v-323h-126v301q0 100 -81 100q-44 0 -68 -28.5t-24 -75.5v-297h-126v301q0 100 -81 100q-44 0 -68 -29.5t-24 -85.5z" />
    <glyph glyph-name="n" unicode="n" horiz-adv-x="574" 
d="M191 284v-284h-126v505h120v-70q43 85 146 85q76 0 129.5 -50.5t53.5 -146.5v-323h-126v293q0 111 -93 111q-48 0 -76 -32.5t-28 -87.5z" />
    <glyph glyph-name="o" unicode="o" horiz-adv-x="572" 
d="M30 253q0 117 72 192t184 75t184 -75t72 -192q0 -118 -72 -193t-184 -75t-184 75t-72 193zM158 253q0 -71 35.5 -116t92.5 -45t92.5 45t35.5 116t-35.5 115.5t-92.5 44.5t-92.5 -44.5t-35.5 -115.5z" />
    <glyph glyph-name="p" unicode="p" horiz-adv-x="607" 
d="M182 252q0 -68 38 -112.5t96 -44.5t95.5 43.5t37.5 113.5q0 71 -37.5 115.5t-95.5 44.5q-59 0 -96.5 -44.5t-37.5 -115.5zM337 -15q-91 0 -146 60v-255h-126v715h118v-55q59 70 157 70q104 0 170.5 -75t66.5 -193q0 -117 -67 -192t-173 -75z" />
    <glyph glyph-name="q" unicode="q" horiz-adv-x="607" 
d="M542 -210h-126v256q-56 -61 -149 -61q-104 0 -170.5 75t-66.5 193q0 117 67 192t173 75q98 0 154 -69v54h118v-715zM158 253q0 -71 37.5 -115.5t95.5 -44.5q59 0 96.5 44.5t37.5 115.5q0 68 -38 112.5t-96 44.5t-95.5 -43.5t-37.5 -113.5z" />
    <glyph glyph-name="r" unicode="r" horiz-adv-x="356" 
d="M191 0h-126v505h120v-71q43 86 161 86l-5 -124q-77 -1 -113.5 -32t-36.5 -92v-272z" />
    <glyph glyph-name="s" unicode="s" horiz-adv-x="472" 
d="M25 102l89 65q57 -76 138 -76q34 0 53 12.5t19 33.5q0 36 -69 59l-70 24q-62 21 -94.5 61t-32.5 89q0 61 51.5 105.5t130.5 44.5q60 0 109.5 -26.5t76.5 -62.5l-84 -70q-40 53 -99 53q-28 0 -45 -12.5t-17 -31.5q0 -33 47 -48l78 -25q141 -46 141 -156q0 -68 -54 -112
t-141 -44q-148 0 -227 117z" />
    <glyph glyph-name="t" unicode="t" horiz-adv-x="352" 
d="M331 -9q-36 -6 -67 -6q-92 0 -135.5 51t-43.5 134v237h-75v98h75v165h126v-165h121v-98h-121v-239q0 -40 16.5 -57.5t50.5 -17.5q20 0 44 4z" />
    <glyph glyph-name="u" unicode="u" horiz-adv-x="559" 
d="M379 0v61q-45 -76 -143 -76q-78 0 -132 50.5t-54 146.5v323h126v-293q0 -111 93 -111q48 0 76 32.5t28 87.5v284h126v-505h-120z" />
    <glyph glyph-name="v" unicode="v" horiz-adv-x="500" 
d="M316 0h-132l-184 505h137l116 -361l116 361h131z" />
    <glyph glyph-name="w" unicode="w" horiz-adv-x="688" 
d="M423 0l-79 252l-79 -252h-132l-128 505h131l78 -360l87 335h86l92 -336l80 361h124l-128 -505h-132z" />
    <glyph glyph-name="x" unicode="x" horiz-adv-x="494" 
d="M347 0l-109 166l-104 -166h-134l173 265l-157 240h148l91 -140l88 140h135l-157 -240l173 -265h-147z" />
    <glyph glyph-name="y" unicode="y" horiz-adv-x="500" 
d="M244 -210h-126l76 207l-194 508h137l116 -361l116 361h131z" />
    <glyph glyph-name="z" unicode="z" horiz-adv-x="454" 
d="M430 0h-410v62l246 345h-224v98h392v-62l-245 -345h241v-98z" />
    <glyph glyph-name="braceleft" unicode="{" horiz-adv-x="318" 
d="M60 259v80q60 12 60 78q0 38 -5.5 108.5t-5.5 113.5q0 131 161 169l28 -92q-43 -15 -57.5 -36.5t-14.5 -62.5v-199q0 -46 -14 -73.5t-47 -45.5q33 -18 47 -45.5t14 -73.5v-199q0 -41 14.5 -62.5t57.5 -36.5l-28 -92q-161 38 -161 169q0 43 5.5 113.5t5.5 108.5
q0 66 -60 78z" />
    <glyph glyph-name="bar" unicode="|" horiz-adv-x="255" 
d="M70 -168v935h115v-935h-115z" />
    <glyph glyph-name="braceright" unicode="}" horiz-adv-x="318" 
d="M258 339v-80q-60 -12 -60 -78q0 -38 5.5 -108.5t5.5 -113.5q0 -131 -161 -169l-28 92q43 15 57.5 36.5t14.5 62.5v199q0 46 14 73.5t47 45.5q-33 18 -47 45.5t-14 73.5v199q0 41 -14.5 62.5t-57.5 36.5l28 92q161 -38 161 -169q0 -43 -5.5 -113.5t-5.5 -108.5
q0 -66 60 -78z" />
    <glyph glyph-name="asciitilde" unicode="~" horiz-adv-x="710" 
d="M70 261q2 85 48 137t124 52q46 0 87.5 -22t76 -43.5t63.5 -21.5t45.5 18.5t16.5 53.5h109q-2 -85 -48 -137t-124 -52q-46 0 -87.5 22t-76 43.5t-63.5 21.5q-28 0 -45 -18.5t-17 -53.5h-109z" />
    <glyph glyph-name="uni00A0" unicode="&#xa0;" horiz-adv-x="210" 
 />
    <glyph glyph-name="exclamdown" unicode="&#xa1;" horiz-adv-x="280" 
d="M65 439q0 31 22 53.5t53 22.5t53 -22.5t22 -53.5t-22 -53t-53 -22t-53 22t-22 53zM75 -210v210l14 288h102l14 -288v-210h-130z" />
    <glyph glyph-name="cent" unicode="&#xa2;" horiz-adv-x="508" 
d="M493 101q-63 -90 -154 -110v-136h-115v136q-87 20 -140.5 90.5t-53.5 171.5q0 100 53.5 170.5t140.5 90.5v136h115v-136q90 -20 149 -110l-98 -58q-43 64 -109 64q-56 0 -89.5 -43t-33.5 -114t33.5 -114.5t89.5 -43.5q68 0 114 64z" />
    <glyph glyph-name="sterling" unicode="&#xa3;" horiz-adv-x="560" 
d="M525 119v-119h-480v90q42 34 58 65t18 86h-71v108h57q-3 10 -15.5 41.5t-18 56.5t-5.5 57q0 95 64 158t166 63q92 0 154 -55.5t67 -152.5l-122 -10q0 46 -24 72.5t-72 26.5q-47 0 -74 -29.5t-27 -81.5q0 -24 4.5 -47t13.5 -53.5t13 -45.5h159v-108h-150q-6 -70 -42 -122
h327z" />
    <glyph glyph-name="currency" unicode="&#xa4;" horiz-adv-x="594" 
d="M499 40l-100 100q-48 -27 -102 -27t-102 27l-100 -100l-80 80l99 98q-30 51 -30 109t30 109l-99 98l80 80l100 -100q48 27 102 27t102 -27l100 100l80 -80l-99 -98q30 -51 30 -109t-30 -109l99 -98zM199 327q0 -44 28.5 -74t69.5 -30t69.5 30t28.5 74t-28.5 74t-69.5 30
t-69.5 -30t-28.5 -74z" />
    <glyph glyph-name="yen" unicode="&#xa5;" horiz-adv-x="581" 
d="M518 118h-160v-118h-130v118h-160v108h160v57h-160v108h119l-197 319h153l155 -257l148 257h145l-193 -319h120v-108h-160v-57h160v-108z" />
    <glyph glyph-name="brokenbar" unicode="&#xa6;" horiz-adv-x="255" 
d="M70 409v358h115v-358h-115zM70 -168v358h115v-358h-115z" />
    <glyph glyph-name="section" unicode="&#xa7;" horiz-adv-x="621" 
d="M379 163q16 -5 44 -19q26 24 26 64q0 35 -25 62t-94 49l-106 36q-2 1 -6 2.5t-6 1.5q-46 -23 -46 -70q0 -31 25 -51t89 -41zM305 -225q-166 0 -258 136l101 77q61 -95 162 -95q49 0 76.5 18.5t27.5 48.5q0 28 -19.5 49t-74.5 40l-121 42q-159 56 -159 175q0 90 95 144
q-50 51 -50 126q0 78 62 133.5t167 55.5q135 0 213 -94l-89 -85q-22 27 -57 44.5t-74 17.5q-45 0 -70.5 -18.5t-25.5 -45.5t17.5 -44t61.5 -33l114 -40q177 -62 177 -193q0 -89 -85 -145q50 -54 50 -127q0 -78 -65 -132.5t-176 -54.5z" />
    <glyph glyph-name="dieresis" unicode="&#xa8;" horiz-adv-x="330" 
d="M198 660q0 28 19 46.5t47 18.5t47 -18.5t19 -46.5q0 -27 -19.5 -48t-46.5 -21t-46.5 21t-19.5 48zM0 658q0 28 19 47.5t47 19.5t47.5 -19.5t19.5 -47.5q0 -27 -19.5 -47t-47.5 -20q-27 0 -46.5 20t-19.5 47z" />
    <glyph glyph-name="copyright" unicode="&#xa9;" horiz-adv-x="860" 
d="M60 355q0 157 107 263.5t263 106.5t263 -106.5t107 -263.5t-107 -263.5t-263 -106.5t-263 106.5t-107 263.5zM160 355q0 -117 77 -196t193 -79t193 79t77 196t-77 196t-193 79t-193 -79t-77 -196zM248 357q0 89 54.5 146t138.5 57q99 0 156 -88l-75 -44q-33 49 -83 49
q-43 0 -68.5 -33t-25.5 -87q0 -55 25.5 -88t68.5 -33q51 0 87 49l75 -44q-62 -88 -160 -88q-84 0 -138.5 57t-54.5 147z" />
    <glyph glyph-name="ordfeminine" unicode="&#xaa;" horiz-adv-x="343" 
d="M145 445q27 0 50.5 21t23.5 54q-103 -4 -103 -47q0 -13 8.5 -20.5t20.5 -7.5zM223 382v29q-43 -41 -97 -41q-43 0 -73.5 25.5t-30.5 66.5q0 57 53.5 89t143.5 35v4q0 50 -54 50q-45 0 -85 -30l-48 65q58 47 143 47q69 0 103.5 -35t34.5 -113v-192h-90z" />
    <glyph glyph-name="guillemotleft" unicode="&#xab;" horiz-adv-x="608" 
d="M309 242v75l239 188v-130l-131 -93l131 -96v-132zM40 242v75l239 188v-130l-131 -93l131 -96v-132z" />
    <glyph glyph-name="logicalnot" unicode="&#xac;" horiz-adv-x="530" 
d="M465 120h-115v152h-285v110h400v-262z" />
    <glyph glyph-name="uni00AD" unicode="&#xad;" horiz-adv-x="420" 
d="M70 229v112h280v-112h-280z" />
    <glyph glyph-name="registered" unicode="&#xae;" horiz-adv-x="602" 
d="M45 469q0 106 75.5 181t180.5 75t180.5 -75t75.5 -181q0 -105 -75.5 -180t-180.5 -75t-180.5 75t-75.5 180zM111 469q0 -78 56 -135t134 -57t134 57t56 135q0 79 -56 136t-134 57t-134 -57t-56 -136zM306 546h-41v-57h42q34 0 34 29q0 12 -9 20t-26 8zM291 436h-26v-93
h-63v261h106q45 0 71 -23.5t26 -57.5q0 -45 -41 -67q18 -16 25 -47l5 -23q5 -27 21 -43h-67q-13 16 -17 37l-4 21q-7 35 -36 35z" />
    <glyph glyph-name="macron" unicode="&#xaf;" horiz-adv-x="260" 
d="M0 613v97h260v-97h-260z" />
    <glyph glyph-name="degree" unicode="&#xb0;" horiz-adv-x="386" 
d="M35 592q0 65 46.5 110t111.5 45t111.5 -45t46.5 -110q0 -66 -46.5 -110.5t-111.5 -44.5q-66 0 -112 45t-46 110zM125 592q0 -29 20 -49t48 -20t48 20t20 49t-20 49t-48 20t-48 -20t-20 -49z" />
    <glyph glyph-name="plusminus" unicode="&#xb1;" horiz-adv-x="530" 
d="M465 110h-400v110h143v102h-143v110h143v121h114v-121h143v-110h-143v-102h143v-110z" />
    <glyph glyph-name="twosuperior" unicode="&#xb2;" horiz-adv-x="324" 
d="M296 362h-273v59l119 98q32 28 43.5 43t11.5 32q0 18 -11 31t-29 13q-20 0 -31.5 -15t-11.5 -35q0 -14 3 -27l-88 2q-2 20 -2 31q0 59 38.5 93.5t95.5 34.5q59 0 95.5 -34t36.5 -87q0 -58 -68 -112l-51 -43h122v-84z" />
    <glyph glyph-name="threesuperior" unicode="&#xb3;" horiz-adv-x="328" 
d="M160 350q-54 0 -94.5 24t-55.5 74l89 22q13 -37 58 -37q48 0 48 38q0 33 -51 33h-28v65h26q21 0 32.5 10t11.5 25q0 14 -11 24t-29 10q-37 0 -45 -38l-89 12q10 54 50 82t91 28q55 0 92 -29.5t37 -69.5q0 -54 -51 -79q30 -12 46 -35.5t16 -49.5q0 -47 -39 -78t-104 -31z
" />
    <glyph glyph-name="acute" unicode="&#xb4;" horiz-adv-x="177" 
d="M0 586l42 139h135l-75 -139h-102z" />
    <glyph glyph-name="uni00B5" unicode="&#xb5;" horiz-adv-x="587" 
d="M262 -15q-56 0 -90 33l9 -228h-116v715h116v-288q0 -111 93 -111q48 0 76 32.5t28 87.5v279h116v-362q0 -55 50 -55q18 0 34 3l9 -101q-27 -5 -55 -5q-107 0 -140 77q-42 -77 -130 -77z" />
    <glyph glyph-name="paragraph" unicode="&#xb6;" horiz-adv-x="625" 
d="M445 0v710h110v-710h-110zM385 0h-110v298h-30q-98 0 -156.5 59t-58.5 147t59.5 147t158.5 59h137v-710z" />
    <glyph glyph-name="periodcentered" unicode="&#xb7;" horiz-adv-x="250" 
d="M50 276q0 31 22 53t53 22t53 -22t22 -53t-22 -53.5t-53 -22.5t-53 22.5t-22 53.5z" />
    <glyph glyph-name="cedilla" unicode="&#xb8;" horiz-adv-x="185" 
d="M81 -225q-47 0 -81 20l28 56q24 -13 49 -13q31 0 31 24q0 12 -8.5 19t-22.5 7q-19 0 -35 -6l-31 31l53 100h70l-36 -66q38 -2 62.5 -24.5t24.5 -61.5q0 -40 -27 -63t-77 -23z" />
    <glyph glyph-name="onesuperior" unicode="&#xb9;" horiz-adv-x="222" 
d="M172 362h-97v221h-60v57q71 9 87 70h70v-348z" />
    <glyph glyph-name="ordmasculine" unicode="&#xba;" horiz-adv-x="384" 
d="M22 546q0 77 48 126.5t122 49.5t122 -49.5t48 -126.5q0 -78 -48 -127t-122 -49t-122 49t-48 127zM120 546q0 -43 20 -69.5t52 -26.5t52.5 26.5t20.5 69.5q0 42 -20.5 68.5t-52.5 26.5t-52 -26.5t-20 -68.5z" />
    <glyph glyph-name="guillemotright" unicode="&#xbb;" horiz-adv-x="608" 
d="M299 317v-75l-239 -188v130l131 93l-131 96v132zM568 317v-75l-239 -188v130l131 93l-131 96v132z" />
    <glyph glyph-name="onequarter" unicode="&#xbc;" horiz-adv-x="690" 
d="M172 362h-97v221h-60v57q71 9 87 70h70v-348zM491 135h55v88zM680 60h-44v-60h-90v60h-148v59l151 229h87v-213h44v-75zM52 0l453 710h123l-452 -710h-124z" />
    <glyph glyph-name="onehalf" unicode="&#xbd;" horiz-adv-x="732" 
d="M172 362h-97v221h-60v57q71 9 87 70h70v-348zM704 0h-273v59l119 98q32 28 43.5 43t11.5 32q0 18 -11 31t-29 13q-20 0 -31.5 -15t-11.5 -35q0 -14 3 -27l-88 2q-2 20 -2 31q0 59 38.5 93.5t95.5 34.5q59 0 95.5 -34t36.5 -87q0 -58 -68 -112l-51 -43h122v-84zM52 0
l453 710h123l-452 -710h-124z" />
    <glyph glyph-name="threequarters" unicode="&#xbe;" horiz-adv-x="746" 
d="M160 350q-54 0 -94.5 24t-55.5 74l89 22q13 -37 58 -37q48 0 48 38q0 33 -51 33h-28v65h26q21 0 32.5 10t11.5 25q0 14 -11 24t-29 10q-37 0 -45 -38l-89 12q10 54 50 82t91 28q55 0 92 -29.5t37 -69.5q0 -54 -51 -79q30 -12 46 -35.5t16 -49.5q0 -47 -39 -78t-104 -31z
M547 135h55v88zM736 60h-44v-60h-90v60h-148v59l151 229h87v-213h44v-75zM108 0l453 710h123l-452 -710h-124z" />
    <glyph glyph-name="questiondown" unicode="&#xbf;" horiz-adv-x="552" 
d="M365 434q0 -31 -22 -53t-53 -22t-53 22t-22 53t22 53.5t53 22.5t53 -22.5t22 -53.5zM507 -49q-23 -76 -85.5 -126t-155.5 -50q-92 0 -154 56t-62 136q0 33 8 60.5t25.5 51t30.5 36.5t37 34q28 24 40.5 36t26.5 34t15 45l1 19h112v-24q0 -45 -16 -81t-32.5 -53t-45.5 -41
q-25 -20 -36 -30.5t-22.5 -31t-11.5 -42.5q0 -38 26 -62t68 -24q87 0 124 99z" />
    <glyph glyph-name="Agrave" unicode="&#xc0;" horiz-adv-x="644" 
d="M413 257l-94 292l-92 -292h186zM495 0l-45 141h-260l-45 -141h-135l240 710h144l240 -710h-139zM202 930h135l42 -139h-102z" />
    <glyph glyph-name="Aacute" unicode="&#xc1;" horiz-adv-x="644" 
d="M413 257l-94 292l-92 -292h186zM495 0l-45 141h-260l-45 -141h-135l240 710h144l240 -710h-139zM267 791l42 139h135l-75 -139h-102z" />
    <glyph glyph-name="Acircumflex" unicode="&#xc2;" horiz-adv-x="644" 
d="M413 257l-94 292l-92 -292h186zM495 0l-45 141h-260l-45 -141h-135l240 710h144l240 -710h-139zM172 791l91 139h119l91 -139h-102l-48 54l-49 -54h-102z" />
    <glyph glyph-name="Atilde" unicode="&#xc3;" horiz-adv-x="644" 
d="M413 257l-94 292l-92 -292h186zM495 0l-45 141h-260l-45 -141h-135l240 710h144l240 -710h-139zM161 806q1 58 33 91t77 33q40 0 75.5 -26t49.5 -26q13 0 22 10t9 27h79q-1 -58 -33 -91t-77 -33q-40 0 -75.5 26t-49.5 26q-13 0 -22 -10t-9 -27h-79z" />
    <glyph glyph-name="Adieresis" unicode="&#xc4;" horiz-adv-x="644" 
d="M413 257l-94 292l-92 -292h186zM495 0l-45 141h-260l-45 -141h-135l240 710h144l240 -710h-139zM356 865q0 28 19 46.5t47 18.5t47 -18.5t19 -46.5q0 -27 -19.5 -48t-46.5 -21t-46.5 21t-19.5 48zM158 863q0 28 19 47.5t47 19.5t47.5 -19.5t19.5 -47.5q0 -27 -19.5 -47
t-47.5 -20q-27 0 -46.5 20t-19.5 47z" />
    <glyph glyph-name="Aring" unicode="&#xc5;" horiz-adv-x="644" 
d="M413 257l-94 292l-92 -292h186zM495 0l-45 141h-260l-45 -141h-135l240 710h144l240 -710h-139zM213 878q0 44 32 74t78 30q45 0 77.5 -30t32.5 -74t-32 -74t-78 -30q-45 0 -77.5 30t-32.5 74zM285 878q0 -16 11 -27t27 -11t27 11t11 27t-11 27t-27 11t-27 -11t-11 -27z
" />
    <glyph glyph-name="AE" unicode="&#xc6;" horiz-adv-x="940" 
d="M440 267v312l-154 -312h154zM440 0v151h-211l-75 -151h-144l366 710h507v-120h-313v-172h286v-116h-286v-182h320v-120h-450z" />
    <glyph glyph-name="Ccedilla" unicode="&#xc7;" horiz-adv-x="681" 
d="M364 -225q-47 0 -81 20l28 56q24 -13 49 -13q31 0 31 24q0 12 -8.5 19t-22.5 7q-18 0 -35 -6l-31 31l40 75q-133 16 -213.5 117t-80.5 251q0 164 94.5 266.5t247.5 102.5q174 0 274 -145l-102 -77q-67 103 -173 103q-93 0 -150 -69.5t-57 -180.5q0 -112 57 -182t150 -70
q108 0 178 105l102 -77q-98 -137 -259 -146l-21 -39q38 -2 62.5 -24.5t24.5 -61.5q0 -40 -27 -63t-77 -23z" />
    <glyph glyph-name="Egrave" unicode="&#xc8;" horiz-adv-x="590" 
d="M70 0v710h463v-120h-333v-172h306v-116h-306v-182h340v-120h-470zM175 930h135l42 -139h-102z" />
    <glyph glyph-name="Eacute" unicode="&#xc9;" horiz-adv-x="590" 
d="M70 0v710h463v-120h-333v-172h306v-116h-306v-182h340v-120h-470zM240 791l42 139h135l-75 -139h-102z" />
    <glyph glyph-name="Ecircumflex" unicode="&#xca;" horiz-adv-x="590" 
d="M70 0v710h463v-120h-333v-172h306v-116h-306v-182h340v-120h-470zM145 791l91 139h119l91 -139h-102l-48 54l-49 -54h-102z" />
    <glyph glyph-name="Edieresis" unicode="&#xcb;" horiz-adv-x="590" 
d="M70 0v710h463v-120h-333v-172h306v-116h-306v-182h340v-120h-470zM329 865q0 28 19 46.5t47 18.5t47 -18.5t19 -46.5q0 -27 -19.5 -48t-46.5 -21t-46.5 21t-19.5 48zM131 863q0 28 19 47.5t47 19.5t47.5 -19.5t19.5 -47.5q0 -27 -19.5 -47t-47.5 -20q-27 0 -46.5 20
t-19.5 47z" />
    <glyph glyph-name="Igrave" unicode="&#xcc;" horiz-adv-x="270" 
d="M70 0v710h130v-710h-130zM14 930h135l42 -139h-102z" />
    <glyph glyph-name="Iacute" unicode="&#xcd;" horiz-adv-x="270" 
d="M70 0v710h130v-710h-130zM79 791l42 139h135l-75 -139h-102z" />
    <glyph glyph-name="Icircumflex" unicode="&#xce;" horiz-adv-x="270" 
d="M70 0v710h130v-710h-130zM-16 791l91 139h119l91 -139h-102l-48 54l-49 -54h-102z" />
    <glyph glyph-name="Idieresis" unicode="&#xcf;" horiz-adv-x="270" 
d="M70 0v710h130v-710h-130zM168 865q0 28 19 46.5t47 18.5t47 -18.5t19 -46.5q0 -27 -19.5 -48t-46.5 -21t-46.5 21t-19.5 48zM-30 863q0 28 19 47.5t47 19.5t47.5 -19.5t19.5 -47.5q0 -27 -19.5 -47t-47.5 -20q-27 0 -46.5 20t-19.5 47z" />
    <glyph glyph-name="Eth" unicode="&#xd0;" horiz-adv-x="696" 
d="M370 282h-160v-162h105q103 0 156 61t53 174q0 111 -53 173t-156 62h-105v-196h160v-112zM80 0v282h-70v112h70v316h231q166 0 255.5 -93.5t89.5 -261.5t-89.5 -261.5t-255.5 -93.5h-231z" />
    <glyph glyph-name="Ntilde" unicode="&#xd1;" horiz-adv-x="705" 
d="M534 0l-337 464v-464h-127v710h104l335 -455v455h126v-710h-101zM191 806q1 58 33 91t77 33q40 0 75.5 -26t49.5 -26q13 0 22 10t9 27h79q-1 -58 -33 -91t-77 -33q-40 0 -75.5 26t-49.5 26q-13 0 -22 -10t-9 -27h-79z" />
    <glyph glyph-name="Ograve" unicode="&#xd2;" horiz-adv-x="763" 
d="M40 355q0 163 95 266.5t247 103.5q151 0 246 -103t95 -267t-95 -267t-246 -103q-152 0 -247 103t-95 267zM174 355q0 -112 57 -181.5t151 -69.5q93 0 150 69.5t57 181.5t-57 181.5t-150 69.5q-94 0 -151 -70t-57 -181zM261 930h135l42 -139h-102z" />
    <glyph glyph-name="Oacute" unicode="&#xd3;" horiz-adv-x="763" 
d="M40 355q0 163 95 266.5t247 103.5q151 0 246 -103t95 -267t-95 -267t-246 -103q-152 0 -247 103t-95 267zM174 355q0 -112 57 -181.5t151 -69.5q93 0 150 69.5t57 181.5t-57 181.5t-150 69.5q-94 0 -151 -70t-57 -181zM326 791l42 139h135l-75 -139h-102z" />
    <glyph glyph-name="Ocircumflex" unicode="&#xd4;" horiz-adv-x="763" 
d="M40 355q0 163 95 266.5t247 103.5q151 0 246 -103t95 -267t-95 -267t-246 -103q-152 0 -247 103t-95 267zM174 355q0 -112 57 -181.5t151 -69.5q93 0 150 69.5t57 181.5t-57 181.5t-150 69.5q-94 0 -151 -70t-57 -181zM231 791l91 139h119l91 -139h-102l-48 54l-49 -54
h-102z" />
    <glyph glyph-name="Otilde" unicode="&#xd5;" horiz-adv-x="763" 
d="M40 355q0 163 95 266.5t247 103.5q151 0 246 -103t95 -267t-95 -267t-246 -103q-152 0 -247 103t-95 267zM174 355q0 -112 57 -181.5t151 -69.5q93 0 150 69.5t57 181.5t-57 181.5t-150 69.5q-94 0 -151 -70t-57 -181zM220 806q1 58 33 91t77 33q40 0 75.5 -26t49.5 -26
q13 0 22 10t9 27h79q-1 -58 -33 -91t-77 -33q-40 0 -75.5 26t-49.5 26q-13 0 -22 -10t-9 -27h-79z" />
    <glyph glyph-name="Odieresis" unicode="&#xd6;" horiz-adv-x="763" 
d="M40 355q0 163 95 266.5t247 103.5q151 0 246 -103t95 -267t-95 -267t-246 -103q-152 0 -247 103t-95 267zM174 355q0 -112 57 -181.5t151 -69.5q93 0 150 69.5t57 181.5t-57 181.5t-150 69.5q-94 0 -151 -70t-57 -181zM415 865q0 28 19 46.5t47 18.5t47 -18.5t19 -46.5
q0 -27 -19.5 -48t-46.5 -21t-46.5 21t-19.5 48zM217 863q0 28 19 47.5t47 19.5t47.5 -19.5t19.5 -47.5q0 -27 -19.5 -47t-47.5 -20q-27 0 -46.5 20t-19.5 47z" />
    <glyph glyph-name="multiply" unicode="&#xd7;" horiz-adv-x="530" 
d="M68 208l118 118l-118 118l80 79l117 -118l117 118l80 -79l-118 -118l118 -118l-80 -79l-117 118l-117 -118z" />
    <glyph glyph-name="Oslash" unicode="&#xd8;" horiz-adv-x="773" 
d="M387 -15q-108 0 -191 55l-33 -40h-138l94 114q-74 99 -74 241q0 163 95 266.5t247 103.5q107 0 190 -55l33 40h138l-94 -114q74 -99 74 -241q0 -164 -95 -267t-246 -103zM179 355q0 -76 28 -135l290 353q-49 33 -110 33q-94 0 -151 -70t-57 -181zM387 104q93 0 150 69.5
t57 181.5q0 76 -28 135l-290 -353q49 -33 111 -33z" />
    <glyph glyph-name="Ugrave" unicode="&#xd9;" horiz-adv-x="690" 
d="M60 278v432h130v-440q0 -82 41.5 -124t113.5 -42t113.5 42t41.5 124v440h130v-432q0 -142 -75 -217.5t-210 -75.5t-210 75.5t-75 217.5zM225 930h135l42 -139h-102z" />
    <glyph glyph-name="Uacute" unicode="&#xda;" horiz-adv-x="690" 
d="M60 278v432h130v-440q0 -82 41.5 -124t113.5 -42t113.5 42t41.5 124v440h130v-432q0 -142 -75 -217.5t-210 -75.5t-210 75.5t-75 217.5zM290 791l42 139h135l-75 -139h-102z" />
    <glyph glyph-name="Ucircumflex" unicode="&#xdb;" horiz-adv-x="690" 
d="M60 278v432h130v-440q0 -82 41.5 -124t113.5 -42t113.5 42t41.5 124v440h130v-432q0 -142 -75 -217.5t-210 -75.5t-210 75.5t-75 217.5zM195 791l91 139h119l91 -139h-102l-48 54l-49 -54h-102z" />
    <glyph glyph-name="Udieresis" unicode="&#xdc;" horiz-adv-x="690" 
d="M60 278v432h130v-440q0 -82 41.5 -124t113.5 -42t113.5 42t41.5 124v440h130v-432q0 -142 -75 -217.5t-210 -75.5t-210 75.5t-75 217.5zM379 865q0 28 19 46.5t47 18.5t47 -18.5t19 -46.5q0 -27 -19.5 -48t-46.5 -21t-46.5 21t-19.5 48zM181 863q0 28 19 47.5t47 19.5
t47.5 -19.5t19.5 -47.5q0 -27 -19.5 -47t-47.5 -20q-27 0 -46.5 20t-19.5 47z" />
    <glyph glyph-name="Yacute" unicode="&#xdd;" horiz-adv-x="581" 
d="M358 0h-130v285l-238 425h150l158 -297l151 297h142l-233 -425v-285zM243 791l42 139h135l-75 -139h-102z" />
    <glyph glyph-name="Thorn" unicode="&#xde;" horiz-adv-x="612" 
d="M344 470h-144v-212h147q52 0 77.5 30t25.5 76q0 47 -26.5 76.5t-79.5 29.5zM367 138h-167v-138h-130v710h130v-120h164q99 0 158.5 -65t59.5 -161q0 -97 -58.5 -161.5t-156.5 -64.5z" />
    <glyph glyph-name="germandbls" unicode="&#xdf;" horiz-adv-x="627" 
d="M65 0v493q0 102 62 167t180 65q93 0 148 -49.5t55 -126.5q0 -40 -16 -70.5t-36 -45t-36 -30t-16 -29.5q0 -15 27 -32l45 -29q58 -38 86 -78.5t28 -95.5q0 -69 -49.5 -111.5t-136.5 -42.5t-159 46l45 106q58 -46 112 -46q30 0 47.5 15.5t17.5 42.5q0 33 -60 72l-31 20
q-54 34 -74.5 60.5t-20.5 63.5q0 31 16.5 55.5t36 37.5t36 34.5t16.5 48.5q0 36 -22.5 56t-65.5 20q-51 0 -80 -34.5t-29 -100.5v-482h-126z" />
    <glyph glyph-name="agrave" unicode="&#xe0;" horiz-adv-x="528" 
d="M226 85q45 0 84 33.5t39 86.5v26q-58 -2 -98.5 -11.5t-59 -24.5t-26 -28t-7.5 -27q0 -27 19 -41t49 -14zM355 0v54q-28 -29 -72 -49t-92 -20q-66 0 -113.5 38t-47.5 107q0 92 89 141t230 53v10q0 37 -25.5 57.5t-65.5 20.5q-70 0 -126 -63l-84 70q35 46 91 73.5t124 27.5
q210 0 210 -209v-311h-118zM139 725h135l42 -139h-102z" />
    <glyph glyph-name="aacute" unicode="&#xe1;" horiz-adv-x="528" 
d="M226 85q45 0 84 33.5t39 86.5v26q-58 -2 -98.5 -11.5t-59 -24.5t-26 -28t-7.5 -27q0 -27 19 -41t49 -14zM355 0v54q-28 -29 -72 -49t-92 -20q-66 0 -113.5 38t-47.5 107q0 92 89 141t230 53v10q0 37 -25.5 57.5t-65.5 20.5q-70 0 -126 -63l-84 70q35 46 91 73.5t124 27.5
q210 0 210 -209v-311h-118zM204 586l42 139h135l-75 -139h-102z" />
    <glyph glyph-name="acircumflex" unicode="&#xe2;" horiz-adv-x="528" 
d="M226 85q45 0 84 33.5t39 86.5v26q-58 -2 -98.5 -11.5t-59 -24.5t-26 -28t-7.5 -27q0 -27 19 -41t49 -14zM355 0v54q-28 -29 -72 -49t-92 -20q-66 0 -113.5 38t-47.5 107q0 92 89 141t230 53v10q0 37 -25.5 57.5t-65.5 20.5q-70 0 -126 -63l-84 70q35 46 91 73.5t124 27.5
q210 0 210 -209v-311h-118zM109 586l91 139h119l91 -139h-102l-48 54l-49 -54h-102z" />
    <glyph glyph-name="atilde" unicode="&#xe3;" horiz-adv-x="528" 
d="M226 85q45 0 84 33.5t39 86.5v26q-58 -2 -98.5 -11.5t-59 -24.5t-26 -28t-7.5 -27q0 -27 19 -41t49 -14zM355 0v54q-28 -29 -72 -49t-92 -20q-66 0 -113.5 38t-47.5 107q0 92 89 141t230 53v10q0 37 -25.5 57.5t-65.5 20.5q-70 0 -126 -63l-84 70q35 46 91 73.5t124 27.5
q210 0 210 -209v-311h-118zM98 601q1 58 33 91t77 33q40 0 75.5 -26t49.5 -26q13 0 22 10t9 27h79q-1 -58 -33 -91t-77 -33q-40 0 -75.5 26t-49.5 26q-13 0 -22 -10t-9 -27h-79z" />
    <glyph glyph-name="adieresis" unicode="&#xe4;" horiz-adv-x="528" 
d="M226 85q45 0 84 33.5t39 86.5v26q-58 -2 -98.5 -11.5t-59 -24.5t-26 -28t-7.5 -27q0 -27 19 -41t49 -14zM355 0v54q-28 -29 -72 -49t-92 -20q-66 0 -113.5 38t-47.5 107q0 92 89 141t230 53v10q0 37 -25.5 57.5t-65.5 20.5q-70 0 -126 -63l-84 70q35 46 91 73.5t124 27.5
q210 0 210 -209v-311h-118zM293 660q0 28 19 46.5t47 18.5t47 -18.5t19 -46.5q0 -27 -19.5 -48t-46.5 -21t-46.5 21t-19.5 48zM95 658q0 28 19 47.5t47 19.5t47.5 -19.5t19.5 -47.5q0 -27 -19.5 -47t-47.5 -20q-27 0 -46.5 20t-19.5 47z" />
    <glyph glyph-name="aring" unicode="&#xe5;" horiz-adv-x="528" 
d="M226 85q45 0 84 33.5t39 86.5v26q-58 -2 -98.5 -11.5t-59 -24.5t-26 -28t-7.5 -27q0 -27 19 -41t49 -14zM355 0v54q-28 -29 -72 -49t-92 -20q-66 0 -113.5 38t-47.5 107q0 92 89 141t230 53v10q0 37 -25.5 57.5t-65.5 20.5q-70 0 -126 -63l-84 70q35 46 91 73.5t124 27.5
q210 0 210 -209v-311h-118zM150 673q0 44 32 74t78 30q45 0 77.5 -30t32.5 -74t-32 -74t-78 -30q-45 0 -77.5 30t-32.5 74zM222 673q0 -16 11 -27t27 -11t27 11t11 27t-11 27t-27 11t-27 -11t-11 -27z" />
    <glyph glyph-name="ae" unicode="&#xe6;" horiz-adv-x="848" 
d="M584 415q-96 0 -117 -111h224q-15 111 -107 111zM800 106q-75 -121 -209 -121q-124 0 -189 105q-71 -105 -197 -105q-77 0 -126 37.5t-49 107.5q0 81 73.5 127.5t202.5 46.5h43v30q0 37 -25.5 57.5t-65.5 20.5q-70 0 -126 -63l-84 70q77 101 214 101q115 0 161 -76
q65 76 166 76q105 0 167 -72.5t62 -188.5v-41h-352q8 -57 41 -91.5t81 -34.5q66 0 114 72zM226 85q45 0 84 33.5t39 86.5v13h-47q-73 0 -108.5 -23t-35.5 -57q0 -26 19.5 -39.5t48.5 -13.5z" />
    <glyph glyph-name="ccedilla" unicode="&#xe7;" horiz-adv-x="508" 
d="M266 -225q-47 0 -81 20l28 56q24 -13 49 -13q31 0 31 24q0 12 -8.5 19t-22.5 7q-18 0 -35 -6l-31 31l40 76q-92 16 -149 87.5t-57 176.5q0 117 71.5 192t181.5 75q130 0 205 -116l-98 -58q-43 64 -109 64q-56 0 -89.5 -43t-33.5 -114t33.5 -114.5t89.5 -43.5q68 0 114 64
l98 -58q-74 -107 -189 -115l-21 -39q38 -2 62.5 -24.5t24.5 -61.5q0 -40 -27 -63t-77 -23z" />
    <glyph glyph-name="egrave" unicode="&#xe8;" horiz-adv-x="549" 
d="M280 415q-51 0 -82.5 -30.5t-40.5 -86.5h235q-15 117 -112 117zM501 106q-78 -121 -217 -121q-112 0 -183 75t-71 193q0 117 71 192t181 75q109 0 173 -74t64 -193v-41h-361q10 -54 44 -87t82 -33q70 0 119 72zM162 725h135l42 -139h-102z" />
    <glyph glyph-name="eacute" unicode="&#xe9;" horiz-adv-x="549" 
d="M280 415q-51 0 -82.5 -30.5t-40.5 -86.5h235q-15 117 -112 117zM501 106q-78 -121 -217 -121q-112 0 -183 75t-71 193q0 117 71 192t181 75q109 0 173 -74t64 -193v-41h-361q10 -54 44 -87t82 -33q70 0 119 72zM227 586l42 139h135l-75 -139h-102z" />
    <glyph glyph-name="ecircumflex" unicode="&#xea;" horiz-adv-x="549" 
d="M280 415q-51 0 -82.5 -30.5t-40.5 -86.5h235q-15 117 -112 117zM501 106q-78 -121 -217 -121q-112 0 -183 75t-71 193q0 117 71 192t181 75q109 0 173 -74t64 -193v-41h-361q10 -54 44 -87t82 -33q70 0 119 72zM132 586l91 139h119l91 -139h-102l-48 54l-49 -54h-102z
" />
    <glyph glyph-name="edieresis" unicode="&#xeb;" horiz-adv-x="549" 
d="M280 415q-51 0 -82.5 -30.5t-40.5 -86.5h235q-15 117 -112 117zM501 106q-78 -121 -217 -121q-112 0 -183 75t-71 193q0 117 71 192t181 75q109 0 173 -74t64 -193v-41h-361q10 -54 44 -87t82 -33q70 0 119 72zM316 660q0 28 19 46.5t47 18.5t47 -18.5t19 -46.5
q0 -27 -19.5 -48t-46.5 -21t-46.5 21t-19.5 48zM118 658q0 28 19 47.5t47 19.5t47.5 -19.5t19.5 -47.5q0 -27 -19.5 -47t-47.5 -20q-27 0 -46.5 20t-19.5 47z" />
    <glyph glyph-name="igrave" unicode="&#xec;" horiz-adv-x="256" 
d="M65 0v505h126v-505h-126zM7 725h135l42 -139h-102z" />
    <glyph glyph-name="iacute" unicode="&#xed;" horiz-adv-x="256" 
d="M65 0v505h126v-505h-126zM72 586l42 139h135l-75 -139h-102z" />
    <glyph glyph-name="icircumflex" unicode="&#xee;" horiz-adv-x="256" 
d="M65 0v505h126v-505h-126zM-23 586l91 139h119l91 -139h-102l-48 54l-49 -54h-102z" />
    <glyph glyph-name="idieresis" unicode="&#xef;" horiz-adv-x="256" 
d="M65 0v505h126v-505h-126zM161 660q0 28 19 46.5t47 18.5t47 -18.5t19 -46.5q0 -27 -19.5 -48t-46.5 -21t-46.5 21t-19.5 48zM-37 658q0 28 19 47.5t47 19.5t47.5 -19.5t19.5 -47.5q0 -27 -19.5 -47t-47.5 -20q-27 0 -46.5 20t-19.5 47z" />
    <glyph glyph-name="eth" unicode="&#xf0;" horiz-adv-x="582" 
d="M292 -15q-100 0 -173.5 68.5t-73.5 170.5q0 105 66.5 169t155.5 64q88 0 144 -56q-25 75 -66 141h-196v100h124q-39 46 -81 83h150q36 -39 67 -83h127v-100h-65q76 -147 76 -277q0 -123 -72 -201.5t-183 -78.5zM178 225q0 -52 32 -86.5t82 -34.5q59 0 92.5 34.5
t33.5 96.5q0 48 -33 79.5t-87 31.5t-87 -34t-33 -87z" />
    <glyph glyph-name="ntilde" unicode="&#xf1;" horiz-adv-x="574" 
d="M191 284v-284h-126v505h120v-70q43 85 146 85q76 0 129.5 -50.5t53.5 -146.5v-323h-126v293q0 111 -93 111q-48 0 -76 -32.5t-28 -87.5zM133 601q1 58 33 91t77 33q40 0 75.5 -26t49.5 -26q13 0 22 10t9 27h79q-1 -58 -33 -91t-77 -33q-40 0 -75.5 26t-49.5 26
q-13 0 -22 -10t-9 -27h-79z" />
    <glyph glyph-name="ograve" unicode="&#xf2;" horiz-adv-x="572" 
d="M30 253q0 117 72 192t184 75t184 -75t72 -192q0 -118 -72 -193t-184 -75t-184 75t-72 193zM158 253q0 -71 35.5 -116t92.5 -45t92.5 45t35.5 116t-35.5 115.5t-92.5 44.5t-92.5 -44.5t-35.5 -115.5zM165 725h135l42 -139h-102z" />
    <glyph glyph-name="oacute" unicode="&#xf3;" horiz-adv-x="572" 
d="M30 253q0 117 72 192t184 75t184 -75t72 -192q0 -118 -72 -193t-184 -75t-184 75t-72 193zM158 253q0 -71 35.5 -116t92.5 -45t92.5 45t35.5 116t-35.5 115.5t-92.5 44.5t-92.5 -44.5t-35.5 -115.5zM230 586l42 139h135l-75 -139h-102z" />
    <glyph glyph-name="ocircumflex" unicode="&#xf4;" horiz-adv-x="572" 
d="M30 253q0 117 72 192t184 75t184 -75t72 -192q0 -118 -72 -193t-184 -75t-184 75t-72 193zM158 253q0 -71 35.5 -116t92.5 -45t92.5 45t35.5 116t-35.5 115.5t-92.5 44.5t-92.5 -44.5t-35.5 -115.5zM135 586l91 139h119l91 -139h-102l-48 54l-49 -54h-102z" />
    <glyph glyph-name="otilde" unicode="&#xf5;" horiz-adv-x="572" 
d="M30 253q0 117 72 192t184 75t184 -75t72 -192q0 -118 -72 -193t-184 -75t-184 75t-72 193zM158 253q0 -71 35.5 -116t92.5 -45t92.5 45t35.5 116t-35.5 115.5t-92.5 44.5t-92.5 -44.5t-35.5 -115.5zM124 601q1 58 33 91t77 33q40 0 75.5 -26t49.5 -26q13 0 22 10t9 27h79
q-1 -58 -33 -91t-77 -33q-40 0 -75.5 26t-49.5 26q-13 0 -22 -10t-9 -27h-79z" />
    <glyph glyph-name="odieresis" unicode="&#xf6;" horiz-adv-x="572" 
d="M30 253q0 117 72 192t184 75t184 -75t72 -192q0 -118 -72 -193t-184 -75t-184 75t-72 193zM158 253q0 -71 35.5 -116t92.5 -45t92.5 45t35.5 116t-35.5 115.5t-92.5 44.5t-92.5 -44.5t-35.5 -115.5zM319 660q0 28 19 46.5t47 18.5t47 -18.5t19 -46.5q0 -27 -19.5 -48
t-46.5 -21t-46.5 21t-19.5 48zM121 658q0 28 19 47.5t47 19.5t47.5 -19.5t19.5 -47.5q0 -27 -19.5 -47t-47.5 -20q-27 0 -46.5 20t-19.5 47z" />
    <glyph glyph-name="divide" unicode="&#xf7;" horiz-adv-x="530" 
d="M190 507q0 31 22 53t53 22t53 -22t22 -53t-22 -53t-53 -22t-53 22t-22 53zM65 272v110h400v-110h-400zM190 147q0 31 22 53t53 22t53 -22t22 -53t-22 -53t-53 -22t-53 22t-22 53z" />
    <glyph glyph-name="oslash" unicode="&#xf8;" horiz-adv-x="582" 
d="M291 -15q-77 0 -136 37l-19 -22h-131l78 89q-48 68 -48 164q0 117 72 192t184 75q76 0 136 -37l19 22h131l-78 -89q48 -68 48 -163q0 -118 -72 -193t-184 -75zM163 253q0 -33 8 -62l180 206q-27 16 -60 16q-57 0 -92.5 -44.5t-35.5 -115.5zM291 92q57 0 92.5 45t35.5 116
q0 32 -8 62l-180 -207q27 -16 60 -16z" />
    <glyph glyph-name="ugrave" unicode="&#xf9;" horiz-adv-x="559" 
d="M379 0v61q-45 -76 -143 -76q-78 0 -132 50.5t-54 146.5v323h126v-293q0 -111 93 -111q48 0 76 32.5t28 87.5v284h126v-505h-120zM154 725h135l42 -139h-102z" />
    <glyph glyph-name="uacute" unicode="&#xfa;" horiz-adv-x="559" 
d="M379 0v61q-45 -76 -143 -76q-78 0 -132 50.5t-54 146.5v323h126v-293q0 -111 93 -111q48 0 76 32.5t28 87.5v284h126v-505h-120zM219 586l42 139h135l-75 -139h-102z" />
    <glyph glyph-name="ucircumflex" unicode="&#xfb;" horiz-adv-x="559" 
d="M379 0v61q-45 -76 -143 -76q-78 0 -132 50.5t-54 146.5v323h126v-293q0 -111 93 -111q48 0 76 32.5t28 87.5v284h126v-505h-120zM124 586l91 139h119l91 -139h-102l-48 54l-49 -54h-102z" />
    <glyph glyph-name="udieresis" unicode="&#xfc;" horiz-adv-x="559" 
d="M379 0v61q-45 -76 -143 -76q-78 0 -132 50.5t-54 146.5v323h126v-293q0 -111 93 -111q48 0 76 32.5t28 87.5v284h126v-505h-120zM308 660q0 28 19 46.5t47 18.5t47 -18.5t19 -46.5q0 -27 -19.5 -48t-46.5 -21t-46.5 21t-19.5 48zM110 658q0 28 19 47.5t47 19.5
t47.5 -19.5t19.5 -47.5q0 -27 -19.5 -47t-47.5 -20q-27 0 -46.5 20t-19.5 47z" />
    <glyph glyph-name="yacute" unicode="&#xfd;" horiz-adv-x="500" 
d="M244 -210h-126l76 207l-194 508h137l116 -361l116 361h131zM197 586l42 139h135l-75 -139h-102z" />
    <glyph glyph-name="thorn" unicode="&#xfe;" horiz-adv-x="607" 
d="M182 252q0 -68 38 -112.5t96 -44.5t95.5 43.5t37.5 113.5q0 71 -37.5 115.5t-95.5 44.5q-59 0 -96.5 -44.5t-37.5 -115.5zM337 -15q-91 0 -146 60v-255h-126v920h131v-246q56 56 144 56q104 0 170.5 -75t66.5 -193q0 -117 -67 -192t-173 -75z" />
    <glyph glyph-name="ydieresis" unicode="&#xff;" horiz-adv-x="500" 
d="M244 -210h-126l76 207l-194 508h137l116 -361l116 361h131zM286 660q0 28 19 46.5t47 18.5t47 -18.5t19 -46.5q0 -27 -19.5 -48t-46.5 -21t-46.5 21t-19.5 48zM88 658q0 28 19 47.5t47 19.5t47.5 -19.5t19.5 -47.5q0 -27 -19.5 -47t-47.5 -20q-27 0 -46.5 20t-19.5 47z
" />
    <glyph glyph-name="Amacron" unicode="&#x100;" horiz-adv-x="644" 
d="M413 257l-94 292l-92 -292h186zM495 0l-45 141h-260l-45 -141h-135l240 710h144l240 -710h-139zM193 818v97h260v-97h-260z" />
    <glyph glyph-name="amacron" unicode="&#x101;" horiz-adv-x="528" 
d="M226 85q45 0 84 33.5t39 86.5v26q-58 -2 -98.5 -11.5t-59 -24.5t-26 -28t-7.5 -27q0 -27 19 -41t49 -14zM355 0v54q-28 -29 -72 -49t-92 -20q-66 0 -113.5 38t-47.5 107q0 92 89 141t230 53v10q0 37 -25.5 57.5t-65.5 20.5q-70 0 -126 -63l-84 70q35 46 91 73.5t124 27.5
q210 0 210 -209v-311h-118zM130 613v97h260v-97h-260z" />
    <glyph glyph-name="Abreve" unicode="&#x102;" horiz-adv-x="644" 
d="M413 257l-94 292l-92 -292h186zM495 0l-45 141h-260l-45 -141h-135l240 710h144l240 -710h-139zM177 930h92q5 -51 54 -51q48 0 53 51h92q-4 -66 -43.5 -102.5t-101.5 -36.5t-102 36.5t-44 102.5z" />
    <glyph glyph-name="abreve" unicode="&#x103;" horiz-adv-x="528" 
d="M226 85q45 0 84 33.5t39 86.5v26q-58 -2 -98.5 -11.5t-59 -24.5t-26 -28t-7.5 -27q0 -27 19 -41t49 -14zM355 0v54q-28 -29 -72 -49t-92 -20q-66 0 -113.5 38t-47.5 107q0 92 89 141t230 53v10q0 37 -25.5 57.5t-65.5 20.5q-70 0 -126 -63l-84 70q35 46 91 73.5t124 27.5
q210 0 210 -209v-311h-118zM114 725h92q5 -51 54 -51q48 0 53 51h92q-4 -66 -43.5 -102.5t-101.5 -36.5t-102 36.5t-44 102.5z" />
    <glyph glyph-name="Aogonek" unicode="&#x104;" horiz-adv-x="644" 
d="M413 257l-94 292l-92 -292h186zM641 -210q-30 -15 -80 -15q-61 0 -95.5 29t-34.5 75q0 73 73 121h-9l-45 141h-260l-45 -141h-135l240 710h144l240 -710q-39 -9 -70 -39t-31 -65q0 -43 47 -43q19 0 43 8z" />
    <glyph glyph-name="aogonek" unicode="&#x105;" horiz-adv-x="528" 
d="M480 -210q-30 -15 -80 -15q-61 0 -95.5 29t-34.5 75q0 80 85 128v47q-28 -29 -72 -49t-92 -20q-66 0 -113.5 38t-47.5 107q0 92 89 141t230 53v10q0 37 -25.5 57.5t-65.5 20.5q-70 0 -126 -63l-84 70q35 46 91 73.5t124 27.5q210 0 210 -209v-311q-39 -9 -70 -39t-31 -65
q0 -43 47 -43q19 0 43 8zM226 85q45 0 84 33.5t39 86.5v26q-58 -2 -98.5 -11.5t-59 -24.5t-26 -28t-7.5 -27q0 -27 19 -41t49 -14z" />
    <glyph glyph-name="Cacute" unicode="&#x106;" horiz-adv-x="681" 
d="M40 356q0 164 94.5 266.5t247.5 102.5q174 0 274 -145l-102 -77q-67 103 -173 103q-93 0 -150 -69.5t-57 -180.5q0 -112 57 -182t150 -70q108 0 178 105l102 -77q-104 -147 -279 -147q-153 0 -247.5 103.5t-94.5 267.5zM315 791l42 139h135l-75 -139h-102z" />
    <glyph glyph-name="cacute" unicode="&#x107;" horiz-adv-x="508" 
d="M30 253q0 117 71.5 192t181.5 75q130 0 205 -116l-98 -58q-43 64 -109 64q-56 0 -89.5 -43t-33.5 -114t33.5 -114.5t89.5 -43.5q68 0 114 64l98 -58q-80 -116 -210 -116q-110 0 -181.5 75t-71.5 193zM214 586l42 139h135l-75 -139h-102z" />
    <glyph glyph-name="Ccaron" unicode="&#x10c;" horiz-adv-x="681" 
d="M40 356q0 164 94.5 266.5t247.5 102.5q174 0 274 -145l-102 -77q-67 103 -173 103q-93 0 -150 -69.5t-57 -180.5q0 -112 57 -182t150 -70q108 0 178 105l102 -77q-104 -147 -279 -147q-153 0 -247.5 103.5t-94.5 267.5zM220 930h102l49 -54l48 54h102l-91 -139h-119z" />
    <glyph glyph-name="ccaron" unicode="&#x10d;" horiz-adv-x="508" 
d="M30 253q0 117 71.5 192t181.5 75q130 0 205 -116l-98 -58q-43 64 -109 64q-56 0 -89.5 -43t-33.5 -114t33.5 -114.5t89.5 -43.5q68 0 114 64l98 -58q-80 -116 -210 -116q-110 0 -181.5 75t-71.5 193zM119 725h102l49 -54l48 54h102l-91 -139h-119z" />
    <glyph glyph-name="Dcaron" unicode="&#x10e;" horiz-adv-x="686" 
d="M305 590h-105v-470h105q103 0 156 61t53 174q0 111 -53 173t-156 62zM70 0v710h231q166 0 255.5 -93.5t89.5 -261.5t-89.5 -261.5t-255.5 -93.5h-231zM165 930h102l49 -54l48 54h102l-91 -139h-119z" />
    <glyph glyph-name="dcaron" unicode="&#x10f;" horiz-adv-x="711" 
d="M582 472l40 238h129l-78 -238h-91zM158 253q0 -71 37.5 -115.5t95.5 -44.5q59 0 96.5 44.5t37.5 115.5q0 68 -38 112.5t-96 44.5t-95.5 -43.5t-37.5 -113.5zM424 0v55q-59 -70 -157 -70q-104 0 -170.5 75t-66.5 193q0 117 67 192t173 75q91 0 146 -60v250h126v-710h-118z
" />
    <glyph glyph-name="Dcroat" unicode="&#x110;" horiz-adv-x="696" 
d="M370 282h-160v-162h105q103 0 156 61t53 174q0 111 -53 173t-156 62h-105v-196h160v-112zM80 0v282h-70v112h70v316h231q166 0 255.5 -93.5t89.5 -261.5t-89.5 -261.5t-255.5 -93.5h-231z" />
    <glyph glyph-name="dcroat" unicode="&#x111;" horiz-adv-x="607" 
d="M158 253q0 -71 37.5 -115.5t95.5 -44.5q59 0 96.5 44.5t37.5 115.5q0 68 -38 112.5t-96 44.5t-95.5 -43.5t-37.5 -113.5zM424 0v55q-59 -70 -157 -70q-104 0 -170.5 75t-66.5 193q0 117 67 192t173 75q91 0 146 -60v100h-141v100h141v50h126v-50h65v-100h-65v-560h-118z
" />
    <glyph glyph-name="Emacron" unicode="&#x112;" horiz-adv-x="590" 
d="M70 0v710h463v-120h-333v-172h306v-116h-306v-182h340v-120h-470zM166 818v97h260v-97h-260z" />
    <glyph glyph-name="emacron" unicode="&#x113;" horiz-adv-x="549" 
d="M280 415q-51 0 -82.5 -30.5t-40.5 -86.5h235q-15 117 -112 117zM501 106q-78 -121 -217 -121q-112 0 -183 75t-71 193q0 117 71 192t181 75q109 0 173 -74t64 -193v-41h-361q10 -54 44 -87t82 -33q70 0 119 72zM153 613v97h260v-97h-260z" />
    <glyph glyph-name="Edotaccent" unicode="&#x116;" horiz-adv-x="590" 
d="M70 0v710h463v-120h-333v-172h306v-116h-306v-182h340v-120h-470zM221 869q0 31 22 53t53 22t53 -22t22 -53t-22 -53.5t-53 -22.5t-53 22.5t-22 53.5z" />
    <glyph glyph-name="edotaccent" unicode="&#x117;" horiz-adv-x="549" 
d="M280 415q-51 0 -82.5 -30.5t-40.5 -86.5h235q-15 117 -112 117zM501 106q-78 -121 -217 -121q-112 0 -183 75t-71 193q0 117 71 192t181 75q109 0 173 -74t64 -193v-41h-361q10 -54 44 -87t82 -33q70 0 119 72zM208 664q0 31 22 53t53 22t53 -22t22 -53t-22 -53.5
t-53 -22.5t-53 22.5t-22 53.5z" />
    <glyph glyph-name="Eogonek" unicode="&#x118;" horiz-adv-x="590" 
d="M547 -210q-30 -15 -80 -15q-61 0 -95.5 29t-34.5 75q0 73 73 121h-340v710h463v-120h-333v-172h306v-116h-306v-182h340v-120q-39 -9 -70 -39t-31 -65q0 -43 47 -43q19 0 43 8z" />
    <glyph glyph-name="eogonek" unicode="&#x119;" horiz-adv-x="549" 
d="M280 415q-51 0 -82.5 -30.5t-40.5 -86.5h235q-15 117 -112 117zM472 -210q-40 -15 -86 -15q-61 0 -92.5 30t-31.5 79q0 50 40 101h-18q-112 0 -183 75t-71 193q0 117 71 192t181 75q109 0 173 -74t64 -193v-41h-361q10 -54 44 -87t82 -33q70 0 119 72l89 -54
q-33 -47 -52 -70q-76 -96 -76 -145q0 -42 47 -42q19 0 43 8z" />
    <glyph glyph-name="Ecaron" unicode="&#x11a;" horiz-adv-x="590" 
d="M70 0v710h463v-120h-333v-172h306v-116h-306v-182h340v-120h-470zM145 930h102l49 -54l48 54h102l-91 -139h-119z" />
    <glyph glyph-name="ecaron" unicode="&#x11b;" horiz-adv-x="549" 
d="M280 415q-51 0 -82.5 -30.5t-40.5 -86.5h235q-15 117 -112 117zM501 106q-78 -121 -217 -121q-112 0 -183 75t-71 193q0 117 71 192t181 75q109 0 173 -74t64 -193v-41h-361q10 -54 44 -87t82 -33q70 0 119 72zM132 725h102l49 -54l48 54h102l-91 -139h-119z" />
    <glyph glyph-name="Gbreve" unicode="&#x11e;" horiz-adv-x="709" 
d="M664 102q-48 -52 -125.5 -84.5t-159.5 -32.5q-151 0 -245 103.5t-94 267.5t94.5 266.5t247.5 102.5q174 0 274 -145l-102 -77q-68 103 -174 103q-93 0 -149.5 -69t-56.5 -181t57 -183t151 -71q92 0 156 45v121h-167v118h293v-284zM213 930h92q5 -51 54 -51q48 0 53 51h92
q-4 -66 -43.5 -102.5t-101.5 -36.5t-102 36.5t-44 102.5z" />
    <glyph glyph-name="gbreve" unicode="&#x11f;" horiz-adv-x="530" 
d="M174 333q0 -35 25.5 -59.5t63.5 -24.5q37 0 62.5 24.5t25.5 59.5t-25.5 60t-62.5 25q-38 0 -63.5 -24.5t-25.5 -60.5zM520 -58q0 -81 -71 -124t-184 -43q-115 0 -182.5 40t-67.5 109q0 62 56 107q-36 36 -36 82q0 65 66 104q-45 50 -45 118q0 79 60 132t146 53
q67 0 120 -33q48 66 135 57l-7 -97q-46 3 -66 -22q25 -41 25 -90q0 -78 -60 -130.5t-148 -52.5q-48 0 -90 17q-31 -13 -31 -37q0 -36 55 -36h125q87 0 143.5 -38.5t56.5 -115.5zM274 -131q120 0 120 67q0 53 -95 53h-128q-12 0 -18 1q-24 -23 -24 -48q0 -73 145 -73z
M117 725h92q5 -51 54 -51q48 0 53 51h92q-4 -66 -43.5 -102.5t-101.5 -36.5t-102 36.5t-44 102.5z" />
    <glyph glyph-name="uni0122" unicode="&#x122;" horiz-adv-x="709" 
d="M664 102q-48 -52 -125.5 -84.5t-159.5 -32.5q-151 0 -245 103.5t-94 267.5t94.5 266.5t247.5 102.5q174 0 274 -145l-102 -77q-68 103 -174 103q-93 0 -149.5 -69t-56.5 -181t57 -183t151 -71q92 0 156 45v121h-167v118h293v-284zM265 -225l42 139h135l-75 -139h-102z
" />
    <glyph glyph-name="uni0123" unicode="&#x123;" horiz-adv-x="530" 
d="M195 586l75 139h102l-42 -139h-135zM174 333q0 -35 25.5 -59.5t63.5 -24.5q37 0 62.5 24.5t25.5 59.5t-25.5 60t-62.5 25q-38 0 -63.5 -24.5t-25.5 -60.5zM520 -58q0 -81 -71 -124t-184 -43q-115 0 -182.5 40t-67.5 109q0 62 56 107q-36 36 -36 82q0 65 66 104
q-45 50 -45 118q0 79 60 132t146 53q67 0 120 -33q48 66 135 57l-7 -97q-46 3 -66 -22q25 -41 25 -90q0 -78 -60 -130.5t-148 -52.5q-48 0 -90 17q-31 -13 -31 -37q0 -36 55 -36h125q87 0 143.5 -38.5t56.5 -115.5zM274 -131q120 0 120 67q0 53 -95 53h-128q-12 0 -18 1
q-24 -23 -24 -48q0 -73 145 -73z" />
    <glyph glyph-name="Imacron" unicode="&#x12a;" horiz-adv-x="270" 
d="M70 0v710h130v-710h-130zM5 818v97h260v-97h-260z" />
    <glyph glyph-name="imacron" unicode="&#x12b;" horiz-adv-x="256" 
d="M65 0v505h126v-505h-126zM-2 613v97h260v-97h-260z" />
    <glyph glyph-name="Iogonek" unicode="&#x12e;" horiz-adv-x="270" 
d="M127 -225q-61 0 -95.5 29t-34.5 75q0 73 73 121v710h130v-710q-39 -9 -70 -39t-31 -65q0 -43 47 -43q19 0 43 8l18 -71q-30 -15 -80 -15z" />
    <glyph glyph-name="iogonek" unicode="&#x12f;" horiz-adv-x="256" 
d="M53 664q0 31 22 53t53 22t53 -22t22 -53t-22 -53.5t-53 -22.5t-53 22.5t-22 53.5zM198 -210q-30 -15 -80 -15q-61 0 -95.5 29t-34.5 75q0 75 77 123v503h126v-505q-39 -9 -70 -39t-31 -65q0 -43 47 -43q19 0 43 8z" />
    <glyph glyph-name="Idotaccent" unicode="&#x130;" horiz-adv-x="270" 
d="M70 0v710h130v-710h-130zM60 869q0 31 22 53t53 22t53 -22t22 -53t-22 -53.5t-53 -22.5t-53 22.5t-22 53.5z" />
    <glyph glyph-name="dotlessi" unicode="&#x131;" horiz-adv-x="256" 
d="M65 0v505h126v-505h-126z" />
    <glyph glyph-name="IJ" unicode="&#x132;" horiz-adv-x="605" 
d="M70 220v490h130v-490h-130zM65 14l30 113q66 -23 147 -23q90 0 131.5 44.5t41.5 145.5v416h130v-408q0 -152 -74 -234.5t-224 -82.5q-98 0 -182 29z" />
    <glyph glyph-name="ij" unicode="&#x133;" horiz-adv-x="512" 
d="M53 664q0 31 22 53t53 22t53 -22t22 -53t-22 -53.5t-53 -22.5t-53 22.5t-22 53.5zM65 0v505h126v-505h-126zM309 664q0 31 22 53t53 22t53 -22t22 -53t-22 -53.5t-53 -22.5t-53 22.5t-22 53.5zM210 -219l9 106q20 -4 38 -4q32 0 48 17.5t16 57.5v547h126v-545
q0 -185 -176 -185q-28 0 -61 6z" />
    <glyph glyph-name="uni0136" unicode="&#x136;" horiz-adv-x="620" 
d="M460 0l-260 328v-328h-130v710h130v-302l246 302h154l-281 -336l301 -374h-160zM211 -225l42 139h135l-75 -139h-102z" />
    <glyph glyph-name="uni0137" unicode="&#x137;" horiz-adv-x="510" 
d="M355 0l-164 214v-214h-126v710h126v-403l163 198h150l-207 -240l218 -265h-160zM167 -225l42 139h135l-75 -139h-102z" />
    <glyph glyph-name="Lacute" unicode="&#x139;" horiz-adv-x="515" 
d="M70 0v710h130v-590h295v-120h-425zM79 791l42 139h135l-75 -139h-102z" />
    <glyph glyph-name="lacute" unicode="&#x13a;" horiz-adv-x="256" 
d="M65 0v710h126v-710h-126zM74 791l42 139h135l-75 -139h-102z" />
    <glyph glyph-name="uni013B" unicode="&#x13b;" horiz-adv-x="515" 
d="M70 0v710h130v-590h295v-120h-425zM165 -225l42 139h135l-75 -139h-102z" />
    <glyph glyph-name="uni013C" unicode="&#x13c;" horiz-adv-x="256" 
d="M65 0v710h126v-710h-126zM17 -225l42 139h135l-75 -139h-102z" />
    <glyph glyph-name="Lcaron" unicode="&#x13d;" horiz-adv-x="515" 
d="M321 472l40 238h129l-78 -238h-91zM70 0v710h130v-590h295v-120h-425z" />
    <glyph glyph-name="lcaron" unicode="&#x13e;" horiz-adv-x="360" 
d="M231 472l40 238h129l-78 -238h-91zM65 0v710h126v-710h-126z" />
    <glyph glyph-name="Lslash" unicode="&#x141;" horiz-adv-x="525" 
d="M80 0v179l-70 -48v116l70 48v415h130v-325l116 80v-116l-116 -80v-149h295v-120h-425z" />
    <glyph glyph-name="lslash" unicode="&#x142;" horiz-adv-x="271" 
d="M201 0h-126v179l-65 -48v121l65 48v410h126v-316l95 71v-121l-95 -71v-273z" />
    <glyph glyph-name="Nacute" unicode="&#x143;" horiz-adv-x="705" 
d="M534 0l-337 464v-464h-127v710h104l335 -455v455h126v-710h-101zM297 791l42 139h135l-75 -139h-102z" />
    <glyph glyph-name="nacute" unicode="&#x144;" horiz-adv-x="574" 
d="M191 284v-284h-126v505h120v-70q43 85 146 85q76 0 129.5 -50.5t53.5 -146.5v-323h-126v293q0 111 -93 111q-48 0 -76 -32.5t-28 -87.5zM239 586l42 139h135l-75 -139h-102z" />
    <glyph glyph-name="uni0145" unicode="&#x145;" horiz-adv-x="705" 
d="M534 0l-337 464v-464h-127v710h104l335 -455v455h126v-710h-101zM260 -225l42 139h135l-75 -139h-102z" />
    <glyph glyph-name="uni0146" unicode="&#x146;" horiz-adv-x="574" 
d="M191 284v-284h-126v505h120v-70q43 85 146 85q76 0 129.5 -50.5t53.5 -146.5v-323h-126v293q0 111 -93 111q-48 0 -76 -32.5t-28 -87.5zM178 -225l42 139h135l-75 -139h-102z" />
    <glyph glyph-name="Ncaron" unicode="&#x147;" horiz-adv-x="705" 
d="M534 0l-337 464v-464h-127v710h104l335 -455v455h126v-710h-101zM202 930h102l49 -54l48 54h102l-91 -139h-119z" />
    <glyph glyph-name="ncaron" unicode="&#x148;" horiz-adv-x="574" 
d="M191 284v-284h-126v505h120v-70q43 85 146 85q76 0 129.5 -50.5t53.5 -146.5v-323h-126v293q0 111 -93 111q-48 0 -76 -32.5t-28 -87.5zM144 725h102l49 -54l48 54h102l-91 -139h-119z" />
    <glyph glyph-name="Omacron" unicode="&#x14c;" horiz-adv-x="763" 
d="M40 355q0 163 95 266.5t247 103.5q151 0 246 -103t95 -267t-95 -267t-246 -103q-152 0 -247 103t-95 267zM174 355q0 -112 57 -181.5t151 -69.5q93 0 150 69.5t57 181.5t-57 181.5t-150 69.5q-94 0 -151 -70t-57 -181zM252 818v97h260v-97h-260z" />
    <glyph glyph-name="omacron" unicode="&#x14d;" horiz-adv-x="572" 
d="M30 253q0 117 72 192t184 75t184 -75t72 -192q0 -118 -72 -193t-184 -75t-184 75t-72 193zM158 253q0 -71 35.5 -116t92.5 -45t92.5 45t35.5 116t-35.5 115.5t-92.5 44.5t-92.5 -44.5t-35.5 -115.5zM156 613v97h260v-97h-260z" />
    <glyph glyph-name="Ohungarumlaut" unicode="&#x150;" horiz-adv-x="763" 
d="M40 355q0 163 95 266.5t247 103.5q151 0 246 -103t95 -267t-95 -267t-246 -103q-152 0 -247 103t-95 267zM174 355q0 -112 57 -181.5t151 -69.5q93 0 150 69.5t57 181.5t-57 181.5t-150 69.5q-94 0 -151 -70t-57 -181zM408 791l42 139h115l-65 -139h-92zM268 791l42 139
h115l-65 -139h-92z" />
    <glyph glyph-name="ohungarumlaut" unicode="&#x151;" horiz-adv-x="572" 
d="M30 253q0 117 72 192t184 75t184 -75t72 -192q0 -118 -72 -193t-184 -75t-184 75t-72 193zM158 253q0 -71 35.5 -116t92.5 -45t92.5 45t35.5 116t-35.5 115.5t-92.5 44.5t-92.5 -44.5t-35.5 -115.5zM312 586l42 139h115l-65 -139h-92zM172 586l42 139h115l-65 -139h-92z
" />
    <glyph glyph-name="OE" unicode="&#x152;" horiz-adv-x="965" 
d="M465 590h-63q-107 0 -167.5 -64.5t-60.5 -170.5t60.5 -170.5t167.5 -64.5h63v470zM402 0q-165 0 -263.5 98.5t-98.5 256.5t98.5 256.5t263.5 98.5h506v-120h-313v-172h286v-116h-286v-182h320v-120h-513z" />
    <glyph glyph-name="oe" unicode="&#x153;" horiz-adv-x="907" 
d="M643 415q-99 0 -118 -117h225q-14 117 -107 117zM158 253q0 -71 34 -116t89 -45t89 45t34 116t-34 115.5t-89 44.5t-89 -44.5t-34 -115.5zM859 106q-75 -121 -209 -121q-120 0 -187 96q-67 -96 -185 -96q-108 0 -178 75t-70 193q0 117 70 192t178 75q118 0 185 -96
q66 96 185 96q105 0 167 -74t62 -193v-41h-352q10 -55 43 -87.5t79 -32.5q66 0 114 72z" />
    <glyph glyph-name="Racute" unicode="&#x154;" horiz-adv-x="637" 
d="M358 590h-158v-197h161q49 0 76.5 28.5t27.5 70.5q0 43 -28.5 70.5t-78.5 27.5zM328 282h-128v-282h-130v710h292q109 0 172 -60.5t63 -147.5q0 -57 -29 -103t-82 -75q63 -43 75 -125l10 -70q9 -67 46 -129h-138q-30 44 -40 116l-11 74q-7 46 -28 69t-72 23zM251 791
l42 139h135l-75 -139h-102z" />
    <glyph glyph-name="racute" unicode="&#x155;" horiz-adv-x="356" 
d="M191 0h-126v505h120v-71q43 86 161 86l-5 -124q-77 -1 -113.5 -32t-36.5 -92v-272zM142 586l42 139h135l-75 -139h-102z" />
    <glyph glyph-name="uni0156" unicode="&#x156;" horiz-adv-x="637" 
d="M358 590h-158v-197h161q49 0 76.5 28.5t27.5 70.5q0 43 -28.5 70.5t-78.5 27.5zM328 282h-128v-282h-130v710h292q109 0 172 -60.5t63 -147.5q0 -57 -29 -103t-82 -75q63 -43 75 -125l10 -70q9 -67 46 -129h-138q-30 44 -40 116l-11 74q-7 46 -28 69t-72 23zM228 -225
l42 139h135l-75 -139h-102z" />
    <glyph glyph-name="uni0157" unicode="&#x157;" horiz-adv-x="356" 
d="M191 0h-126v505h120v-71q43 86 161 86l-5 -124q-77 -1 -113.5 -32t-36.5 -92v-272zM17 -225l42 139h135l-75 -139h-102z" />
    <glyph glyph-name="Rcaron" unicode="&#x158;" horiz-adv-x="637" 
d="M358 590h-158v-197h161q49 0 76.5 28.5t27.5 70.5q0 43 -28.5 70.5t-78.5 27.5zM328 282h-128v-282h-130v710h292q109 0 172 -60.5t63 -147.5q0 -57 -29 -103t-82 -75q63 -43 75 -125l10 -70q9 -67 46 -129h-138q-30 44 -40 116l-11 74q-7 46 -28 69t-72 23zM156 930h102
l49 -54l48 54h102l-91 -139h-119z" />
    <glyph glyph-name="rcaron" unicode="&#x159;" horiz-adv-x="356" 
d="M191 0h-126v505h120v-71q43 86 161 86l-5 -124q-77 -1 -113.5 -32t-36.5 -92v-272zM47 725h102l49 -54l48 54h102l-91 -139h-119z" />
    <glyph glyph-name="Sacute" unicode="&#x15a;" horiz-adv-x="604" 
d="M17 141l101 77q75 -115 197 -115q56 0 87.5 23t31.5 62q0 31 -22 54.5t-82 46.5l-116 46q-149 58 -149 191q0 84 66 141.5t178 57.5q150 0 238 -109l-89 -85q-26 33 -68 55t-88 22q-52 0 -81.5 -21.5t-29.5 -52.5q0 -29 20 -48t69 -39l109 -44q177 -71 177 -209
q0 -89 -69 -149t-187 -60q-189 0 -293 156zM249 791l42 139h135l-75 -139h-102z" />
    <glyph glyph-name="sacute" unicode="&#x15b;" horiz-adv-x="472" 
d="M25 102l89 65q57 -76 138 -76q34 0 53 12.5t19 33.5q0 36 -69 59l-70 24q-62 21 -94.5 61t-32.5 89q0 61 51.5 105.5t130.5 44.5q60 0 109.5 -26.5t76.5 -62.5l-84 -70q-40 53 -99 53q-28 0 -45 -12.5t-17 -31.5q0 -33 47 -48l78 -25q141 -46 141 -156q0 -68 -54 -112
t-141 -44q-148 0 -227 117zM185 586l42 139h135l-75 -139h-102z" />
    <glyph glyph-name="uni015E" unicode="&#x15e;" horiz-adv-x="604" 
d="M308 -225q-47 0 -81 20l28 56q24 -13 49 -13q31 0 31 24q0 12 -8.5 19t-22.5 7q-18 0 -35 -6l-31 31l39 73q-166 14 -260 155l101 77q75 -115 197 -115q56 0 87.5 23t31.5 62q0 31 -22 54.5t-82 46.5l-116 46q-149 58 -149 191q0 84 66 141.5t178 57.5q150 0 238 -109
l-89 -85q-26 33 -68 55t-88 22q-52 0 -81.5 -21.5t-29.5 -52.5q0 -29 20 -48t69 -39l109 -44q177 -71 177 -209q0 -82 -58.5 -139.5t-160.5 -67.5l-22 -40q38 -2 62.5 -24.5t24.5 -61.5q0 -40 -27 -63t-77 -23z" />
    <glyph glyph-name="uni015F" unicode="&#x15f;" horiz-adv-x="472" 
d="M242 -225q-47 0 -81 20l28 56q24 -13 49 -13q31 0 31 24q0 12 -8.5 19t-22.5 7q-18 0 -35 -6l-31 31l39 74q-118 15 -186 115l89 65q57 -76 138 -76q34 0 53 12.5t19 33.5q0 36 -69 59l-70 24q-62 21 -94.5 61t-32.5 89q0 61 51.5 105.5t130.5 44.5q60 0 109.5 -26.5
t76.5 -62.5l-84 -70q-40 53 -99 53q-28 0 -45 -12.5t-17 -31.5q0 -33 47 -48l78 -25q141 -46 141 -156q0 -62 -46 -105t-121 -50l-21 -39q38 -2 62.5 -24.5t24.5 -61.5q0 -40 -27 -63t-77 -23z" />
    <glyph glyph-name="Scaron" unicode="&#x160;" horiz-adv-x="604" 
d="M17 141l101 77q75 -115 197 -115q56 0 87.5 23t31.5 62q0 31 -22 54.5t-82 46.5l-116 46q-149 58 -149 191q0 84 66 141.5t178 57.5q150 0 238 -109l-89 -85q-26 33 -68 55t-88 22q-52 0 -81.5 -21.5t-29.5 -52.5q0 -29 20 -48t69 -39l109 -44q177 -71 177 -209
q0 -89 -69 -149t-187 -60q-189 0 -293 156zM154 930h102l49 -54l48 54h102l-91 -139h-119z" />
    <glyph glyph-name="scaron" unicode="&#x161;" horiz-adv-x="472" 
d="M25 102l89 65q57 -76 138 -76q34 0 53 12.5t19 33.5q0 36 -69 59l-70 24q-62 21 -94.5 61t-32.5 89q0 61 51.5 105.5t130.5 44.5q60 0 109.5 -26.5t76.5 -62.5l-84 -70q-40 53 -99 53q-28 0 -45 -12.5t-17 -31.5q0 -33 47 -48l78 -25q141 -46 141 -156q0 -68 -54 -112
t-141 -44q-148 0 -227 117zM90 725h102l49 -54l48 54h102l-91 -139h-119z" />
    <glyph glyph-name="Tcommaaccent" unicode="&#x162;" horiz-adv-x="570" 
d="M270 -225q-47 0 -81 20l28 56q24 -13 49 -13q31 0 31 24q0 12 -8.5 19t-22.5 7q-18 0 -35 -6l-31 31l46 87h-26v591h-205v119h540v-119h-205v-591h-34l-29 -53q38 -2 62.5 -24.5t24.5 -61.5q0 -40 -27 -63t-77 -23z" />
    <glyph glyph-name="tcommaaccent" unicode="&#x163;" horiz-adv-x="352" 
d="M193 -225q-47 0 -81 20l28 56q24 -13 49 -13q31 0 31 24q0 12 -8.5 19t-22.5 7q-19 0 -35 -6l-31 31l48 91q-86 42 -86 166v237h-75v98h75v165h126v-165h121v-98h-121v-239q0 -40 16.5 -57.5t50.5 -17.5q20 0 44 4l9 -106q-36 -6 -67 -6q-12 0 -32 2l-22 -40
q38 -2 62.5 -24.5t24.5 -61.5q0 -40 -27 -63t-77 -23z" />
    <glyph glyph-name="Tcaron" unicode="&#x164;" horiz-adv-x="570" 
d="M555 591h-205v-591h-130v591h-205v119h540v-119zM134 930h102l49 -54l48 54h102l-91 -139h-119z" />
    <glyph glyph-name="tcaron" unicode="&#x165;" horiz-adv-x="480" 
d="M351 472l40 238h129l-78 -238h-91zM331 -9q-36 -6 -67 -6q-92 0 -135.5 51t-43.5 134v237h-75v98h75v165h126v-165h121v-98h-121v-239q0 -40 16.5 -57.5t50.5 -17.5q20 0 44 4z" />
    <glyph glyph-name="Umacron" unicode="&#x16a;" horiz-adv-x="690" 
d="M60 278v432h130v-440q0 -82 41.5 -124t113.5 -42t113.5 42t41.5 124v440h130v-432q0 -142 -75 -217.5t-210 -75.5t-210 75.5t-75 217.5zM216 818v97h260v-97h-260z" />
    <glyph glyph-name="umacron" unicode="&#x16b;" horiz-adv-x="559" 
d="M379 0v61q-45 -76 -143 -76q-78 0 -132 50.5t-54 146.5v323h126v-293q0 -111 93 -111q48 0 76 32.5t28 87.5v284h126v-505h-120zM145 613v97h260v-97h-260z" />
    <glyph glyph-name="Uring" unicode="&#x16e;" horiz-adv-x="690" 
d="M60 278v432h130v-440q0 -82 41.5 -124t113.5 -42t113.5 42t41.5 124v440h130v-432q0 -142 -75 -217.5t-210 -75.5t-210 75.5t-75 217.5zM236 878q0 44 32 74t78 30q45 0 77.5 -30t32.5 -74t-32 -74t-78 -30q-45 0 -77.5 30t-32.5 74zM308 878q0 -16 11 -27t27 -11t27 11
t11 27t-11 27t-27 11t-27 -11t-11 -27z" />
    <glyph glyph-name="uring" unicode="&#x16f;" horiz-adv-x="559" 
d="M379 0v61q-45 -76 -143 -76q-78 0 -132 50.5t-54 146.5v323h126v-293q0 -111 93 -111q48 0 76 32.5t28 87.5v284h126v-505h-120zM165 673q0 44 32 74t78 30q45 0 77.5 -30t32.5 -74t-32 -74t-78 -30q-45 0 -77.5 30t-32.5 74zM237 673q0 -16 11 -27t27 -11t27 11t11 27
t-11 27t-27 11t-27 -11t-11 -27z" />
    <glyph glyph-name="Uhungarumlaut" unicode="&#x170;" horiz-adv-x="690" 
d="M60 278v432h130v-440q0 -82 41.5 -124t113.5 -42t113.5 42t41.5 124v440h130v-432q0 -142 -75 -217.5t-210 -75.5t-210 75.5t-75 217.5zM372 791l42 139h115l-65 -139h-92zM232 791l42 139h115l-65 -139h-92z" />
    <glyph glyph-name="uhungarumlaut" unicode="&#x171;" horiz-adv-x="559" 
d="M379 0v61q-45 -76 -143 -76q-78 0 -132 50.5t-54 146.5v323h126v-293q0 -111 93 -111q48 0 76 32.5t28 87.5v284h126v-505h-120zM301 586l42 139h115l-65 -139h-92zM161 586l42 139h115l-65 -139h-92z" />
    <glyph glyph-name="Uogonek" unicode="&#x172;" horiz-adv-x="690" 
d="M60 278v432h130v-440q0 -82 41.5 -124t113.5 -42t113.5 42t41.5 124v440h130v-432q0 -110 -47 -182t-131 -96q-40 -11 -70.5 -40t-30.5 -64q0 -43 47 -43q19 0 43 8l18 -71q-30 -15 -80 -15q-61 0 -95.5 29t-34.5 75q0 63 55 108q-116 11 -180 85.5t-64 205.5z" />
    <glyph glyph-name="uogonek" unicode="&#x173;" horiz-adv-x="559" 
d="M506 -210q-30 -15 -80 -15q-61 0 -95.5 29t-34.5 75q0 80 83 127v55q-45 -76 -143 -76q-78 0 -132 50.5t-54 146.5v323h126v-293q0 -111 93 -111q48 0 76 32.5t28 87.5v284h126v-505q-39 -9 -70 -39t-31 -65q0 -43 47 -43q19 0 43 8z" />
    <glyph glyph-name="Ycircumflex" unicode="&#x176;" horiz-adv-x="581" 
d="M358 0h-130v285l-238 425h150l158 -297l151 297h142l-233 -425v-285zM148 791l91 139h119l91 -139h-102l-48 54l-49 -54h-102z" />
    <glyph glyph-name="ycircumflex" unicode="&#x177;" horiz-adv-x="500" 
d="M244 -210h-126l76 207l-194 508h137l116 -361l116 361h131zM102 586l91 139h119l91 -139h-102l-48 54l-49 -54h-102z" />
    <glyph glyph-name="Ydieresis" unicode="&#x178;" horiz-adv-x="581" 
d="M358 0h-130v285l-238 425h150l158 -297l151 297h142l-233 -425v-285zM332 865q0 28 19 46.5t47 18.5t47 -18.5t19 -46.5q0 -27 -19.5 -48t-46.5 -21t-46.5 21t-19.5 48zM134 863q0 28 19 47.5t47 19.5t47.5 -19.5t19.5 -47.5q0 -27 -19.5 -47t-47.5 -20q-27 0 -46.5 20
t-19.5 47z" />
    <glyph glyph-name="Zacute" unicode="&#x179;" horiz-adv-x="573" 
d="M543 0h-513v84l333 507h-313v119h489v-81l-334 -510h338v-119zM242 791l42 139h135l-75 -139h-102z" />
    <glyph glyph-name="zacute" unicode="&#x17a;" horiz-adv-x="454" 
d="M430 0h-410v62l246 345h-224v98h392v-62l-245 -345h241v-98zM183 586l42 139h135l-75 -139h-102z" />
    <glyph glyph-name="Zdotaccent" unicode="&#x17b;" horiz-adv-x="573" 
d="M543 0h-513v84l333 507h-313v119h489v-81l-334 -510h338v-119zM223 869q0 31 22 53t53 22t53 -22t22 -53t-22 -53.5t-53 -22.5t-53 22.5t-22 53.5z" />
    <glyph glyph-name="zdotaccent" unicode="&#x17c;" horiz-adv-x="454" 
d="M430 0h-410v62l246 345h-224v98h392v-62l-245 -345h241v-98zM164 664q0 31 22 53t53 22t53 -22t22 -53t-22 -53.5t-53 -22.5t-53 22.5t-22 53.5z" />
    <glyph glyph-name="Zcaron" unicode="&#x17d;" horiz-adv-x="573" 
d="M543 0h-513v84l333 507h-313v119h489v-81l-334 -510h338v-119zM147 930h102l49 -54l48 54h102l-91 -139h-119z" />
    <glyph glyph-name="zcaron" unicode="&#x17e;" horiz-adv-x="454" 
d="M430 0h-410v62l246 345h-224v98h392v-62l-245 -345h241v-98zM88 725h102l49 -54l48 54h102l-91 -139h-119z" />
    <glyph glyph-name="uni0192" unicode="&#x192;" horiz-adv-x="321" 
d="M32 -225q-31 0 -67 6l9 106q24 -4 44 -4q32 0 47 17.5t15 57.5v449h-70v98h70v35q0 83 43.5 134t135.5 51q33 0 72 -6l-9 -106q-26 4 -49 4q-34 0 -50.5 -17.5t-16.5 -57.5v-37h105v-98h-105v-447q0 -83 -42.5 -134t-131.5 -51z" />
    <glyph glyph-name="uni0218" unicode="&#x218;" horiz-adv-x="604" 
d="M17 141l101 77q75 -115 197 -115q56 0 87.5 23t31.5 62q0 31 -22 54.5t-82 46.5l-116 46q-149 58 -149 191q0 84 66 141.5t178 57.5q150 0 238 -109l-89 -85q-26 33 -68 55t-88 22q-52 0 -81.5 -21.5t-29.5 -52.5q0 -29 20 -48t69 -39l109 -44q177 -71 177 -209
q0 -89 -69 -149t-187 -60q-189 0 -293 156zM212 -225l42 139h135l-75 -139h-102z" />
    <glyph glyph-name="uni0219" unicode="&#x219;" horiz-adv-x="472" 
d="M25 102l89 65q57 -76 138 -76q34 0 53 12.5t19 33.5q0 36 -69 59l-70 24q-62 21 -94.5 61t-32.5 89q0 61 51.5 105.5t130.5 44.5q60 0 109.5 -26.5t76.5 -62.5l-84 -70q-40 53 -99 53q-28 0 -45 -12.5t-17 -31.5q0 -33 47 -48l78 -25q141 -46 141 -156q0 -68 -54 -112
t-141 -44q-148 0 -227 117zM146 -225l42 139h135l-75 -139h-102z" />
    <glyph glyph-name="uni021A" unicode="&#x21a;" horiz-adv-x="570" 
d="M555 591h-205v-591h-130v591h-205v119h540v-119zM172 -225l42 139h135l-75 -139h-102z" />
    <glyph glyph-name="uni021B" unicode="&#x21b;" horiz-adv-x="348" 
d="M331 -9q-36 -6 -67 -6q-92 0 -135.5 51t-43.5 134v237h-75v98h75v165h126v-165h121v-98h-121v-239q0 -40 16.5 -57.5t50.5 -17.5q20 0 44 4zM97 -225l42 139h135l-75 -139h-102z" />
    <glyph glyph-name="circumflex" unicode="&#x2c6;" horiz-adv-x="301" 
d="M0 586l91 139h119l91 -139h-102l-48 54l-49 -54h-102z" />
    <glyph glyph-name="caron" unicode="&#x2c7;" horiz-adv-x="301" 
d="M0 725h102l49 -54l48 54h102l-91 -139h-119z" />
    <glyph glyph-name="breve" unicode="&#x2d8;" horiz-adv-x="291" 
d="M0 725h92q5 -51 54 -51q48 0 53 51h92q-4 -66 -43.5 -102.5t-101.5 -36.5t-102 36.5t-44 102.5z" />
    <glyph glyph-name="dotaccent" unicode="&#x2d9;" horiz-adv-x="150" 
d="M0 664q0 31 22 53t53 22t53 -22t22 -53t-22 -53.5t-53 -22.5t-53 22.5t-22 53.5z" />
    <glyph glyph-name="ring" unicode="&#x2da;" horiz-adv-x="220" 
d="M0 673q0 44 32 74t78 30q45 0 77.5 -30t32.5 -74t-32 -74t-78 -30q-45 0 -77.5 30t-32.5 74zM72 673q0 -16 11 -27t27 -11t27 11t11 27t-11 27t-27 11t-27 -11t-11 -27z" />
    <glyph glyph-name="ogonek" unicode="&#x2db;" horiz-adv-x="210" 
d="M0 -121q0 64 55.5 108t132.5 52l15 -39q-39 -9 -70 -39t-31 -65q0 -43 47 -43q19 0 43 8l18 -71q-30 -15 -80 -15q-61 0 -95.5 29t-34.5 75z" />
    <glyph glyph-name="tilde" unicode="&#x2dc;" horiz-adv-x="345" 
d="M0 601q1 58 33 91t77 33q40 0 75.5 -26t49.5 -26q13 0 22 10t9 27h79q-1 -58 -33 -91t-77 -33q-40 0 -75.5 26t-49.5 26q-13 0 -22 -10t-9 -27h-79z" />
    <glyph glyph-name="hungarumlaut" unicode="&#x2dd;" horiz-adv-x="297" 
d="M140 586l42 139h115l-65 -139h-92zM0 586l42 139h115l-65 -139h-92z" />
    <glyph glyph-name="pi" unicode="&#x3c0;" horiz-adv-x="546" 
d="M531 -10q-27 -5 -55 -5q-149 0 -149 150v244h-110l-35 -379h-116l35 379h-66v126h473v-126h-70v-236q0 -55 50 -55q18 0 34 3z" />
    <glyph glyph-name="uni0E3F" unicode="&#xe3f;" horiz-adv-x="636" 
d="M352 592h-152v-171h152q42 0 67 24.5t25 62.5q0 39 -24 61.5t-68 22.5zM370 311h-170v-191h167q49 0 75.5 25.5t26.5 68.5q0 42 -25.5 69.5t-73.5 27.5zM366 0h-1v-145h-115v145h-180v710h180v145h115v-145h5q93 0 147.5 -56t54.5 -135q0 -88 -75 -143q104 -59 104 -177
q0 -83 -63 -141t-172 -58z" />
    <glyph glyph-name="wgrave" unicode="&#x1e81;" horiz-adv-x="688" 
d="M423 0l-79 252l-79 -252h-132l-128 505h131l78 -360l87 335h86l92 -336l80 361h124l-128 -505h-132zM223 725h135l42 -139h-102z" />
    <glyph glyph-name="Ygrave" unicode="&#x1ef2;" horiz-adv-x="581" 
d="M358 0h-130v285l-238 425h150l158 -297l151 297h142l-233 -425v-285zM178 930h135l42 -139h-102z" />
    <glyph glyph-name="ygrave" unicode="&#x1ef3;" horiz-adv-x="500" 
d="M244 -210h-126l76 207l-194 508h137l116 -361l116 361h131zM132 725h135l42 -139h-102z" />
    <glyph glyph-name="endash" unicode="&#x2013;" horiz-adv-x="590" 
d="M70 229v112h450v-112h-450z" />
    <glyph glyph-name="emdash" unicode="&#x2014;" horiz-adv-x="720" 
d="M20 229v112h680v-112h-680z" />
    <glyph glyph-name="quoteleft" unicode="&#x2018;" horiz-adv-x="219" 
d="M194 710l-40 -238h-129l78 238h91z" />
    <glyph glyph-name="quoteright" unicode="&#x2019;" horiz-adv-x="219" 
d="M25 472l40 238h129l-78 -238h-91z" />
    <glyph glyph-name="quotesinglbase" unicode="&#x201a;" horiz-adv-x="219" 
d="M25 -119l40 238h129l-78 -238h-91z" />
    <glyph glyph-name="quotedblleft" unicode="&#x201c;" horiz-adv-x="383" 
d="M358 710l-40 -238h-129l78 238h91zM194 710l-40 -238h-129l78 238h91z" />
    <glyph glyph-name="quotedblright" unicode="&#x201d;" horiz-adv-x="383" 
d="M189 472l40 238h129l-78 -238h-91zM25 472l40 238h129l-78 -238h-91z" />
    <glyph glyph-name="quotedblbase" unicode="&#x201e;" horiz-adv-x="383" 
d="M189 -119l40 238h129l-78 -238h-91zM25 -119l40 238h129l-78 -238h-91z" />
    <glyph glyph-name="dagger" unicode="&#x2020;" horiz-adv-x="440" 
d="M285 330l-14 -330h-102l-14 330v126h-125v119h125v135h130v-135h125v-119h-125v-126z" />
    <glyph glyph-name="daggerdbl" unicode="&#x2021;" horiz-adv-x="440" 
d="M410 135h-125v-135h-130v135h-125v119h125v202h-125v119h125v135h130v-135h125v-119h-125v-202h125v-119z" />
    <glyph glyph-name="bullet" unicode="&#x2022;" horiz-adv-x="341" 
d="M60 282q0 46 32.5 78.5t78.5 32.5q45 0 77.5 -32.5t32.5 -78.5q0 -45 -32.5 -78.5t-77.5 -33.5q-46 0 -78.5 33.5t-32.5 78.5z" />
    <glyph glyph-name="ellipsis" unicode="&#x2026;" horiz-adv-x="710" 
d="M50 66q0 31 22 53t53 22t53 -22t22 -53t-22 -53.5t-53 -22.5t-53 22.5t-22 53.5zM280 66q0 31 22 53t53 22t53 -22t22 -53t-22 -53.5t-53 -22.5t-53 22.5t-22 53.5zM510 66q0 31 22 53t53 22t53 -22t22 -53t-22 -53.5t-53 -22.5t-53 22.5t-22 53.5z" />
    <glyph glyph-name="perthousand" unicode="&#x2030;" horiz-adv-x="1250" 
d="M30 536q0 79 49.5 132.5t126.5 53.5t126.5 -54t49.5 -132q0 -79 -49.5 -132.5t-126.5 -53.5t-126.5 54t-49.5 132zM180 0l390 710h125l-389 -710h-126zM132 536q0 -43 20.5 -69.5t53.5 -26.5t53.5 26.5t20.5 69.5q0 44 -20.5 70t-53.5 26t-53.5 -26t-20.5 -70zM873 174
q0 79 49.5 132.5t126.5 53.5t126.5 -54t49.5 -132q0 -79 -49.5 -132.5t-126.5 -53.5t-126.5 54t-49.5 132zM493 174q0 79 49.5 132.5t126.5 53.5t126.5 -54t49.5 -132q0 -79 -49.5 -132.5t-126.5 -53.5t-126.5 54t-49.5 132zM975 174q0 -43 20.5 -69.5t53.5 -26.5t53.5 26.5
t20.5 69.5q0 44 -20.5 70t-53.5 26t-53.5 -26t-20.5 -70zM595 174q0 -43 20.5 -69.5t53.5 -26.5t53.5 26.5t20.5 69.5q0 44 -20.5 70t-53.5 26t-53.5 -26t-20.5 -70z" />
    <glyph glyph-name="guilsinglleft" unicode="&#x2039;" horiz-adv-x="339" 
d="M40 242v75l239 188v-130l-131 -93l131 -96v-132z" />
    <glyph glyph-name="guilsinglright" unicode="&#x203a;" horiz-adv-x="339" 
d="M299 317v-75l-239 -188v130l131 93l-131 96v132z" />
    <glyph glyph-name="fraction" unicode="&#x2044;" horiz-adv-x="576" 
d="M0 0l453 710h123l-452 -710h-124z" />
    <glyph glyph-name="uni20A9" unicode="&#x20a9;" horiz-adv-x="870" 
d="M455 385l-23 97l-22 -97h45zM259 180l25 97h-44zM546 0l-65 277h-95l-62 -277h-148l-61 277h-105v108h81l-71 325h135l64 -325h94l77 295h92l78 -295h95l64 325h131l-71 -325h81v-108h-105l-61 -277h-148zM615 179l19 98h-45z" />
    <glyph glyph-name="uni20AA" unicode="&#x20aa;" horiz-adv-x="806" 
d="M70 0v710h222q142 0 200 -61.5t58 -198.5v-240h-116v255q0 71 -30.5 101t-100.5 30h-107v-596h-126zM256 260v240h116v-255q0 -71 30.5 -101t100.5 -30h107v596h126v-710h-222q-142 0 -200 61.5t-58 198.5z" />
    <glyph glyph-name="Euro" unicode="&#x20ac;" horiz-adv-x="718" 
d="M698 77q-43 -41 -107.5 -66.5t-136.5 -25.5q-120 0 -207 63t-123 170h-114v108h93q-1 10 -1 30q0 18 1 27h-93v108h113q36 108 123.5 171t207.5 63q147 0 239 -90l-77 -92q-63 63 -163 63q-62 0 -110 -30.5t-76 -84.5h243v-108h-273q-1 -9 -1 -27q0 -20 1 -30h273v-108
h-242q28 -53 76 -83.5t109 -30.5q101 0 168 65z" />
    <glyph glyph-name="uni20B9" unicode="&#x20b9;" horiz-adv-x="548" 
d="M382 89q41 -52 83 -89h-169q-32 26 -70 76l-166 216v101h121q67 0 93 55h-214v102h213q-27 52 -95 52h-118v108h478v-108h-169q23 -22 36 -52h133v-102h-125q-13 -63 -65.5 -104.5t-131.5 -49.5z" />
    <glyph glyph-name="uni20BA" unicode="&#x20ba;" horiz-adv-x="555" 
d="M202 0h-122v159l-70 -48v116l70 48v62l-70 -48v116l70 48v257h126v-170l120 83v-116l-120 -83v-62l120 83v-116l-120 -83v-132h8q104 0 155.5 53t51.5 151l124 -4q0 -147 -92.5 -230.5t-250.5 -83.5z" />
    <glyph glyph-name="uni20BD" unicode="&#x20bd;" horiz-adv-x="602" 
d="M334 590h-94v-202h97q52 0 77.5 29t25.5 75q0 43 -26.5 70.5t-79.5 27.5zM410 115h-170v-115h-130v115h-100v108h100v57h-100v108h100v322h244q98 0 158 -63t60 -155t-59.5 -152t-160.5 -60h-112v-57h170v-108z" />
    <glyph glyph-name="uni20BE" unicode="&#x20be;" horiz-adv-x="687" 
d="M617 0h-547v112h120q-65 44 -102.5 116.5t-37.5 156.5q0 107 54 192t146 123v155h103v-131q10 1 29 1t28 -1v131h103v-155q113 -47 164 -161l-114 -58q-18 44 -50 76v-202h-103v254q-18 2 -28 2q-11 0 -29 -2v-254h-103v202q-66 -68 -66 -172q0 -129 76 -201t230 -72h127
v-112z" />
    <glyph glyph-name="uni2117" unicode="&#x2117;" horiz-adv-x="860" 
d="M60 355q0 157 107 263.5t263 106.5t263 -106.5t107 -263.5t-107 -263.5t-263 -106.5t-263 106.5t-107 263.5zM160 355q0 -117 77 -196t193 -79t193 79t77 196t-77 196t-193 79t-193 -79t-77 -196zM441 469h-43v-111h45q35 0 52 16t17 40t-17.5 39.5t-53.5 15.5zM450 273
h-52v-126h-93v407h145q70 0 113.5 -40.5t43.5 -99.5q0 -60 -43.5 -100.5t-113.5 -40.5z" />
    <glyph glyph-name="trademark" unicode="&#x2122;" horiz-adv-x="869" 
d="M337 620h-114v-338h-99v338h-114v90h327v-90zM580 311l-90 187v-216h-96v428h89l122 -242l115 242h89v-428h-96v216l-90 -187h-43z" />
    <glyph glyph-name="uni2126" unicode="&#x2126;" horiz-adv-x="763" 
d="M337 99v-99h-267v112h107q-59 48 -93 121t-34 152q0 144 93 242t239 98q145 0 238 -98t93 -242q0 -79 -34 -152t-93 -121h108v-112h-267v99q72 43 114.5 118.5t42.5 167.5q0 87 -56.5 149t-145.5 62q-90 0 -146.5 -62t-56.5 -149q0 -91 42.5 -167t115.5 -119z" />
    <glyph glyph-name="estimated" unicode="&#x212e;" horiz-adv-x="854" 
d="M430 684q-130 0 -220 -87v-216h440v216q-90 87 -220 87zM758 210q-41 -100 -130 -160t-198 -60q-150 0 -255 104.5t-105 260.5t105 260.5t255 104.5t255 -104.5t105 -260.5v-10h-580v-232q90 -87 220 -87q95 0 172.5 49.5t115.5 134.5h40z" />
    <glyph glyph-name="uni2190" unicode="&#x2190;" horiz-adv-x="760" 
d="M420 120l-85 -85l-325 325l325 325l85 -85l-193 -182h508v-116h-508z" />
    <glyph glyph-name="arrowup" unicode="&#x2191;" horiz-adv-x="680" 
d="M580 315l-182 193v-508h-116v508l-182 -193l-85 85l325 325l325 -325z" />
    <glyph glyph-name="uni2192" unicode="&#x2192;" horiz-adv-x="760" 
d="M425 35l-85 85l193 182h-508v116h508l-193 182l85 85l325 -325z" />
    <glyph glyph-name="arrowdown" unicode="&#x2193;" horiz-adv-x="680" 
d="M340 -15l-325 325l85 85l182 -193v508h116v-508l182 193l85 -85z" />
    <glyph glyph-name="uni2196" unicode="&#x2196;" horiz-adv-x="680" 
d="M643 148l-82 -82l-359 359l8 -265h-120v460h459v-120l-266 8z" />
    <glyph glyph-name="uni2197" unicode="&#x2197;" horiz-adv-x="680" 
d="M470 160l8 265l-359 -359l-82 82l360 360l-266 -8v120h459v-460h-120z" />
    <glyph glyph-name="uni2198" unicode="&#x2198;" horiz-adv-x="680" 
d="M590 90h-459v120l266 -8l-360 360l82 82l359 -359l-8 265h120v-460z" />
    <glyph glyph-name="uni2199" unicode="&#x2199;" horiz-adv-x="680" 
d="M549 90h-459v460h120l-8 -265l359 359l82 -82l-360 -360l266 8v-120z" />
    <glyph glyph-name="partialdiff" unicode="&#x2202;" horiz-adv-x="575" 
d="M280 -15q-99 0 -172 66.5t-73 169.5t65.5 169.5t149.5 66.5q87 0 138 -53q-30 77 -99 127t-171 69l30 125q98 -18 175 -67t121.5 -114t67.5 -134.5t23 -135.5q0 -129 -69 -209t-186 -80zM164 221q0 -56 33.5 -92.5t87.5 -36.5q56 0 89.5 37.5t33.5 96.5q0 56 -32.5 90
t-87.5 34q-56 0 -90 -36t-34 -93z" />
    <glyph glyph-name="uni2206" unicode="&#x2206;" horiz-adv-x="644" 
d="M458 116l-139 433l-137 -433h276zM10 0l240 710h144l240 -710h-624z" />
    <glyph glyph-name="product" unicode="&#x220f;" horiz-adv-x="686" 
d="M70 0v710h546v-710h-130v591h-286v-591h-130z" />
    <glyph glyph-name="summation" unicode="&#x2211;" horiz-adv-x="563" 
d="M30 0v84l238 277l-230 255v94h480v-112h-297l174 -191v-80l-178 -208h316v-119h-503z" />
    <glyph glyph-name="minus" unicode="&#x2212;" horiz-adv-x="530" 
d="M65 272v110h400v-110h-400z" />
    <glyph glyph-name="uni2219" unicode="&#x2219;" horiz-adv-x="341" 
d="M60 282q0 46 32.5 78.5t78.5 32.5q45 0 77.5 -32.5t32.5 -78.5q0 -45 -32.5 -78.5t-77.5 -33.5q-46 0 -78.5 33.5t-32.5 78.5z" />
    <glyph glyph-name="radical" unicode="&#x221a;" horiz-adv-x="611" 
d="M376 0h-132l-145 398h-99v107h197l116 -361l187 566h131z" />
    <glyph glyph-name="infinity" unicode="&#x221e;" horiz-adv-x="756" 
d="M530 141q-56 0 -99.5 26.5t-67.5 72.5q-21 -46 -61.5 -72.5t-92.5 -26.5q-71 0 -122.5 53t-51.5 134q0 78 56 132.5t135 54.5q57 0 100 -26.5t67 -72.5q21 46 62 72.5t92 26.5q71 0 122.5 -53t51.5 -134q0 -78 -56 -132.5t-135 -54.5zM531 249q32 0 54.5 23t22.5 56
q0 34 -20 57.5t-55 23.5q-32 0 -58.5 -24t-34.5 -57l11 -21q30 -58 80 -58zM223 247q32 0 58.5 24t34.5 57l-11 21q-30 58 -80 58q-32 0 -54.5 -23t-22.5 -56q0 -34 20 -57.5t55 -23.5z" />
    <glyph glyph-name="integral" unicode="&#x222b;" horiz-adv-x="347" 
d="M25 -220l9 101q16 -3 34 -3q50 0 50 55v642q0 150 149 150q28 0 55 -5l-9 -101q-16 3 -34 3q-50 0 -50 -55v-642q0 -150 -149 -150q-28 0 -55 5z" />
    <glyph glyph-name="approxequal" unicode="&#x2248;" horiz-adv-x="530" 
d="M65 349v110q48 30 105 30q34 0 92.5 -20t97.5 -20q55 0 105 30v-110q-48 -30 -105 -30q-34 0 -92.5 20t-97.5 20q-55 0 -105 -30zM65 174v110q48 30 105 30q34 0 92.5 -20t97.5 -20q55 0 105 30v-110q-48 -30 -105 -30q-34 0 -92.5 20t-97.5 20q-55 0 -105 -30z" />
    <glyph glyph-name="notequal" unicode="&#x2260;" horiz-adv-x="530" 
d="M465 184h-224l-60 -100h-121l60 100h-55v110h120l39 65h-159v110h224l60 100h121l-60 -100h55v-110h-120l-39 -65h159v-110z" />
    <glyph glyph-name="lessequal" unicode="&#x2264;" horiz-adv-x="530" 
d="M460 574v-116l-250 -62l250 -62v-120l-390 120v120zM460 80h-390v110h390v-110z" />
    <glyph glyph-name="greaterequal" unicode="&#x2265;" horiz-adv-x="530" 
d="M70 214v116l250 62l-250 62v120l390 -120v-120zM70 80v110h390v-110h-390z" />
    <glyph glyph-name="uni24EA" unicode="&#x24ea;" 
d="M50 355q0 157 107 263.5t263 106.5t263 -106.5t107 -263.5t-107 -263.5t-263 -106.5t-263 106.5t-107 263.5zM150 355q0 -117 77 -196t193 -79t193 79t77 196t-77 196t-193 79t-193 -79t-77 -196zM262 355q0 83 45 134.5t113 51.5q67 0 112.5 -51.5t45.5 -134.5
q0 -84 -44.5 -135t-113.5 -51q-67 0 -112.5 51.5t-45.5 134.5zM360 355q0 -45 17 -73.5t43 -28.5t43 28.5t17 73.5q0 47 -16.5 74.5t-43.5 27.5t-43.5 -27.5t-16.5 -74.5z" />
    <glyph glyph-name="uni24FF" unicode="&#x24ff;" 
d="M50 355q0 157 107 263.5t263 106.5t263 -106.5t107 -263.5t-107 -263.5t-263 -106.5t-263 106.5t-107 263.5zM262 355q0 -83 45.5 -134.5t112.5 -51.5q69 0 113.5 51t44.5 135q0 83 -45.5 134.5t-112.5 51.5q-68 0 -113 -51.5t-45 -134.5zM360 355q0 47 16.5 74.5
t43.5 27.5t43.5 -27.5t16.5 -74.5q0 -45 -17 -73.5t-43 -28.5t-43 28.5t-17 73.5z" />
    <glyph glyph-name="lozenge" unicode="&#x25ca;" horiz-adv-x="580" 
d="M40 305l184 405h132l184 -405l-184 -405h-132zM169 313l124 -301l118 285l-124 301z" />
    <glyph glyph-name="uni2780" unicode="&#x2780;" 
d="M50 355q0 157 107 263.5t263 106.5t263 -106.5t107 -263.5t-107 -263.5t-263 -106.5t-263 106.5t-107 263.5zM150 355q0 -117 77 -196t193 -79t193 79t77 196t-77 196t-193 79t-193 -79t-77 -196zM470 181h-97v221h-60v57q71 9 87 70h70v-348z" />
    <glyph glyph-name="uni2781" unicode="&#x2781;" 
d="M50 355q0 157 107 263.5t263 106.5t263 -106.5t107 -263.5t-107 -263.5t-263 -106.5t-263 106.5t-107 263.5zM150 355q0 -117 77 -196t193 -79t193 79t77 196t-77 196t-193 79t-193 -79t-77 -196zM551 181h-273v59l119 98q32 28 43.5 43t11.5 32t-11 30.5t-29 13.5
q-20 0 -31.5 -15t-11.5 -35q0 -13 3 -27l-88 2q-2 20 -2 31q0 59 38.5 93.5t95.5 34.5q59 0 95.5 -34t36.5 -87q0 -58 -68 -112l-51 -43h122v-84z" />
    <glyph glyph-name="uni2782" unicode="&#x2782;" 
d="M50 355q0 157 107 263.5t263 106.5t263 -106.5t107 -263.5t-107 -263.5t-263 -106.5t-263 106.5t-107 263.5zM150 355q0 -117 77 -196t193 -79t193 79t77 196t-77 196t-193 79t-193 -79t-77 -196zM414 169q-54 0 -94.5 24t-55.5 74l89 22q13 -37 58 -37q48 0 48 38
q0 33 -51 33h-28v65h26q21 0 32.5 10t11.5 25q0 14 -11 24t-29 10q-37 0 -45 -38l-89 12q10 54 50 82t91 28q55 0 92 -29.5t37 -69.5q0 -54 -51 -79q30 -12 46 -35.5t16 -49.5q0 -47 -39 -78t-104 -31z" />
    <glyph glyph-name="uni2783" unicode="&#x2783;" 
d="M50 355q0 157 107 263.5t263 106.5t263 -106.5t107 -263.5t-107 -263.5t-263 -106.5t-263 106.5t-107 263.5zM150 355q0 -117 77 -196t193 -79t193 79t77 196t-77 196t-193 79t-193 -79t-77 -196zM347 316h55v88zM536 241h-44v-60h-90v60h-148v59l151 229h87v-213h44v-75
z" />
    <glyph glyph-name="uni2784" unicode="&#x2784;" 
d="M50 355q0 157 107 263.5t263 106.5t263 -106.5t107 -263.5t-107 -263.5t-263 -106.5t-263 106.5t-107 263.5zM150 355q0 -117 77 -196t193 -79t193 79t77 196t-77 196t-193 79t-193 -79t-77 -196zM416 169q-54 0 -90 24t-50 64l89 27q10 -33 46 -33q20 0 32.5 11t12.5 30
t-12.5 30.5t-33.5 11.5q-35 0 -46 -29l-78 16l14 208h229v-81h-152l-5 -65q28 22 69 22q46 0 78 -32.5t32 -80.5q0 -51 -37.5 -87t-97.5 -36z" />
    <glyph glyph-name="uni2785" unicode="&#x2785;" 
d="M50 355q0 157 107 263.5t263 106.5t263 -106.5t107 -263.5t-107 -263.5t-263 -106.5t-263 106.5t-107 263.5zM150 355q0 -117 77 -196t193 -79t193 79t77 196t-77 196t-193 79t-193 -79t-77 -196zM416 169q-62 0 -103.5 38t-41.5 99q0 54 39 120t84 103h122
q-96 -69 -129 -140q29 16 63 16q45 0 77.5 -30t32.5 -80q0 -54 -42 -90t-102 -36zM368 290q0 -18 13.5 -30.5t34.5 -12.5t34.5 12.5t13.5 30.5q0 20 -13 32.5t-35 12.5t-35 -12.5t-13 -32.5z" />
    <glyph glyph-name="uni2786" unicode="&#x2786;" 
d="M50 355q0 157 107 263.5t263 106.5t263 -106.5t107 -263.5t-107 -263.5t-263 -106.5t-263 106.5t-107 263.5zM150 355q0 -117 77 -196t193 -79t193 79t77 196t-77 196t-193 79t-193 -79t-77 -196zM287 445v84h263v-46l-125 -302h-106l118 264h-150z" />
    <glyph glyph-name="uni2787" unicode="&#x2787;" 
d="M50 355q0 157 107 263.5t263 106.5t263 -106.5t107 -263.5t-107 -263.5t-263 -106.5t-263 106.5t-107 263.5zM150 355q0 -117 77 -196t193 -79t193 79t77 196t-77 196t-193 79t-193 -79t-77 -196zM420 169q-63 0 -105.5 30.5t-42.5 77.5q0 57 60 88q-49 27 -49 76
q0 42 38 71t99 29t99 -29t38 -71q0 -49 -49 -76q60 -31 60 -88q0 -47 -42.5 -77.5t-105.5 -30.5zM379 433q0 -15 11.5 -25.5t29.5 -10.5t29.5 10.5t11.5 25.5t-11.5 25.5t-29.5 10.5t-29.5 -10.5t-11.5 -25.5zM371 289q0 -19 13 -31.5t36 -12.5t36 12.5t13 31.5t-13 31.5
t-36 12.5t-36 -12.5t-13 -31.5z" />
    <glyph glyph-name="uni2788" unicode="&#x2788;" 
d="M50 355q0 157 107 263.5t263 106.5t263 -106.5t107 -263.5t-107 -263.5t-263 -106.5t-263 106.5t-107 263.5zM150 355q0 -117 77 -196t193 -79t193 79t77 196t-77 196t-193 79t-193 -79t-77 -196zM446 181h-122q96 69 129 140q-29 -16 -63 -16q-45 0 -77.5 30t-32.5 80
q0 54 42 90t102 36q62 0 103.5 -38t41.5 -99q0 -54 -39 -120t-84 -103zM376 420q0 -20 13 -32.5t35 -12.5t35 12.5t13 32.5q0 18 -13.5 30.5t-34.5 12.5t-34.5 -12.5t-13.5 -30.5z" />
    <glyph glyph-name="uni278A" unicode="&#x278a;" 
d="M50 355q0 157 107 263.5t263 106.5t263 -106.5t107 -263.5t-107 -263.5t-263 -106.5t-263 106.5t-107 263.5zM470 181v348h-70q-16 -61 -87 -70v-57h60v-221h97z" />
    <glyph glyph-name="uni278B" unicode="&#x278b;" 
d="M50 355q0 157 107 263.5t263 106.5t263 -106.5t107 -263.5t-107 -263.5t-263 -106.5t-263 106.5t-107 263.5zM551 181v84h-122l51 43q68 54 68 112q0 53 -36.5 87t-95.5 34q-57 0 -95.5 -34.5t-38.5 -93.5q0 -11 2 -31l88 -2q-3 14 -3 27q0 20 11.5 35t31.5 15
q18 0 29 -13.5t11 -30.5t-11.5 -32t-43.5 -43l-119 -98v-59h273z" />
    <glyph glyph-name="uni278C" unicode="&#x278c;" 
d="M50 355q0 157 107 263.5t263 106.5t263 -106.5t107 -263.5t-107 -263.5t-263 -106.5t-263 106.5t-107 263.5zM414 169q65 0 104 31t39 78q0 26 -16 49.5t-46 35.5q51 25 51 79q0 40 -37 69.5t-92 29.5q-51 0 -91 -28t-50 -82l89 -12q8 38 45 38q18 0 29 -10t11 -24
q0 -15 -11.5 -25t-32.5 -10h-26v-65h28q51 0 51 -33q0 -38 -48 -38q-45 0 -58 37l-89 -22q15 -50 55.5 -74t94.5 -24z" />
    <glyph glyph-name="uni278D" unicode="&#x278d;" 
d="M50 355q0 157 107 263.5t263 106.5t263 -106.5t107 -263.5t-107 -263.5t-263 -106.5t-263 106.5t-107 263.5zM536 241v75h-44v213h-87l-151 -229v-59h148v-60h90v60h44zM347 316l55 88v-88h-55z" />
    <glyph glyph-name="uni278E" unicode="&#x278e;" 
d="M50 355q0 157 107 263.5t263 106.5t263 -106.5t107 -263.5t-107 -263.5t-263 -106.5t-263 106.5t-107 263.5zM416 169q60 0 97.5 36t37.5 87q0 48 -32 80.5t-78 32.5q-41 0 -69 -22l5 65h152v81h-229l-14 -208l78 -16q11 29 46 29q21 0 33.5 -11.5t12.5 -30.5t-12.5 -30
t-32.5 -11q-36 0 -46 33l-89 -27q14 -40 50 -64t90 -24z" />
    <glyph glyph-name="uni278F" unicode="&#x278f;" 
d="M50 355q0 157 107 263.5t263 106.5t263 -106.5t107 -263.5t-107 -263.5t-263 -106.5t-263 106.5t-107 263.5zM416 169q60 0 102 36t42 90q0 50 -32.5 80t-77.5 30q-34 0 -63 -16q33 71 129 140h-122q-45 -37 -84 -103t-39 -120q0 -61 41.5 -99t103.5 -38zM368 290
q0 20 13 32.5t35 12.5t35 -12.5t13 -32.5q0 -18 -13.5 -30.5t-34.5 -12.5t-34.5 12.5t-13.5 30.5z" />
    <glyph glyph-name="uni2790" unicode="&#x2790;" 
d="M50 355q0 157 107 263.5t263 106.5t263 -106.5t107 -263.5t-107 -263.5t-263 -106.5t-263 106.5t-107 263.5zM287 445h150l-118 -264h106l125 302v46h-263v-84z" />
    <glyph glyph-name="uni2791" unicode="&#x2791;" 
d="M50 355q0 157 107 263.5t263 106.5t263 -106.5t107 -263.5t-107 -263.5t-263 -106.5t-263 106.5t-107 263.5zM420 169q63 0 105.5 30.5t42.5 77.5q0 57 -60 88q49 27 49 76q0 42 -38 71t-99 29t-99 -29t-38 -71q0 -49 49 -76q-60 -31 -60 -88q0 -47 42.5 -77.5
t105.5 -30.5zM379 433q0 15 11.5 25.5t29.5 10.5t29.5 -10.5t11.5 -25.5t-11.5 -25.5t-29.5 -10.5t-29.5 10.5t-11.5 25.5zM371 289q0 19 13 31.5t36 12.5t36 -12.5t13 -31.5t-13 -31.5t-36 -12.5t-36 12.5t-13 31.5z" />
    <glyph glyph-name="uni2792" unicode="&#x2792;" 
d="M50 355q0 157 107 263.5t263 106.5t263 -106.5t107 -263.5t-107 -263.5t-263 -106.5t-263 106.5t-107 263.5zM446 181q45 37 84 103t39 120q0 61 -41.5 99t-103.5 38q-60 0 -102 -36t-42 -90q0 -50 32.5 -80t77.5 -30q34 0 63 16q-33 -71 -129 -140h122zM376 420
q0 18 13.5 30.5t34.5 12.5t34.5 -12.5t13.5 -30.5q0 -20 -13 -32.5t-35 -12.5t-35 12.5t-13 32.5z" />
    <glyph glyph-name="uni27F7" unicode="&#x27f7;" horiz-adv-x="1100" 
d="M765 35l-85 85l193 182h-646l193 -182l-85 -85l-325 325l325 325l85 -85l-193 -182h646l-193 182l85 85l325 -325z" />
    <glyph glyph-name="uniF8FF" unicode="&#xf8ff;" horiz-adv-x="575" 
d="M425 515v-275h-275v275h275zM317 394h55v14h-40v18h33v14h-33v15h39v14h-54v-75zM259 469h-55v-75h16v32h33v14h-33v15h39v14zM259 300h-39v18h32v15h-32v14h38v14h-54v-75h55v14zM341 286q18 0 25.5 8.5t7.5 29.5t-7 29t-24 8h-28v-75h26zM342 347q17 0 17 -23
q0 -14 -3.5 -19t-14.5 -5h-11v47h12z" />
    <glyph glyph-name="fi" unicode="&#xfb01;" horiz-adv-x="577" 
d="M374 664q0 31 22 53t53 22t53 -22t22 -53t-22 -53.5t-53 -22.5t-53 22.5t-22 53.5zM386 0v407h-180v-407h-126v407h-70v98h70v35q0 83 43.5 134t135.5 51q33 0 72 -6l-9 -106q-26 4 -49 4q-34 0 -50.5 -17.5t-16.5 -57.5v-37h306v-505h-126z" />
    <glyph glyph-name="fl" unicode="&#xfb02;" horiz-adv-x="577" 
d="M386 0v710h126v-710h-126zM311 407h-105v-407h-126v407h-70v98h70v35q0 83 43.5 134t135.5 51q33 0 72 -6l-9 -106q-26 4 -49 4q-34 0 -50.5 -17.5t-16.5 -57.5v-37h105v-98z" />
    <glyph glyph-name="zeroslash" horiz-adv-x="642" 
d="M45 355q0 172 74.5 271t201.5 99t201.5 -99t74.5 -271t-74.5 -271t-201.5 -99t-201.5 99t-74.5 271zM179 355q0 -53 7 -91l225 297q-36 45 -90 45q-68 0 -105 -66.5t-37 -184.5zM321 104q68 0 105 66.5t37 184.5q0 54 -7 93l-226 -297q35 -47 91 -47z" />
    <glyph glyph-name="zeroslash.tnum" horiz-adv-x="640" 
d="M54 355q0 172 71.5 271t194.5 99q122 0 194 -99t72 -271t-71.5 -271t-194.5 -99q-122 0 -194 99t-72 271zM188 355q0 -41 5 -81l215 282q-34 50 -88 50q-63 0 -97.5 -66.5t-34.5 -184.5zM320 104q63 0 97.5 66.5t34.5 184.5q0 41 -5 81l-215 -282q34 -50 88 -50z" />
    <glyph glyph-name="zero.tnum" horiz-adv-x="640" 
d="M54 355q0 172 71.5 271t194.5 99q122 0 194 -99t72 -271t-71.5 -271t-194.5 -99q-122 0 -194 99t-72 271zM188 355q0 -118 34.5 -184.5t97.5 -66.5t97.5 66.5t34.5 184.5t-34.5 184.5t-97.5 66.5t-97.5 -66.5t-34.5 -184.5z" />
    <glyph glyph-name="one.tnum" horiz-adv-x="640" 
d="M546 0h-441v119h160v373h-155v80q152 16 185 138h100v-591h151v-119z" />
    <glyph glyph-name="two.tnum" horiz-adv-x="640" 
d="M556 0h-460v90l171 173q80 81 114.5 134t34.5 107q0 46 -27.5 74t-75.5 28q-50 0 -76 -29t-26 -80q0 -24 4 -48l-125 3q-3 24 -3 46q0 103 66.5 165t161.5 62q105 0 169 -62t64 -159q0 -77 -44 -143t-140 -162l-80 -80h272v-119z" />
    <glyph glyph-name="three.tnum" horiz-adv-x="640" 
d="M312 -15q-86 0 -159.5 52.5t-94.5 158.5l126 28q29 -120 126 -120q50 0 82 29t32 76q0 48 -31 77t-97 29h-50v99h50q60 0 86.5 28t26.5 74q0 39 -25.5 64.5t-67.5 25.5q-96 0 -111 -121l-121 14q11 113 79 169.5t157 56.5q91 0 155.5 -58.5t64.5 -141.5q0 -95 -79 -152
q45 -25 70.5 -68t25.5 -97q0 -96 -69.5 -159.5t-175.5 -63.5z" />
    <glyph glyph-name="four.tnum" horiz-adv-x="640" 
d="M185 264h175v259zM581 145h-95v-145h-126v145h-310v107l310 458h126v-446h95v-119z" />
    <glyph glyph-name="five.tnum" horiz-adv-x="640" 
d="M322 -15q-98 0 -165 53.5t-90 142.5l123 35q13 -49 50.5 -80.5t81.5 -31.5q49 0 83.5 36.5t34.5 91.5q0 57 -34 93t-91 36q-45 0 -79.5 -23t-46.5 -58l-109 21l45 409h403v-119h-291l-18 -144q55 33 121 33q103 0 168.5 -70t65.5 -178q0 -110 -70 -178.5t-182 -68.5z" />
    <glyph glyph-name="six.tnum" horiz-adv-x="640" 
d="M320 -15q-105 0 -179 74t-74 195q0 67 23 138.5t60 132t72 105.5t70 80h182q-70 -55 -131 -126t-92 -135q47 28 99 28q89 0 156 -66t67 -172q0 -111 -73 -182.5t-180 -71.5zM200 231q0 -57 32.5 -92t87.5 -35q54 0 87 35.5t33 91.5q0 57 -32.5 92t-87.5 35t-87.5 -35
t-32.5 -92z" />
    <glyph glyph-name="seven.tnum" horiz-adv-x="640" 
d="M81 591v119h485v-65l-243 -645h-150l241 591h-333z" />
    <glyph glyph-name="eight.tnum" horiz-adv-x="640" 
d="M320 -15q-106 0 -178.5 64t-72.5 161q0 114 101 173q-75 51 -75 142q0 84 64 142t161 58t161 -58t64 -142q0 -91 -75 -142q101 -59 101 -173q0 -97 -72.5 -161t-178.5 -64zM224 515q0 -42 26.5 -67.5t69.5 -25.5t69.5 25.5t26.5 67.5t-26.5 67.5t-69.5 25.5t-69.5 -25.5
t-26.5 -67.5zM199 215q0 -48 33 -79.5t88 -31.5t88 31.5t33 79.5t-33 79.5t-88 31.5t-88 -31.5t-33 -79.5z" />
    <glyph glyph-name="nine.tnum" horiz-adv-x="640" 
d="M348 0h-182q70 55 131 126t92 135q-47 -28 -99 -28q-89 0 -156 66t-67 172q0 111 73 182.5t180 71.5q105 0 179 -74t74 -195q0 -67 -23 -138.5t-60 -132t-72 -105.5t-70 -80zM200 479q0 -57 32.5 -92t87.5 -35t87.5 35t32.5 92t-32.5 92t-87.5 35q-54 0 -87 -35.5
t-33 -91.5z" />
    <glyph glyph-name="zero.num" horiz-adv-x="376" 
d="M30 536q0 83 45 134.5t113 51.5q67 0 112.5 -51.5t45.5 -134.5q0 -84 -44.5 -135t-113.5 -51q-67 0 -112.5 51.5t-45.5 134.5zM128 536q0 -45 17 -73.5t43 -28.5t43 28.5t17 73.5q0 47 -16.5 74.5t-43.5 27.5t-43.5 -27.5t-16.5 -74.5z" />
    <glyph glyph-name="one.num" horiz-adv-x="222" 
d="M172 362h-97v221h-60v57q71 9 87 70h70v-348z" />
    <glyph glyph-name="two.num" horiz-adv-x="324" 
d="M296 362h-273v59l119 98q32 28 43.5 43t11.5 32q0 18 -11 31t-29 13q-20 0 -31.5 -15t-11.5 -35q0 -14 3 -27l-88 2q-2 20 -2 31q0 59 38.5 93.5t95.5 34.5q59 0 95.5 -34t36.5 -87q0 -58 -68 -112l-51 -43h122v-84z" />
    <glyph glyph-name="three.num" horiz-adv-x="328" 
d="M160 350q-54 0 -94.5 24t-55.5 74l89 22q13 -37 58 -37q48 0 48 38q0 33 -51 33h-28v65h26q21 0 32.5 10t11.5 25q0 14 -11 24t-29 10q-37 0 -45 -38l-89 12q10 54 50 82t91 28q55 0 92 -29.5t37 -69.5q0 -54 -51 -79q30 -12 46 -35.5t16 -49.5q0 -47 -39 -78t-104 -31z
" />
    <glyph glyph-name="four.num" horiz-adv-x="302" 
d="M103 497h55v88zM292 422h-44v-60h-90v60h-148v59l151 229h87v-213h44v-75z" />
    <glyph glyph-name="five.num" horiz-adv-x="325" 
d="M165 350q-54 0 -90 24t-50 64l89 27q10 -33 46 -33q20 0 32.5 11t12.5 30t-12.5 30.5t-33.5 11.5q-35 0 -46 -29l-78 16l14 208h229v-81h-152l-5 -65q28 22 69 22q46 0 78 -32.5t32 -80.5q0 -51 -37.5 -87t-97.5 -36z" />
    <glyph glyph-name="six.num" horiz-adv-x="342" 
d="M173 350q-62 0 -103.5 38t-41.5 99q0 54 39 120t84 103h122q-96 -69 -129 -140q29 16 63 16q45 0 77.5 -30t32.5 -80q0 -54 -42 -90t-102 -36zM125 471q0 -18 13.5 -30.5t34.5 -12.5t34.5 12.5t13.5 30.5q0 20 -13 32.5t-35 12.5t-35 -12.5t-13 -32.5z" />
    <glyph glyph-name="seven.num" horiz-adv-x="275" 
d="M5 626v84h263v-46l-125 -302h-106l118 264h-150z" />
    <glyph glyph-name="eight.num" horiz-adv-x="346" 
d="M173 350q-63 0 -105.5 30.5t-42.5 77.5q0 57 60 88q-49 27 -49 76q0 42 38 71t99 29t99 -29t38 -71q0 -49 -49 -76q60 -31 60 -88q0 -47 -42.5 -77.5t-105.5 -30.5zM132 614q0 -15 11.5 -25.5t29.5 -10.5t29.5 10.5t11.5 25.5t-11.5 25.5t-29.5 10.5t-29.5 -10.5
t-11.5 -25.5zM124 470q0 -19 13 -31.5t36 -12.5t36 12.5t13 31.5t-13 31.5t-36 12.5t-36 -12.5t-13 -31.5z" />
    <glyph glyph-name="nine.num" horiz-adv-x="342" 
d="M191 362h-122q96 69 129 140q-29 -16 -63 -16q-45 0 -77.5 30t-32.5 80q0 54 42 90t102 36q62 0 103.5 -38t41.5 -99q0 -54 -39 -120t-84 -103zM121 601q0 -20 13 -32.5t35 -12.5t35 12.5t13 32.5q0 18 -13.5 30.5t-34.5 12.5t-34.5 -12.5t-13.5 -30.5z" />
    <glyph glyph-name="zero.den" horiz-adv-x="376" 
d="M30 174q0 83 45 134.5t113 51.5q67 0 112.5 -51.5t45.5 -134.5q0 -84 -44.5 -135t-113.5 -51q-67 0 -112.5 51.5t-45.5 134.5zM128 174q0 -45 17 -73.5t43 -28.5t43 28.5t17 73.5q0 47 -16.5 74.5t-43.5 27.5t-43.5 -27.5t-16.5 -74.5z" />
    <glyph glyph-name="one.den" horiz-adv-x="222" 
d="M172 0h-97v221h-60v57q71 9 87 70h70v-348z" />
    <glyph glyph-name="two.den" horiz-adv-x="324" 
d="M296 0h-273v59l119 98q32 28 43.5 43t11.5 32q0 18 -11 31t-29 13q-20 0 -31.5 -15t-11.5 -35q0 -14 3 -27l-88 2q-2 20 -2 31q0 59 38.5 93.5t95.5 34.5q59 0 95.5 -34t36.5 -87q0 -58 -68 -112l-51 -43h122v-84z" />
    <glyph glyph-name="three.den" horiz-adv-x="328" 
d="M160 -12q-54 0 -94.5 24t-55.5 74l89 22q13 -37 58 -37q48 0 48 38q0 33 -51 33h-28v65h26q21 0 32.5 10t11.5 25q0 14 -11 24t-29 10q-37 0 -45 -38l-89 12q10 54 50 82t91 28q55 0 92 -29.5t37 -69.5q0 -54 -51 -79q30 -12 46 -35.5t16 -49.5q0 -47 -39 -78t-104 -31z
" />
    <glyph glyph-name="four.den" horiz-adv-x="302" 
d="M103 135h55v88zM292 60h-44v-60h-90v60h-148v59l151 229h87v-213h44v-75z" />
    <glyph glyph-name="five.den" horiz-adv-x="325" 
d="M165 -12q-54 0 -90 24t-50 64l89 27q10 -33 46 -33q20 0 32.5 11t12.5 30t-12.5 30.5t-33.5 11.5q-35 0 -46 -29l-78 16l14 208h229v-81h-152l-5 -65q28 22 69 22q46 0 78 -32.5t32 -80.5q0 -51 -37.5 -87t-97.5 -36z" />
    <glyph glyph-name="six.den" horiz-adv-x="342" 
d="M173 -12q-62 0 -103.5 38t-41.5 99q0 54 39 120t84 103h122q-96 -69 -129 -140q29 16 63 16q45 0 77.5 -30t32.5 -80q0 -54 -42 -90t-102 -36zM125 109q0 -18 13.5 -30.5t34.5 -12.5t34.5 12.5t13.5 30.5q0 20 -13 32.5t-35 12.5t-35 -12.5t-13 -32.5z" />
    <glyph glyph-name="seven.den" horiz-adv-x="275" 
d="M5 264v84h263v-46l-125 -302h-106l118 264h-150z" />
    <glyph glyph-name="eight.den" horiz-adv-x="346" 
d="M173 -12q-63 0 -105.5 30.5t-42.5 77.5q0 57 60 88q-49 27 -49 76q0 42 38 71t99 29t99 -29t38 -71q0 -49 -49 -76q60 -31 60 -88q0 -47 -42.5 -77.5t-105.5 -30.5zM132 252q0 -15 11.5 -25.5t29.5 -10.5t29.5 10.5t11.5 25.5t-11.5 25.5t-29.5 10.5t-29.5 -10.5
t-11.5 -25.5zM124 108q0 -19 13 -31.5t36 -12.5t36 12.5t13 31.5t-13 31.5t-36 12.5t-36 -12.5t-13 -31.5z" />
    <glyph glyph-name="nine.den" horiz-adv-x="342" 
d="M191 0h-122q96 69 129 140q-29 -16 -63 -16q-45 0 -77.5 30t-32.5 80q0 54 42 90t102 36q62 0 103.5 -38t41.5 -99q0 -54 -39 -120t-84 -103zM121 239q0 -20 13 -32.5t35 -12.5t35 12.5t13 32.5q0 18 -13.5 30.5t-34.5 12.5t-34.5 -12.5t-13.5 -30.5z" />
    <glyph glyph-name="uni00200326" horiz-adv-x="177" 
d="M0 -225l42 139h135l-75 -139h-102z" />
    </font>
</defs>
</svg>
