<?xml version="1.0" encoding="utf-8"?>
<!-- Generator: Adobe Illustrator 16.0.0, SVG Export Plug-In . SVG Version: 6.00 Build 0)  -->
<!DOCTYPE svg PUBLIC "-//W3C//DTD SVG 1.1//EN" "http://www.w3.org/Graphics/SVG/1.1/DTD/svg11.dtd">
<svg version="1.1" id="Capa_1" xmlns="http://www.w3.org/2000/svg" xmlns:xlink="http://www.w3.org/1999/xlink" x="0px" y="0px"
	 width="509px" height="695px" viewBox="0 0 509 695" enable-background="new 0 0 509 695" xml:space="preserve">
<polygon fill="none" stroke="#EEEDED" stroke-width="0.75" stroke-miterlimit="10" points="93.173,317.815 51.405,299.725 
	46.188,254.507 82.739,227.379 124.507,245.47 129.725,290.688 "/>
<polygon fill="none" stroke="#EEEDED" stroke-width="0.75" stroke-miterlimit="10" points="422.739,571.501 432.592,563.132 
	444.766,567.479 447.087,580.196 437.234,588.565 425.061,584.218 "/>
<polygon fill="none" stroke="#EEEDED" stroke-width="0.75" stroke-miterlimit="10" points="175.783,471.174 195.528,484.582 
	193.789,508.387 172.304,518.783 152.559,505.375 154.298,481.57 "/>
<polygon fill="none" stroke="#EEEDED" stroke-width="0.75" stroke-miterlimit="10" points="433.174,151.174 429.502,127.968 
	447.763,113.186 469.695,121.608 473.367,144.814 455.106,159.597 "/>
<polygon fill="none" stroke="#EEEDED" stroke-width="0.75" stroke-miterlimit="10" points="138.392,62.478 115.24,78.23 
	90.022,66.057 87.956,38.13 111.108,22.378 136.326,34.552 "/>
<polygon fill="none" stroke="#EEEDED" stroke-width="0.75" stroke-miterlimit="10" points="286.218,376.392 297.399,287.459 
	380.008,252.677 451.435,306.827 440.253,395.76 357.645,430.541 "/>
<polygon fill="none" stroke="#EEEDED" stroke-width="0.75" stroke-miterlimit="10" points="104.479,566.826 109.935,625.201 
	62.109,659.114 8.826,634.652 3.37,576.277 51.196,542.364 "/>
</svg>
